<svg xmlns="http://www.w3.org/2000/svg" viewBox="0 0 980 1197"><defs><style>.cls-2,.cls-3{fill:#132965}.cls-3,.cls-5{stroke:#fff;stroke-miterlimit:10}.cls-3{stroke-width:.5px}.cls-5{fill:none}</style></defs><g id="Region_Boundaries" data-name="Region Boundaries"><path d="M333 709l-22 2-6-15 1-17-21-3-19 8 3 16-18 9-30-3 1-15-30-30-31-14-9 16-5-18-35-15-33 3 1 35 16 2-11 13 36 20-66 26 3 9-17 9 49 9-1 24 51 7-26 14-10 20 2 10-39 28 68-2-67 16-19 26-6-19-43 18 40 16-21 5-18 24 29 22-18 20 54-8-29 30 104-3 28-34 3 15 30-20 6 17 34-36 79 8-1-24 42-81-12-42 13-18-9-57-13-6-8-17z" style="fill:#cbcdd7"/><path d="M734 785l-29 5 24-14-11-51-50-20-23 12-22-34-55 27 1-28-32 18-4 22-14-1 7 15-29 22 31 29-35 13 11 18-3-1 30 30-1 15 30 3 18-9-3-16 19-8 21 3-1 17 6 15 22-2 8 17 13 6-2-11 70-35zm-74 19l-21 9-14-16 2-19 15-16 8 13 15 9z" class="cls-2" transform="translate(-309 -156)"/><path d="M520 185l16-39 37 13 27-10 6 12 41-17 13 6-10 16 17 5-76 68 18 7-24 36 43-22 40 6 22 1 29 2 15 27-11 18-10 16-2 24-59 71 21 13-62 38 37 4 11-13 48 19 10 29 18 9 30 113 40 20 16 34 24 20-15 4 33 58-39-15 37 31 16 31-32 40 25 11 8-26 51 1 50 32-19 70 6 9-25 21 1 9-38 2 13 26-32 13 32 19 43-8-16 21-1 17-29 5-1 19-19-4-36 25-37-10-56 6-34-14-49 6 10 17-40-1 4 13-36-25-48 10-22 48-47-16-35 1-42 40-8-23-34 8 10-18 35-12 25-32 39-22 2-26 12 3 13-32 92 7 18-39-42 25-34-38-37 12 8-26-44 1-37 6 7-21-14-11 95-44 11-35-22 4 16-45-63 24 39-53-3-45 44 30 4-17 63 29-2-63 21-43-25 10-33-63 25-53-44 27-25-19-3 22-31-29 2 29-25-31 44-77-39-44 11 62-30-29-6 45-17-14 13-47-13 10 22-54-52 64-2-18h-19l19-25 43-25 28-44-35 25-35-4 20-12-3-32-47 13 37-22 46-17-47-10 40-14-42-24-6-31 22 6-1-43 20 53 3-25 11 43 1-59 13-31 29 15-11-23 9-1-5-18 18-2z" class="cls-2"/><path d="M616 130l40-3-23-16-17 19zm-230 61l70-42-8 25 6 9-10 14 2 13-56 35-18 73-20 17 9-28 1-53 35-48-11-15zm-1 141l-8 28 40-6-32-22zm-6 100l-20 22-11-20 31-2zm143 224l23 18-39 19 16-37z" class="cls-3"/><path d="M1034 1292l37-6s23 2 22 5l-4 15-24 13z" class="cls-3" transform="translate(-309 -156)"/><path d="M892 100l-28 2-2 26-12 22-16 20 16 28 24-8 6 28-10 20-12 22 4 16 16-20 14-2 6-40 16 2 10-32-28-8 6-26-6-22-4-28zm10-28l10 44 18-26 4-36-22-12-10 30z" class="cls-3"/><path d="M789 1h190v315H789z" style="stroke:#132965;stroke-width:1.87px;fill:none;stroke-miterlimit:10"/><path d="M607 596l50-14 17-25 37-7-3-26 9-9m-99 289l58 11 25-10 17-29 27 14 25 6 42-19 29-6" class="cls-5"/><path d="M620 801l10 49-14 33 24 29-11 44 1 56" class="cls-5"/><path d="M628 1013l51-22 27-40 39 10 47-2 19-31h25l18-43 14-15m-52 136l25-7 18 6 8 17-7 17-18 2-21-16-10-9 5-10z" class="cls-5"/></g></svg>