<svg xmlns="http://www.w3.org/2000/svg" xmlns:xlink="http://www.w3.org/1999/xlink" width="502" height="647" version="1"><defs><path id="a" d="M0 1h1v1H0z"/><path id="c" d="M0 0h1v1H0z"/><path id="e" d="M1 1h1v1H1z"/></defs><g fill="none" fill-rule="evenodd"><path fill="#132965" d="M501 479a2904 2904 0 0 0-2-4l1-1v-2-3l-1-2-1-3-1-2a34 34 0 0 0-4-4l-5-4-1-1-3-2-4-2a4804 4804 0 0 1-10-2h-1-1 2l1 1h-1-1-1-1-1v-1h-2v0h-2-2l-1 1v-1h-1l-1 1h-2l2-1h-2l-1 1 1-1h-2 1v1l-2-1h-1l-1 1-1 2a26 26 0 0 1-1 4v1l-1 1h-1v1h-1v4h1v1l-1 1-1 1 1-2v-2l-1-2h-1-1-1-1l1 3-3 1-1 1h-2l-2 1-1 1-1 3h-3l-1-1-1 1h-2-1-1-1-1c-1 1-3-1-3-1l-1 1h-2l-1 1-1-1-2 1v1l1 1-1 1v2l3-1v4h1l2 1-1 2 1 1-1 2-1 1h-1l-2 2-1 1v-1 3l1 1v1h-2l-1 2v2h-2v-1h-1v-1l-1 1h-1v1a25 25 0 0 0 1 2l-1 2-3 1-1 1h-3v2l-2 1 1 1 1 2-1 1-1 1v1h-1l-1-3h-1-1-2l-1 1v-1l-1 1h-1l-1 2v2h-1l-2 1h-3v-2-1l-1-2v-2s-1 0 0 0l2-1-1-2-1-1-1-2-1 3h-1v1h1l-1 1-2-1-1 1h-1l-1 2v3l-1 2-1 1h-2l-1 1-1-2v-1h1l-1-1v-1h-1-1v-1l-1-1v-1l-1-1-1-1v1h-1v1h-2v1h-1l1 1v2s0 1 0 0h-1l-1-1h-2-1v1h-1v1h-2-1v-1h-1v1h-2v1h-3v1h-2l-1-1v-1h-1v-1h-1l-1 1v1h-2v-1h-2v3h1v3h1v1l-1 1h-1v-1h-1v1h-1v1h-1l-2 1h-1l-1 1h-1l1 1-1 1v8l1 1h-2 1v3l1 1v-1-1l1-1v-1l2-1h1l1 1-2 1v2l-1 1h-1l-1 1-1 1v2l-2 3s1 0 0 0l-1 1v-1h-1v1h-1l-1 1-1 1-1 1v1l-1 1a455 455 0 0 0 0 1h-3v1l-1 1 1 1a426 426 0 0 0-1 2v0l-1-1a334 334 0 0 1 0 1v6l-1 1h-1-1-3-1l-1 1h-1l-1 1h-1-1-1l-1-1h-2-1l-1-1-1-1h-1l-1-1h-1l-1 1h-1-1-1l-1-1h-3l-1-1-1 1h-2v1h-1-1v-1l-1 1h-2l-2 1h-1v-1a681 681 0 0 1-1 1h-1-1-1l-2 1h-1l1 1v1l-1 1h-1l1 1 1 1v3l1-1h1v-1 1h1l1-1 2 1v0h-2-1l-1 1s0-1 0 0h-1v2l-1 2h0v-2l1-1h-1v-1h-1v1l-1 1v1l-3 2-2-1-2-1h-1-1-1-1v6l-1 1v8l-1 1h-1v1l-1 1h-1v2l-1 1h-1 1-1-1v1h-1v2l-1 1v2h-2-1-1v1h-1v-1h-1v1h1l-1 1v1h1v1h3v1l-2-1h-1-1s0 1 0 0v-1h-1l1-1h-1l-1 1v1l-1-1a309 309 0 0 0-1 1v2h-1l1 1v2l-1 1v1h-1-1l-1 1h-1l1 1h-1v3h-1v1h-1l-1 1-1 2h-1v1h-1l-1 1-1 1-1-1h-1l1 1-1 1-1 1v1l-1-1h-1v-1h-1l-2 1h-1v1l-1-1v1l-1 1h-1-1l-1 1v5h-1l1 1 1 1c-1 0 0 0 0 0h2v-1h3l1-1v-1l-1-1 1-1h3v1h3l1 1h2l1 1v2h1v4h1v1h2v-1-1l2-1h2l-1-1 1-1h1v-1l-1-1a518 518 0 0 1-2-1h-1-1-1 2v-1h-1 1v-1 1h1c-1 0 0 0 0 0h2v-2h2l-1-1-1-1h-1 2v-1h-1 1v-1h0l1-1v-1h1v-1l-1 1-1-1h1l-1-1a782 782 0 0 1 2-1v2h-1l1 1h1-1l-1 1v1a620 620 0 0 1 1 2v-1 1l1-1-1 1h1s-1 0 0 0l-1 1v0h1v-1-1h1v-1h2v-1l1-1h3v1l1-1v-1l1-1h-1v-1-1h1v-1-1l1-1h2v1l1 1v-1h1v-1 1a220 220 0 0 0 1 0h4l1-1 1 1v-1-1-1 1h6l2 1 1 1h0l1 1h1l-1-1 1-1 1-1v-1h1v1h1l-1 1h1v2h2l1-1v-1h1l-1 1-1 1h0l1 1h1l1-1h2v1h1l1 1h1-1l1 1v1l1 2h2v-1l1-1-1-1h1v-1 2l1-1h1-1v1c-1 0-1 0 0 0h0l1 1h-2l1 1h1v1l1-1h2l-1-2 1-2 1-2 1-1h1v-1-1h-1v-1-1h-1-1-1l1-1-2-1v-1l1 1 1 1 1 1v-1 1h1l1 1v2h1l1-1v-1h1v-1-1a32 32 0 0 0-1 0v0h-1-1v-1-1h1v-1l1-1v1h1v-1l-1-1v-1l1-2-1-1-1 1h-1-1l1-1h3l1-1v-1h1l1-2h-1 1l-1 1v-4h-1v-1-1h-1 1v1h1l-1-1h1v2l1 1v1h-1 1l1 1h1l1-1h2l-1-1 1 1v-1l1-1v-1h1l5-1a563 563 0 0 1 5-1h2v-1l1-1h1l2 1h2l1 1 3 1 9 7 1 2v2l1-1v-1-1h-1l-1-1-5-5 1 1h1v2h2v1l1 1 1-1h0v-1-1l1-1 1 1v-1l1 1h5v1h1v-1l2 1h2l1 1a854 854 0 0 1 1 0h1v1l2-1h2v-1-1h1v-1h-1v-1-1c1 0 0 0 0 0h-1v0c0 1 0 0 0 0h-1c0 1 0 0 0 0h-1a225 225 0 0 0-1 0h1v-1-1h-1v1h-1v-1h0l1-1v-1h1v1s0-1 0 0v1h2l-1-1v-1 1h1v1l1-1v1l1 1h-1 1l1-1 1-1h4v-1 1h1v-1l1 1s-1 0 0 0l2-1h2l2 1h1l1-1v-1-1 1l3-1 3-1h-1v-1h-1v-1h-1 1l1 1v1h3v-1l1-1h-1v-1l-1-1-1-1-1-1-1-1h-1l-1-1v-1l2 1 1 1 1 1-1-1h1v-1-1-1 3l1 1 2 2v-1-1l1-1 1-1-1 1-1 1c1 0 0 0 0 0v2l2 1v1h2l1 2h1l1 1 1-1h-1 1l-1-1v-1l-1-1c0-1 0 0 0 0h-1v-1h1l2 1v-1 1h0l1 1h-1 0v2-1l1 1h2v-1-1l-1-1h1l1-1h1v1l1-1h1v1h1v-1l1 1v1h1l-1-1 1-1c0 1 0 1 0 0v2l1 1v-1h1v-1 1l-1 1h-1-1v1h-1v1h1l2 1 1 1 1 1 1-1v-1h-1v-1h2l-1 1 1-1 3-1h2l2-1h1l-1-1 1 1h5l3-1 2-1h0v-1 1h4l1 1a74 74 0 0 1 2 0h2l2 1 1 1h1l1 1v-1-1 1h1l1 2h2l2 1h1l2-1 1-1 1-1v-1 1l2-2 2-1h2a19 19 0 0 1 5-1l1-1h1l1-1 4-3-1-1-1-1 1 1 1 1h3l3 1h2v-2-3l3-4 3-1h2l1-1h-1 1v-1h2l2-1h1s-1 0 0 0v-1h1l1-1 1-1v-1-2-2a1187 1187 0 0 1-1-5l-1 1 1-1 2-1 1-2v-1-1h-1-2l-2 1h-1-1-1-2-4v1l-1-1-2 1-1 1h-2-1-1v0l-1-1h-2v1l-1-1h-1-1v-1l-1-1v-1-1h-1 0v2h1l-1 1v-1l-1 1h-1v-1h-1v1l-1-1h-2v-1l-1 2-1-2h2l2-1h0l1-1h1v-1 1l1-1v1h1l1-1-1-1h-1-1l-1-1-1 1v-1h-1-1-2v-1l1-1v0l-1-1h1l1-1 2 1h1l1-1a2590 2590 0 0 0 8 0v-1h-1v-1h-1v1h-1 1v-1-1l-1 1h-1-1 1v-1l1 1v-1h2l-1-1a292 292 0 0 1-1-1v-1l-2 1v-1h-1-2v1h-2-1 1v-1 1a1017 1017 0 0 1 1-1h1v-1l2 1h3l1 1h4l1-1 1-3v-1-1l-1-2h-1l-1 2h-1-1-1v1h-1v0l-1 1h-1v-1h1c0-1 0 0 0 0l-1-1h-1v-1h-1l1 1v-1h2v-1h1v1l1-1 1 1a603 603 0 0 1 2-2h-1-1l1-1 2 1h-1v-1h-1-1l1-1v1h1v-1 1h1v-1a165 165 0 0 1 1 0l-1 1h1a8 8 0 0 0 3-1v-1h-1-1-1 3l-2-1h1-1 1v-1l-1-1v-1l-1-1 1 1v1h1v1h1l-1 1 1 1h1l1-1v2h-1v-1a1262 1262 0 0 1 0 1l1 2 2-1h1l2-1 2-1 1-2 2-1v-1l-1-1 1 1h-1v0h-1v1h-1v-1h-1-1 1v-1h1v-1h1v1l1-2v-1h1v-1h-1s0 1 0 0h-1-3-1-3-1v-1l1 1v-1l1 1v-1h1s0 1 0 0l2-1v1h1l1 1 1-1h1v-1l-2-1h-1v-1h-1a129 129 0 0 1 0-1l1 1h1l1 1v-1l1 1v1l1 1 1 1v1l1-2h1l1-1-1-1v-1l-1-1-1-2v-1h-1l1-1 1-1-1 1v1h1v2l1 1v1l1 1 1-1 1-1v-1l1-1 1-1 1-1h1v-1l1-1 1-2h-1-1-1a1286 1286 0 0 1 0-1h2v1h1v1l-1 1v1l-1 1-1 1 1-1-1 1h-1 1l-2 2v-1l2-1 2-1 1-3v-2l1-2a9592 9592 0 0 0 1-6v-1l1-1-1-1 1 1 1-2 1-3v-1-2l1-2-1-1h2v-1"/><path stroke="#FFF" d="M501 479l-1-2-1-2 1-1v-2-3l-1-2-1-3-1-2-2-2-2-2-5-4-1-1-3-2-4-2h-4l-2-1-4-1h-1-1 2l1 1h-1-1-2-1v-1h-1v0h-1v0h-2-2l-1 1v-1h-1l-1 1h-2l2-1h-2l-1 1 1-1h-2 1v1l-2-1h1-2l-1 1-1 2-1 3v2l-1 1h-1v1h-1v4h1v1l-1 1-1 1 1-2v-2l-1-2h-1-1-1-1c0 2-1 1 1 3l-3 1-1 1h-2l-2 1c-1-1-1 1-1 1l-1 3h-3l-1-1-1 1h-2-1-1-1-1c-1 1-2-2-3-1l-1 1h-2l-1 1-1-1-2 1v1l1 1-1 1v2l3-1v2 2h1l2 1-1 2 1 1-1 2-1 1h-1s-1 3-2 2l-1 1v-1 3l1 1v1h-2l-1 2v2h-2v-1h-1v-1l-1 1h-1v2l1 1-1 2c-1-1-2 0-3 1l-1 1c0-2-1 1-1 0h-2v2l-2 1 1 1s0 1 0 0l1 2-1 1c0 1 0 0 0 0l-1 1v1h-1l-1-3h-1-3s0 1 0 0l-1 1v-1l-1 1h-1l-1 2v2h-1l-2 1h-3v-2-1l-1-2v-2s-1 0 0 0l2-1-1-2-1-1-1-2-1 3h-1v1h1l-1 1c-1 1-1-1-2-1-1-1 0 1-1 1h-1s0 1 0 0l-1 2v3l-1 2-1 1h-2c1 1 0 2-1 1l-1-2-1 1 1-1v-1h1l-1-1v-1h-1-1v-1l-1-1v-1l-1-1-1-1v1h-1v1h-2v1h-1l1 1v2s0 1 0 0h-1l-1-1h-3v1h-1v1h-3v-1h-1s1 0 0 0v1h-2v1h-3v1h-2l-1-1v-1h-1v-1h-1l-1 1v1h-2v-1h-2v3h1v3h1v1l-1 1h-1v-1h-1v1h-1v1h-1l-2 1h-1l-1 1h-1l1 1-1 1v8l1 1h-2 1v3l1 1v-1-1l1-1v-1l2-1h1l1 1-2 1v2l-1 1h-1l-1 1-1 1v2l-2 3s1 0 0 0h0l-1 1v-1h-1v1h-1l-1 1-1 1-1 1v1l-1 1a228 228 0 0 0 0 1h-3v1l-1 1 1 1a213 213 0 0 0-1 1v1l-1-1h-1 1v7l-1 1h-1-1-3-1l-1 1h-1l-1 1h-1-1-1l-1-1h-2-1l-1-1-1-1h-1l-1-1h-1l-1 1h-1-1-1l-1-1h-3l-1-1-1 1h-2v1h-1-1v-1l-1 1h-2l-2 1h-1v-1h-1v1h-1-1-1l-2 1h-1l1 1v1l-1 1h-1l1 1 1 1v3l1-1h1v-1 1h1l1-1 2 1v0h-2-1l-1 1s0-1 0 0h-1v2l-1 2h0v-2l1-1h-1v-1h-1v1l-1 1v1l-3 2-2-1-2-1h-1-2-1v5 1l-1 1v8l-1 1h-1v1c-1 0-2 0-1 1h-1v2l-1 1h-1 1-1-1v1h-1v2l-1 1v2h-2-2v1h-1v-1h-1v1h1l-1 1v1h1v1h3v1l-2-1h-1-1s0 1 0 0v-1h-1l1-1h-1l-1 1v1l-1-1h-1v3h-1l1 1v2l-1 1v1h-2l-1 1h1-1-1l1 1h-1v3h-1v1h-1l-1 1-1 2h-1v1h-1l-1 1-1 1c0-1 0-1 0 0l-1-1h-1l1 1-1 1-1 1v1l-1-1h-1v-1h-1l-2 1h-1v1l-1-1v1l-1 1h-1-1l-1 1v5h-1l1 1 1 1c-1 0 0 0 0 0h2v-1h3l1-1v-1l-1-1 1-1h3v1s0-1 0 0h3l1 1h2c-1 1 0 1 1 1v2h1v2 1s1 0 0 0v1h1v1h2v-1-1l2-1h2l-1-1 1-1h1v-1l-1-1v-1h-1 1-2-1-1-1 1-1 2v-1h-1 1v-1 1h1c-1 0 0 0 0 0h2v-2h2l-1-1-1-1h-1 2v-1h-1 1v-1h0l1-1v-1h1v-1l-1 1-1-1h1l-1-1 1 1h1v-2 2h-1l1 1h1-1l-1 1v1a310 310 0 0 1 1 1l-1 2h1v-1-1 1l1-1-1 1h1c-1 0-1 0 0 0l-1 1v0h1v-1-1h1v-1h2v-1l1-1h3v1l1-1v-1l1-1h-1v-1-1h1v-1-1l1-1h2v1l1 1v-1h1v-1 1l1-1a652 652 0 0 0 0 1h4l1-1 1 1v-1-1-1 1h6l2 1 1 1h0l1 1h1l-1-1 1-1 1-1v-1h1v1h1l-1 1h1v2h2l1-1v-1h1l-1 1-1 1h1-1l1 1h1l1-1h2v1h1l1 1h1-1l1 1v1l1 2h2v-1l1-1-1-1h1s-1 0 0 0v-1 2l1-1h1-1v1c-1-1-1 0 0 0h0l1 1h-2l1 1h1v1l1-1h2l-1-2 1-2 1-2 1-1h1v-2h-1v-1-1h-1-1-1l1-1s-1 0 0 0l-2-1v-1l1 1 1 1 1 1v-1 1h1l1 1c0 1 0 0 0 0v2h1l1-1v-1h1v-1-1a16 16 0 0 0-1 0v0h-1-1v-1-1h1v-1l1-1v1h1v-1l-1-1v-1l1-2-1-1-1 1h-1-1l1-1h3l1-1v-1h1l1-2h-1 1l-1 1v-4h-1v-1-1h-1 1v1h1l-1-1h1v2l1 1v1h-1 1c-1 1 1 1 1 1h1c1 0 0 0 0 0l1-1h2l-1-1 1 1v-1l1-1v-1h1l5-1a282 282 0 0 1 1-1h6v-1l1-1h1l2 1h2l1 1 3 1 9 7 1 2v2l1-1v-1-1h-1l-1-1-5-5 1 1h1v2h2v1l1 1 1-1h1-1v-1-1l1-1 1 1v-1l1 1h5v1h1v-1l2 1h2l1 1h2v1l2-1h2v-1-1h1v-1h-1v-1-1c1 0 0 0 0 0h-1v0c0 1 0 0 0 0h-1c0 1 0 0 0 0-1 0 0 0 0 0h-1v-1l-1 1h1v-1-1s0 1 0 0h-1v1h-1v-1h0l1-1v-1h1v1s0-1 0 0v1h2l-1-1v-1 1h1v1l1-1v1l1 1h-1 1l1-1 1-1h4v-1 1h1v-1l1 1s-1 0 0 0l2-1h2l2 1h1l1-1v-1-1 1l3-1 3-1h-1v-1h-1v-1h-1 1l1 1v1h3v-1l1-1h-1v-1l-1-1-1-1-1-1c1 0 0 0 0 0l-1-1h-1l-1-1v-1c1 1 1 2 2 1l1 1 1 1-1-1h1v-1-1-1 3l1 1 2 2v-1-1l1-1 1-1-1 1-1 1c1 0 0 0 0 0v2l2 1v1h2l1 2h1l1 1 1-1h-1c0-1 0 0 0 0h1l-1-1v-1l-1-1c1 0 0 0 0 0 0-1 0 0 0 0h-1v-1h1l2 1v-1 1h0l1 1h-1 0v2-1l1 1h2v-1-1l-1-1h1l1-1h1v1l1-1h1v1h1v-1l1 1v1h1l-1-1 1-1c0 1 0 1 0 0v2l1 1v-1h1v-1 1l-1 1h-1-1v1h-1v1h1l2 1 1 1 1 1 1-1v-1h1-1-1v-1h2l-1 1 1-1 3-1h2l2-1h1l-1-1 1 1h2a28 28 0 0 0 6-1l2-1h0c1 0 0 0 0 0v-1 1h4-1 1l1 1a37 37 0 0 1 2 0c0 1 0 0 0 0h2l2 1 1 1h1l1 1v-1-1 1h1l1 2h2l2 1h1l2-1 1-1 1-1v-1 1l2-2 2-1h2l3-1h2l1-1h1l1-1c1-1 2-3 4-3l-1-1-1-1 1 1 1 1h3l3 1h2v-2-3c0-2 2-3 3-4l3-1h2l1-1h-1 1v-1h2l2-1h1s-1 0 0 0v-1h1l1-1 1-1v-1-2-2a593 593 0 0 1-1-5l-1 1 1-1 2-1 1-2v-1-1h-3l-2 1h-1-1-3-4v1l-1-1-2 1-1 1h-2-2v0l-1-1h-2v1l-1-1h-1-1v-1l-1-1v-1-1h-1 1-1v2h1l-1 1v-1l-1 1h-1v-1h-1v1-1 1l-1-1h-2v-1c-1-1-1 1-1 2l-1-2h2l2-1h1-1l1-1h1v-1 1l1-1v1h1l1-1-1-1h-1-1l-1-1-1 1v-1h-1-1-2v-1l1-1v0l-1-1h1l1-1 2 1h1l1-1 3 1h3l2-1v-1h-1v-1h-1v1h-1 1v-1-1l-1 1h-2 1v-1l1 1v-1h2l-1-1a146 146 0 0 1-1-1v-1l-2 1v-1h-3v1h-2-1 1v-1 1a508 508 0 0 1 1-1h1v-1l2 1h3l1 1h4l1-1 1-3v-2l-1-2h-1l-1 2h-1-2v1h-1v0l-1 1h-1v-1h1c0-1 0 0 0 0l-1-1h-1v-1h-1l1 1v-1h2v-1h1v1l1-1 1 1 1-1 1-1h-1-1l1-1 2 1h-1v-1h-1-1l1-1v1h1v-1 1h1v-1 1l1-1-1 1h1l3-1v-1h-1-1-1 3l-2-1h1-1 1v-1l-1-1v-1l-1-1 1 1v1h1v1h1l-1 1 1 1h1c1 0 2 0 1-1v2h-1v-1a631 631 0 0 1 0 1l1 2 2-1h1l2-1 2-1 1-2 2-1v-1l-1-1 1 1h-1v0h-1v1h-1v-1h-1-1 1v-1h1v-1h1v1l1-2v-1h1v-1h-1s0 1 0 0h-1-1c0 1 0 0 0 0h-2-1-4v-1l1 1v-1l1 1v-1h1s0 1 0 0l2-1v1h1l1 1 1-1h1v-1l-2-1h-1v-1h-1l-1-1h1l1 1s0-1 0 0h1l1 1v-1l1 1v1l1 1 1 1v1l1-2h1l1-1-1-1v-1l-1-1-1-2v-1h-1l1-1s0-1 0 0l1-1-1 1v1h1v2l1 1v1l1 1 1-1 1-1v-1l1-1 1-1 1-1h1v-1l1-1 1-2h-1-1-1l-1-1h3v1h1v1l-1 1v1l-1 1-1 1 1-1-1 1h-1 1l-2 2v-1l2-1 2-1 1-3v-2l1-2v-4l1-2v-1l1-1-1-1 1 1 1-2 1-3v-1-2l1-2-1-1h2v-1z"/><path fill="#CBCDD7" d="M238 372h-1v2h1v-1h1v-1h2v1h2v1l1-1v-1c-1 0 0 0 0 0v-1h1l2-1v-1h2l1-1h-1 1v-1s-1 0 0 0l1-1h1v-1l1-1v-2l1-1v-1h1v-1l1-1h-1 1v-1h-1l-1-1-1-1 1-3v-1-2l-3 1-4 3-1 2-1 3-2 2-1 1-1 1h-1 1l-1 1v2l-1 1v2l-1 2-1 1h1v1M235 374v1l1-1v0h-1M244 373v-1 1M112 506h-1 1m-2 0l-1-1 1 1h0m-15 12h-1 1l-1-1 1 1h0m-19-47v-1-1 1h1l-1 1m112-24h-1l-1-1v-3l1-2-1-4-1-1v-2-1l-1-1v-2-2-1-1h-1v-1 1l-1-1 1 1h-1l-1-1-1-1v-1h0l-1-1a167 167 0 0 1-1 0h2a714 714 0 0 1-1-1l1 1 1-1h1l-1 1 2-2-1 1c-1-1 1-1 1-1h1v1h2v-1l-1-1v0h-2v-2l1 2-1-3v-1h-1l-2-1h3l-1 1h1v-1l1-2-1-1v1h-1-1 1a139 139 0 0 1 1-1h2v-2l-1-1v-2h-1-1l-1-1v-1l-1-1-1-1v-1l-1-1v-2-1-1 1h-3 2v-1h1-1l1 1v-3-1l1-1h-1v-1a619 619 0 0 1-1-4h-1v-1h-1-1l-1-2v-2-1-1l1-1v-2h-2 1c1 0 0 0 0 0v-1l1 1h2l2 2h2l1 1 1-1h1l1-1-1-1v-1h-1l-1-1-1-1-2-1v-1l-1-1h-1v1h-1l-1-1h-1v3l-1 1v-1h-1v-1h-1v1h-1l-1 1h-1-1-1v1h-1l1 1-1 1-1-1v-1l-1-1h-1v-1h2l-1-1v-1-1h-1v-1h1v-1-1h1v-1h-1v-1-1a17 17 0 0 1-1 0h-1v-1h-1v1l-1 1v-1l-1-1h-1v-1h-1l-1-1v-1-1h-2v-1-1h1l-1-1h1v-1-1h-1v-1h-1v-1s-1 0 0 0v-1h-2l-1-1h-1v-1l-1 1v-1 1h-1v1h-1v1h-1v1l-1 1h-1l-1-1-1 1-1 1h1v1l1 1v1l1 1v1h1v2h-1v1h-1-1-1v1h-1 0v1h1l-1 1v1l-1 1-1-1 1-1h-2v1l-1 1h-2-1v-1h-2l1 1h-1l-1 1h-2l-1 1v-1-1h-1l-1-1-1-1v-1h-1-1v-1l-1-1h-1-1-1-1v1l-1-1h-1v-1-1-1-1-1-1h-1v-1h-1-1v-1h-1v-1h-1l-1-1h-1-1v-1l-1-1-1-1 1-1h-1v-1h-2 1l-1-1h1v-1h-1v-1l1-1h1l1-1h2v-1l1-1v-1-1h2l1 1h5v-1-1l1-1v-1h1l1-1h1v-1l-1 1-1-1h-1l-2-1h-1v-1h-1l-1-1v-2l1-1v-1h1v-1h4l1-1 1 1 1 1v-1h3l1-1 1 1v-1h1v-1-1-1l1-1v-1h1l1-1 1-1v-1h1v-1-2-1h-1l2-1h1l1-2 1-1 1-1 1-1v-1-1h2v-2h-1l2-2v-1l1-1 1-1 1-1 2-1 1-1h1l2-1 2-1v-1h1v-1l-1-1h-1l-2-1h-1s0-1 0 0h-1l-1-1h-1l-1-1h-1v0l1-1h-1v-1-1l-1-1h-2v-1h-1-3l-1-1-1 1v-1 1h1l1 1v3l2 1h1l1 1h-1-2-1v-1h1v-1h-1l-1-1v1l-1 1-2 1v-1h-1v1h-1v-1c-1 1-2 1-1 2v1l-1 1h1l-1 1v2s-1 0 0 0l1 2 1 1 1 1v2l-1 1v1h1l1 2-1 1h-1-1v1l-2 1-1 1-1 1-1 1h0l-2 1 1-1 1-1v-1l1-1h1v-1h1v-1l-1-1-1 1h-1-1 1v-1h1l1-1v-1h1l1-1v-1l1-2h-1v-1h-1v-2h-1-1v-1-1-2-1-1h-1v-1l-1 1h-1v1h-2-1s1 0 0 0v2h-1v1l1 1h1c-1 0 0 0 0 0a207 207 0 0 1 1 2v-1-1-1a635 635 0 0 0 0-1v1l1 1h-1 1v1s-1 0 0 0v1l1 1v1h-1v2a472 472 0 0 0-1 0l1-2v-1h-1l-1-2 1 1-1-1v1l-1-1h-1-1 1l-1-1v-1l1-1v-2 0h-1v2h-1-1v2l1 1v-1 2l-1 1 1 1h-1v0h-1-1l1-1h1v-1h-1v1h-1l1-1v-1h-1v-1 1h-1-1-1l1-1h1v-1s-2 0-1-1h-1v1h-1a380 380 0 0 1 0 1v1l-1 1h-1l-3 1h1v1h-1v1h-1v-1-1h1l-1-1v1h-1-1v0h-3v1s-1 0 0 0l-1 1v3l-1-1a582 582 0 0 0 1 3s0 1 0 0v1h0v1l-1-1 1 1h-1v-2h1l-1-1h1-1l-1 1v1h-2v2a360 360 0 0 1-1 0c1 0 0 0 0 0h-1v1l1 1-1-1 1 1 1 1h-1 1v1h2l-1 1h-1a350 350 0 0 1-2 2l1 1h1l1 1v-2h1v1l1-1v2h0l1 1-1-1h-1-1v2h1l1 1 3-3v1l-1 1-1 1h-1-1-1-1v-1 0l-1 1h-1-1v-1 1h-1v1l-1-1a159 159 0 0 0-1 1h1v1h2v1h-1 3a202 202 0 0 0 0 2v-1l1 1s-1 0 0 0h-1l-1-1-1-1v1h-3l2 1h2v1h-1v-1l-1 1v-1h-1-1-1l-1-1-1 1h-1 1-1l-1 1h-1v1h-1l-1 1h1l-1 1h0l-1 1v-1l-1 1h1v3-1 1h3l-1 1h2v1h2v-2 2h1l1 1 1-1h1l2-1v2h1l1-1v-1-1 3l1-1h1v-1 3h-1-1l-1 1h1l-1 1 1-1 2-1v-1l2-1 1-1 1-1 1 1-1 1-1 1 1 1 1-1 1-1h1l1-1h0l1-1v1h1v-1h1v1h-1v1l1-1-1 1h1v1h-1c0-1 0 0 0 0 0 1 0 0 0 0h-1l1-1h-1 1-1v2l-1 1h-1v2l-1 1-1 1 1 1a265 265 0 0 0 1 0l1 1-1-1a1758 1758 0 0 1-2 0v1h-1v1h-1-1v1h-3l-1 1-1-1c0-1 0 0 0 0l-1 1 1 1h-1l-1 2h-1l-1 1v-1l-1 1h0l-1 1-1 1h-2v1h0l1 1v1h1v-1h1l1-1h1l1 1a264 264 0 0 1 1 0v1h-1-2v1h2l1 1h1v0l-1 1h-3l-1-1v2l-1 1 1-1 1 1 1 1 1 1v-1l1 1h-2-1v0h-1l-1-2v0h-1 1l-1-1-1-1-2 1h-1v-1h-1v1h-1-1-1l-1-1h-1l-1-1h-1-4v2l-1 2-1 1v1h-1 1l-1 1v5l-1-3h1v-1h-1v-1-1h-1-1l-1-1h1v-1 1l1-1-1-1h-1 1l-1 1h-1 1l1-2v-1l-1-1v1h-1v-1l-1-1-2-1h-1v1h-1v0h-1-1-1l-1-1h-1v1h-1v-1l-1 1s0-1 0 0v-1h-1-2-1v1l-1-1h-1-1v-1 1h-1v-1h-1v-1 1h-1v-1 1h-1v1h-1v1a223 223 0 0 0 0 1h3v0h-1v1h1l1 1a353 353 0 0 1-2-1v-1l-1 1h-1-1v2l1 2-1-1h-1l1 1h-3-1 1l-1-2v1l1 1s0-1 0 0l1-1h1v-1-1h1-1l-1-1a681 681 0 0 1 0 1v0h-1v-1h-1v-1h-1l1-1h-1v1h-1a66 66 0 0 0-1 0v1h-1v2c-1 0-1 0 0 0v0h-1v1h1l1 1-1 1s0-1 0 0h-1v3l-1 1v4h2l1-1h-1v-1h-1 1v-1 0l1-1-1-1c-1 0-1 0 0 0v-1h1v0s1 0 0 0v-1l2 1-1-1a133 133 0 0 1 1 0v-1l-1-1h1v-1s0 1 0 0l1 1v1h1v0l1 1s-1 0 0 0l-1 1h-1v-1 1h1v3h1v1l1-1v1h-1-1l-1 1h-1 1v3h1s0-1 0 0l1-1h1v-1-1l1 1v-1-1h2a643 643 0 0 1-1 2h-1v1h1l-1 1v-1h-1v3h1v1l1 1v-1 1l1 1-1-1v3l1-1h-1l1 1v-1a1743 1743 0 0 0 1 0v4l-1-1h1v-1h-1l-1-1h-1-1a598 598 0 0 0-1 1v1h1l-1 1v2h-1v1h3l2-1h1l1-1v-1 1h4s1 0 0 0a289 289 0 0 0 1 0v0h1v1l1-1v0h1l-1 1 1-1v-1a33 33 0 0 1 1 0h-1v1l-1 1h2-1 0v1h0a522 522 0 0 0-1 0h1l1 1h-2a1093 1093 0 0 0 1 0h1-1-1 1v1l-1-1v1a173 173 0 0 0-1 0h1l-1 1h1-1v1h2c-1 0-1 0 0 0h-1 2v1h-1 1-1v1h-1-1a638 638 0 0 1-1 0l-1-1v1h-1a35 35 0 0 1-3 0l-2 1h-2-1v3l-1 1v1l1 1-1 1v1h1l1 1h1v1h1l1 1h4l1-1a191 191 0 0 1-1 1h-1-1l-1 1-1-1h-1l-1-1-1-1v1l1 1-1-1h-1l-1 1h-1-1l-1-1v1h-1l-1-1v2l2 1h1a169 169 0 0 1 0 1h-1 2-1l-1 1h1-1v-1h-1v-1h-1-1-1-1l1 1h-1-1l-1-1h1v1h-1-1v1h2v1l2 1h2v1h-1v-1h-1-2 2a1218 1218 0 0 1-1 0v1h2l1 1h0l1 1h-1v-1h-1-1l1 1h-1 1l1 1v-1 1l-1 1h-1v-1h-1s-1 0 0 0h-1v1h-1 1l-1 1v1l1-1v1l1 1v-1h1c-1 0 0 0 0 0s1 0 0 0l1-1 1 1v1h1v1h2v1h1v-1h1v-1-1h1v1h0v-1-1 1h1l1-1-1-1h1c0 1 0 0 0 0l1 1h-1v1h-1v2l1-1s0-1 0 0l1-1h1v-1 1h-1 2l-1 1a23 23 0 0 1 0 1v-1l-1 1v1l-1-1v1h-1-1 1l-1 1h1v1h-1v1h1l-1 1 1-1c0 1 0 1 0 0 0 1 1 0 0 0h1l1 1h-1 1v-1 1l2 1v-1c0 1 0 1 0 0h1l1-1 1-1v-1l1-1h1v-1l1-1v1l-1 1 1-1v1a1164 1164 0 0 0-2 2h3l1-1a93 93 0 0 1-1 1v-1-1-1h0v1l1 1a4129 4129 0 0 0 1 0v1l-1-1v2h-1-1l1 1-1 1h1v1l-1 1v2h1l1-1v-1l1-1v-1l1 1h-1v1 2h1v1h1v-1h4l2-1 1 1 1-1h7v-1h1v0h2v-1l1 1v-1 1l1-1v1h1l1-1h1v1h-1 1-2v1h1l-2 1h0l-1 1h-1 2l1-1v1h-1 1l1 1 1-1 2-1-1 1a615 615 0 0 0-2 2v1l1 2-1-1h-1v-1h1-2-2v1h1l1 1v-1l1 1h-1-1c0-1 0 0 0 0v-1 0h-1-2l-1 1h2v1l-1-1s-1 2-2 1v1l-1-1h0l-1-1h-1l-1-1-1 2v1l-1 1-1 1-1 1v1l-1 1-1 1v1l-1 1v2h-1l-1 1v1h4l1-1v2h-1v1l-1 1-1 1h-1c1 0 1 0 0 0l1 1-1 1 1 1h-1l-1 1v1l-1 1h1l-1 1v2h-1-1v-1l-2 1h-1v2l-1 1v1h-1l-1 1-1 1h-1 1l-1 1-2 1v1h-1l-1 1h-1v1h-2v1h1l2-1h3l1-1h2c0 1 0 0 0 0v-1-1h4l2-2-1-1h-1 2v2c1 0 1 0 0 0h2l1 1h2v1l2-1h1l1-1h1v-1l1 1s0-1 0 0l-1 1c-1 0-2 1-1 2h2l1-1v-1h4v-1l1-1h1v-1l1-1-1 1h1v-1l1-1v-1l1-1v-1-1l-1 1 1-1h1v-1s1 0 0 0l2-1v-1l1 1h-1v2h-1 1v1h1l-1 1 1 1h-1v-1 2l1 1 1-1h2l1 1v-1 1l1-1 1 1h3v1l1 1 1-1h-1l-1 1v-1l-2-1-2 1 1 1-1-1-1-1-1 1h-1-1l-1 1-1-1-1 1v1h-1 1v1l-1-1s0 1 0 0v1l-1-1v1l-1-1v0l-1 1 1 1h-1v-1h-1v0h-1l-2 1-1 1v-1 1h-2l-1 1h-4 1v-1h-3-1l-1 1v1l-1-1h-1-1-1l-2-1-1 1v1l-1 1a131 131 0 0 1 0 1v2l-1 1h1l1-1v1h0l1 1v1l1 1v0h-1v-1-1-1h-1-1-1l-1 1-1 1h-1-1v1h-1-1l-1 1v-1h-1-1v1h-1v1h1v1h3v2l1 2-1 1 1-1v1h-1l-1 1h2l-1 1h-1l1-1h-1-1l1 1a298 298 0 0 0 1 0l1 1h3v1h1v-1 1h-1-1-1l-1 1v-1h1-1-1l-1 1h-2-2l-1-1-1-1v-1-1-1 0l-2 1h1l1 1-1 1-2 1h-2v1h-1l1-1v-1-1h-1s0-1 0 0h-1l-1 1v-1l-1 1-1 1h-1l-1 1h1-2a24 24 0 0 1-1 1l1 1-1 1v1h-1l-1-1 1-1h-1l-1 1-1 1h1v1H8v4h5l-1-1 1-1v1h3l-2-1h1v-1l1 1 1 1h1a923 923 0 0 1 1 0h2a215 215 0 0 1 2-1s0 1 0 0h3l1-1 1 1 1 1h0v-1l-1-1h3l1-1h2l1 1v-1 1l1-1 1 1-1-1v1h-1v1h1v0h-1-1l-1 1h-1l-1-1v-1 3l-1 1v1h0v-1l-1 1-1 1v-1-1h0v1l-2 2h-1-1-1v1h-1-1l-1 1-2 1h-1l-1 2h-1l-1 1h2v0h1l1-1h1c1 0 0 0 0 0v1l-1-1v1h-1v1h-1l1 1v1l-1-1-1 1h-1v1h-1-2v2l1-1-1 1h1a201 201 0 0 0-1 1h2c1 0 0 0 0 0v1h1l-1 1h1l-1 1v1l2-1v-1h1v-1h1v-1h2l1 1v2l-1 1h-1 1l1 1h1v0h1l-1 1 1 1 1-1 1-1h1v-1c0 1 0 0 0 0l1 1 1-1 1-1h1l1-1h1v-1-1 2h2l-1 1v-1h1l1-1h-1 2s-1 0 0 0v-1 1l1-1 1-1h3v-1h3l-1 1h-1l-2 1h-1l-1 1-1 1v1a1218 1218 0 0 1-1 1 170 170 0 0 1 1 1 623 623 0 0 0-1 0h-2l1-1h-1v1l-1 1h-1c1 0 1 0 0 0l1-1-1 1h-1l-1 1h-1l-1 1h2l-1 1v1h-1v1h-2-1-1v1h2v1c-1 0-1 1 0 0l-1 1h-1s0 1 0 0l-1 1-1-1v2l-1 1h1v-1h1v-1l1 1 1-1v1h2-1 2v-1l1-1 2 1v-1-1h1v-1h4l2-1h1v-1 1l1-1h1v1h1l1-1h1v-1h1l1-1v-1-1h1v1l1 1 2-1v3l-1 1h-1l-2 1h-1l-1 1-1 1h-1-1l-1 1-1 1h-1l-1 1h-1v1h-1l-1 1h3l1-1h1l1-1h2v-1h2v-1h2l1-1-1 1h0l-1 1-1 1h-1l-1 1v1h-1v1h-1-1l-1 1h-1v1h-1a682 682 0 0 0-2 1h1a131 131 0 0 1 0 1v1h1l1-1v1h1l1-1h-1 1v-1 1l1-1v-1h1l1-1h-1 2v2l1-1c1 0 1 0 0 0l1-1v1a226 226 0 0 1 1-1l1-1v1h2v-1h1l1-1h-1v-1 1h1v1l1-1v2a490 490 0 0 0 0 1l1-1v-1h2v-1h1l-1 1v1h-2 1l-1 1a271 271 0 0 1 0 1l1-1h-1l1-1v2h-1v1h2l1-1v-1h1v1h1-1 1l1-1v1h-1 2v-1h1v-1-1-1l1 1h-1v1h1v-1h1v-1l1 1-1-1v-1h-1 1l-1-1h1v1h1v1h2l-1-1 1 1v-1l1 1v-1h2l1 1v1l1-1h2v-2l1-1a607 607 0 0 1-1-1v-1l1 1v1h3v1l1-1v2l1-1h1v-1h1v-1l-1-1 1-1h-1-2 2v-1l1 1v-1-1l1 1v1h4v1l1 1v-1-1h-1l1-1v-1l1-1h-1l1 1v-1-1l-1 1-1-1-1 1v-1h-1v-1-1h-1v-1 1l1 1h0v1h2v-1 1h2l1 1v1l1-1-1-2h-1 1v-1 1l1 1 1-1v2l1-1h1l1-1h1v-1h1v-1h1l-1-1h-1l1-1h1v-1-1h-2-2l1-1 1 1h2-1l-1-1h1v-1h-1v1l-1-1h1v-2h-1l-1-1v1a165 165 0 0 0-1-1h1v-1h-1-1-1 3l1 1h1v-1l1 1 1-1v1a389 389 0 0 1 1 0h2-1 1l1-1v0h1l-1 1h1l-2 1v1h2-1v1h-1-1v1h-1 1l-1-1v3h5v-1h4c0-1 0 0 0 0v-1h1v-1h-1 1l1-2h5v-1h-1v-1c-1 1-1 0-1-1v1l-1-1 1 1v-1l1 1-1-1h1l1-1 1-1-1-2h-1 0v-1l1-1v-1-1-1-1h-1v-1l1 1v-2-1 3l1 1v2h-1v2h-1l1 1h2v1a229 229 0 0 1-1 0h1l-1 1 1 1v-1h2l1 1 1-1v-1l1-1h3v-1h1v-1l1-1v-1h1a2 2 0 0 0 0-1h-2l-1-1s0 1 0 0h-1v-1a104 104 0 0 1 1 0v-1h-1 1v1h1v-1l1 1v1a1010 1010 0 0 0 3-2v-1h1l1-1h3l2-1v1l1-1h1v1h4v-1l2-1 1 1-1-1h-1 1l-1-1 1 1h1l1-1v1l-1 1-1 1h1l1-1 2 1 1-1v-1h1l1-1h-1v-1c-1 0 0 0 0 0v-1-1-1h1v1l1 1 1 1h-1l1 1v1l-1 1-1 1 1 1v-1l1-1v-1h1l1-1h1v-1-1h-1l1-1-1-1 1 1 1-1 1-1 1-1v1l-1 1-1 1v1h2l2-1 2 1v-1 1h-1l-2-1 3 1 2 2h2l3-1h2l2 1h1v-1-2l1-1v-1h-1-1l-1-2v-2 2h-1l1-1h-1a942 942 0 0 1-1-2l-1-1-1-1v1h-1l-1-1v-1l-1-1h1v-2l-1-1v1-1-1-2l1 3-1 1h1v2h-1l1 1v1h2l1-1v2h1v-1h2l1 1h1v-3-1l1-1 1-3 2-2v-1a1442 1442 0 0 1 2-2v-2-1-1h-1v-2-2a5241 5241 0 0 1 3-4v-1-1l1-2h-1v-1l1-1 1-2 1-1v-1l1-1v-1l1-1v-1l1-2v-1M31 376v0m34 93v0"/><path fill="#CBCDD7" d="M11 519h2v-1h1l1-1v-1l-1 1v-1h-1v1h-2l-1 1v1h1M21 537h-1-1s1 0 0 0v0l-1 1-1 1h1v-1h2v-1l1 1v-1M17 529h-1 1-1 1M14 516h1v-1l-1 1M10 523l1-1-1 1M18 528v0M5 527v-1 1M16 524s1 0 0 0M6 526h0M15 515zM7 505l-1-1-1 2-1 1v-1h1l2-1M4 503H3h1M2 508l1 1-1-1M3 508v-1l-1 1h1M0 507h0M6 504h0"/><g transform="translate(0 506)"><mask id="b" fill="#fff"><use xlink:href="#a"/></mask><path fill="#CBCDD7" d="M0 1" mask="url(#b)"/></g><path fill="#CBCDD7" d="M20 409v1h1l-1-1M21 412h-1 1M21 411l-1 1 1-1M16 409h0M19 410h-1 1M20 416h1-1v0M18 419l1-1-1 1M18 419h-1 1M18 409h-1 1M22 418l-1 1 1-1M23 419v-1 1M20 407v0M19 418h0M17 380h1l1 1 1-1h2v1l1-1c0 1 0 1 0 0h1l1 1v3l1-1v0l1 2 1 1v1h1v-3l1-1h-1 1a1481 1481 0 0 1 0-1v-1-1h-1v1h-1 1v-1-1l1-1-1-1h-1v-1l-1 1h-1l-1-1-1 1h-1v1h-2v-1h-1-1v1s1 0 0 0v1h-2l-1 1 1-1v1M18 405h1l-1-1 1 1 1-1h-1l1-1h-1c-1 0 0 0 0 0a237 237 0 0 0-1 0v1l-1-1v1l1 1M23 397l-1 1c0-1 0 0 0 0h-1v1h1-1 2v-1h1l-1-1M15 405h1v-1h-1v1M18 371v-1h1v-1l-1 1v1h-1 1M19 373h0M20 404h1-1M21 403h0M21 373s0-1 0 0M16 406v-1 1M19 368v1c0 1 0 0 0 0h1l-1-1M22 364v-1 1M22 364h-1 1M23 359c0-1 0-1 0 0M19 367v0M33 536h1l1-1c0 1 0 1 0 0h1-1-1-1-2v1l-1 1a448 448 0 0 0 1 0l1-1h1M26 527v-1 1M48 547l-1 1-1 1 1-1v1l1-1v-1M51 545h-1 1v1h-1c1-1 0-1 0 0v1l1-1v-1M46 532h1s0 1 0 0h1v-1h-1l-1 1M50 545v-1h-1 1l-1 1h1M44 545l1-1h1l-2 1M48 543h1-1M47 544v-1 1M51 544v0M31 526v-1 1M26 530h1-1v0M48 545h-1 1M42 521v-1l-1 1h1M47 546v-1 1M40 521l1-1-1 1M46 546s1 0 0 0M31 534v0M41 522v-1 1M45 529h1-1M41 540h-1 1M60 544c0-1 0 0 0 0M49 544h1-1M47 442l-1-1-1 1 1 1 1-1M47 471h-1v1l1-1M46 458h0M44 471v-1l-1 1h1M34 436l1 1h2v1h2l1 1 1 1v-1l1-1-1 1c0-1 0-1 0 0l-1-1 1-1h-1v-1h-1-1l-1 1v-1l-1-1c0 1 0 1 0 0h-1l-1 1M36 429l1 1s-1 0 0 0h1v-1l1 1v1l1-1v1l1-1v-1-1-1s0 1 0 0c0 0-1-1 0 0h-1l-2 1v1h0l-1-1h1-1v1h-1M39 426h3l-1-1-2 1M42 441h1l1-1h1l-1-1h1-1-1v1h-1v1M33 425h-1 1v0M41 425h1c-1 0 1 0 0 0v-1l-1 1M38 427h1l-1-1v1M40 422h1-1M40 425l1-1c-1 0-1 0 0 0h-1v1M35 426v-1l-1 1h1M28 424v-1 1M30 421v-1 1M42 427v-1 1M32 426v-1h-1l1 1M38 427h-1 1M33 436h1-1M35 419h-1 1M39 431h1-1M33 436s0-1 0 0M25 419c0-1 0 0 0 0M27 407v0M42 426h-1 1M41 425h0M33 424v0M42 424h-1 1M40 424h0M42 426h1-1M31 425h-1 1M29 391h-1v-1h-1v1h-2v1h4v-1M31 379v-1h1-2v1h1s0-1 0 0M32 380l1-1h-1v1M28 387h1v1l-1-1M42 389l-1 1h1v-1h-1 1M26 398v-1h-1l1 1M40 389s1 0 0 0l1-1-1 1M43 392v0M41 389h0M27 404v-1 1M42 388h1-1M42 388h0M40 386c0-1 0-1 0 0M43 388v-1 1M41 391h0M30 403h1-1M41 386h0M38 385l1 1-1-1M42 392h-1 1M40 386h1-1M41 388h1v-1l-1 1M39 386h1-1M39 385h-1 1M42 386zM39 386v0M39 385h1-1M43 387v-1 1M41 389v-1 1M44 387h-1 1M38 386h0M41 389v0M42 386h0M41 387v-1 1M40 388h1-1M31 402h-1 1M32 355v1h1l-1-1M97 521h2v-1a943 943 0 0 1-2 0v-1h-1c0 1 0 0 0 0h-1l-1 1 1 2 1-1h1M96 523v-1 1M95 522h0M62 542h1-1M65 469zM66 465h-1 1l1-1h-1v1M63 471v-1l-1 1h1M68 464l-2 1 2-1M65 468l1-1h-1v1M66 466l-1 1 1-1M68 466l1-1h-1v1M66 467h0M65 467l-1 1 1-1M66 462v0M69 464v0M65 435v-1 1M64 434v1h1v-1h-1M67 433l1-1-1 1M68 431v0M68 433l1-1-1 1M69 432h0M61 437h-1 1M59 363h1l1 1h1l-1-1h-2M90 336zM84 358v-1h-1l1 1M85 350l2-1h-1s1 0 0 0c1 1-1 1-1 1M81 348h-1 1M88 349h-1 1M84 357h0M61 364v1l1-1h-1M62 365h-1 1M85 308h1l-1 1v2h3v-1l-1-1s1 0 0 0c0-1 0-1 0 0v-1h-1v-1 1h-1M90 307c-1 0 0 0 0 0h1v0l-1-2v2M89 312h0M92 303h1v-1h-1 1l-1 1M89 310v0M89 305h1-1M89 310v-1 1l-1-1 1 1M94 301v0M94 301l-1-1 1 1M91 312h-1v1l1-1M89 319v0M74 332c1 0 0 0 0 0M94 304v-1 1M92 305v-1 1M88 312h-1 1M92 312h-1l1 1v-1M93 301v0M89 308v0M102 336v-1 1M128 304l-1-1-1 1 1 1h3l-1-1h-1M98 290l1 1 1-1v1l-1-1h-1v-1l-1 1h1M100 296v1h1l-1-1h1-1M116 296v-1 1M128 289v-1 1M113 297l-1-1 1 1M101 294v0M163 504h1-1M164 503l1-1-1 1M138 278v1l1-1h-1M185 419c1 0 0 0 0 0M183 425h-1 1M182 425v0M188 412h-1v1h1v-1M185 418h1-1M38 386v-1 1"/><path fill="#132965" d="M271 537"/><path stroke="#FFF" d="M271 537z"/><path fill="#132965" d="M276 540h1l-1-1v1"/><path stroke="#FFF" d="M276 540h1l-1-1v1z"/><path fill="#132965" d="M217 529l-1-1v1h1s0-1 0 0"/><path stroke="#FFF" d="M217 529l-1-1v1h1s0-1 0 0z"/><path fill="#132965" d="M214 520h1l-1 1h1v-2l-1 1"/><path stroke="#FFF" d="M214 520h1l-1 1h1v-2l-1 1z"/><path fill="#132965" d="M217 531h1-1"/><path stroke="#FFF" d="M217 531h1-1z"/><path fill="#132965" d="M218 529"/><path stroke="#FFF" d="M218 529z"/><path fill="#132965" d="M215 521"/><path stroke="#FFF" d="M215 521z"/><path fill="#132965" d="M240 535"/><path stroke="#FFF" d="M240 535z"/><path fill="#132965" d="M241 535h-1l1 1v-1"/><path stroke="#FFF" d="M241 535h-1l1 1v-1z"/><path fill="#132965" d="M229 511"/><path stroke="#FFF" d="M229 511z"/><path fill="#132965" d="M241 503"/><path stroke="#FFF" d="M241 503z"/><path fill="#132965" d="M272 537"/><path stroke="#FFF" d="M272 537z"/><path fill="#132965" d="M277 538"/><path stroke="#FFF" d="M277 538z"/><path fill="#132965" d="M224 529"/><path stroke="#FFF" d="M224 529z"/><path fill="#132965" d="M224 529"/><path stroke="#FFF" d="M224 529z"/><path fill="#132965" d="M241 425v1h2l1 1c-1 0 0 0 0 0v2h2v-1h-1v-1-1l-1 1 1-1h-1l1-1h-1l-1-1v0h-1 1l1-1h-1l-1 1c0-1 0 0 0 0h-1v1c-1 0 0 0 0 0zm24 26zm-22-27h0zm-6 38v-1l-1 1h1c-1 0 0 0 0 0zm13-4c0 1 0 0 0 0zm17-34h0zm-23-7zm18 13zm-16-6v1h0l-1 1v1h1v1c0-1 0 0 0 0s1 0 0 0v1h1v1h1v1h1l-1 1 1 1s0 1 0 0h1v1s1 0 0 0l1 1v-1h1l1-2v2h-1v2h1l2 1-1-1h1v-1a110 110 0 0 0 2 0l2-2 1-1v-1h2v-1l2-1 1-1v-1l1-1v-1h1v-1h-3-1l-1 1h-2v-1-1h-1v-1-1h-1l-1-1 1-1v-1h-1v-1 1l-1-1h-1-2-1l-1-1-1 1h0v0c0 1-1 0 0 0h-1v1h-1v-1l-1 1h-1-1l1 1v3l-1 1 1 1zm39 39zm-5 30zm-3-63v-1l-1-2-1-1h-1-1l-2 1-1 1h-1v1h-1-1v1h-2l-1-1v1h-1l-1 1h-1l-1 1v1l-1 1-2 2-1 1v2l-1-1 1-1h-1v5l-1 1v1l-1 1h-1-1v1l-1 1-1 1v1h-1-1-1l-1 1h-1l-1 1-1 1v1l-1 1v1h-1-1v2l-1 1v1l1 1s0-1 0 0l1-1h2l1-1 1-1 2 1 1 1v1h1l1-1v-1h-1v-1c1 0 0 0 0 0l2-1v-1-1h1l2-1h-1 3l1-1 1-1h4l1 1 1-1v-1 1h3l1-1h-1v1l-1 1h-2v1l1 2-1 2h1l-1 1v-1 1l1 2 2 3v1l1-1h2l1-1h2-1l-1 1h-1l-1 1-1 1h-1l1-1-1 2-1 1-1 2v1 2h1l-1-1 1 2v2l1 1 3-1h2l-1 1-2 1h-1l-1-1v5l-1 1v3l-1 1v2l-8 9-1 1h-1v-1l-2 2-2 1-1 1v1l-2 1-1-1h-1-1-1l-1 1h-1v3l-1-1-1-1-1 1h1l-1 1-1 1-1 1h-1v2h-1-1c0 1 0 0 0 0l-1-1v2h-1-2v0h1l-1-1h-2-1-1v1l-1 1h1v2h-1-1-1 1l-1 1h-1-1 1-1v1h-1l-1 1h-1l-1 1v1 1h-1 1v1l1-1h4v1h1v-1h1v1l1 1v4l-1 1v-1h-1l-1 2-1-1v2h-2 1v1h2v2c0 1 0 0 0 0h1v-2h-1 3v-1l1 1v1l1-1 1 1c0-1 0-1 0 0l1-1v1h3v-1 1s0-1 0 0l1-1 1-1h-1v-1-1-1l-1 1-1-1h1l-1-1 1 1v0h3v-1h0l-1 2c0-1 0 0 0 0v1h-1l1 1v1h1l1-1-1 1 1 1c-1 0 0 0 0 0s-1 0 0 0h-1c1 0 0 0 0 0l-1-1-1 1v1l-1-1s-1 0 0 0h-1l-1 1h2v1h-2v-1h-1l-1-1-1 1v1l-1-1h-1-1v1h3v3h1l1 1h2l1 1v-1h2l-1-1h1v-1h1v-1h1v1h3v-1h2l1-1v-2-1h-1l1-1h8l3-1h-1l-1-1v-1-1h1v2h2l1-1v-1h1l1-1-1 1h-1v2 1l2 1h-1 0-2l2 3 2 1h1v-1 0h1c-1 0 0 0 0 0 0 1 0 0 0 0h2l1 1 1 1h1l1-1s0 1 0 0l1-1v1l-1 1-1 1h-1l-1 1-1 1h-1v-1h-1v-1-1l-1 2-1 1h-1l1 1v1l-1 1h1l2 1 1 1v-1h2l1-1 1-1 2 1h1s0-1 0 0h3l-1-1v-1l2-1v-1l1 1 2-1h1v-1 1h1l-1 1 1 2 1-1v1h-1 1v1l1 2v1l1 1 1 1 1 1c-1-1 0-1 0 0l1-1 1 1 1 2 2 1v1l2 1h4l1 1h2l2-1h1l1-1-1 1s1 0 0 0h1l1-1 1 1 1-1v-1-1-1h-1 1s-1 0 0 0v-1 1l1-1 1-1h1v-1h1l1-1h1l1-1v-1l1-1v-1l-1-1v-1h0v1l1 1-1 1h1a146 146 0 0 1 0 1v1h3l2-1 4-2h1l1-2h2l-1-1v-3h-1 2l-1-1v-1-6-1l1-1s-1-2-2-1c0 1 0 0 0 0 0-1 0 0 0 0h-1-1l-1-1v-2l-2-1h-1v-1c-1 0 0 0 0 0l-1-1h-1v1h-2l-1 1v-1-1h-2v-1l-1-1-1-2-1-2c1-2 0-2-1-3v-1-1l1-1-1-1h-1v-1c1 0 4 0 3-1h-2l1-2v-1h1v-2h1v-1l2-1h2c-1-1-3 0-2-2v-2l2-1-1-1-2 1-3-2-2-1-1-1-2-1-1-2h1l-1-1 1 1 1-2 2-1h5v-2h1v-1-2h-2l-2 1v1h-2c1 0 2 0 1-1l-1-2 2-1v-1l1-1s1 0 0 0v-1h1v-1-1-1l1-2h2s0 1 0 0v-1l-1-1h-1v-1h-2v-1s0 1 0 0h-1v-1l-1 1-1-1h-1v-1-2l2-2-1-1 1-1 1-2h3v-1l2-1v-1 1l1 1h2l2 1 1 1 1 1 1-1c1-1 2 0 2-2v-1-2h-1-2c-2 0-1-2-2-2v-1h-1v-1s1 0 0 0v-1-1h-1v-1-1l1-1-2 1-1-1-1-1v-1h-1l2-1 1-1-1-1v-1l-2-2-4-1 1 1v1l1 1-1-1h-1l-1-2h-1 1-1l-1-1-2-2-1-1h-1l-1-1-1-1h-1-1l-2 1v-1l-1 1-2 1h-1l1 1-1-1-2 1-2 1h-3l-2-1v-1h-1l-1-1h-2l-1-1v1l1 1v2l1 1c0-1 0 0 0 0h1v1 3l1 1-1-1v-1zm-21 94l-1-1 1 1zm-32 5zm86-93z"/><path stroke="#FFF" d="M241 425v1h2l1 1v2h2v-1h-1v-1-1l-1 1 1-1h-1l1-1h-1l-1-1v0h-1 1l1-1h-1l-1 1h-1v1zm24 26zm-22-27h0zm-6 38v-1l-1 1h1zm13-4zm17-34h0zm-23-7zm18 13zm-16-6v1h1a286 286 0 0 0-2 1v1h1a196 196 0 0 0 0 1v-1 2h1v1h1v1h1l-1 1 1 1s0 1 0 0h1v1l1 1v-1h1l1-2v2h-1v2h1l2 1-1-1h1v-1a220 220 0 0 0 2 0l2-2 1-1v-1h2v-1l2-1 1-1v-1l1-1v-1h1v-1h-3-1l-1 1h-2v-1-1h-1v-1-1h-1l-1-1 1-1v-1h-1v-1 1l-1-1h-1-1-1-1l-1-1-1 1h0v0s-1 0 0 0h-1v1h-1v-1l-1 1h-1-1l1 1v3l-1 1 1 1zm39 39zm-5 30zm-3-63v-1l-1-2-1-1h-1-1l-2 1-1 1h-1v1h-1-1v1h-2l-1-1v1h-1l-1 1h-1l-1 1v1l-1 1-2 2-1 1v2l-1-1 1-1h-1v5l-1 1v1l-1 1h-1-1v1l-1 1-1 1v1h-1-1-1l-1 1h-1l-1 1-1 1v1l-1 1v1h-1-1v2l-1 1v1l1 1 1-1h2l1-1 1-1 2 1 1 1v1h1l1-1v-1h-1v-1c1 0 0 0 0 0l2-1v-1-1h1l2-1h-1 3l1-1 1-1h4l1 1 1-1v-1 1h3l1-1h-1v1l-1 1h-1-1v1l1 2-1 2h1l-1 1v-1 1a5606 5606 0 0 1 3 5v1l1-1h2l1-1h1l-1 1h-1l-1 1-1 1h-1l1-1-1 2-1 1-1 2v3h1l-1-1 1 2v2l1 1 3-1h2a16 16 0 0 1-3 2h-1l-1-1v5l-1 1v3l-1 1v2l-8 9-1 1h-1v-1l-2 2-2 1-1 1v1l-2 1-1-1h-1-1-1l-1 1h-1v3l-1-1-1-1-1 1h1l-1 1-1 1-1 1h-1v2h-1-1l-1-1v2h-1-2v0h1l-1-1h-2-1-1v1l-1 1h1v2h-1-1-1 1l-1 1h-1-1 1-1v1h-1l-1 1h-1l-1 1v2h-1 1v1l1-1h4v1h1v-1h1v1l1 1v4l-1 1v-1h-1l-1 2-1-1v2h-2 1v1h2v2h1v-1-1h-1 3v-1l1 1v1l1-1 1 1s0-1 0 0l1-1v1h3v-1 1s0-1 0 0l1-1 1-1h-1v-1-1-1l-1 1-1-1h1l-1-1 1 1v0h3v-1h0l-1 2c0-1 0 0 0 0v1h-1a654 654 0 0 1 1 2h1l1-1-1 1 1 1c-1 0 0 0 0 0s-1 0 0 0h-1l-1-1-1 1v1l-1-1h-1l-1 1h2v1h-2v-1h-1l-1-1-1 1v1l-1-1h-1-1v1h3v3h1l1 1h2l1 1v-1h2l-1-1h1v-1h1v-1h1v1h2a550 550 0 0 1 1-1h2l1-1v-2-1h-1l1-1h8l3-1h-1l-1-1v-1-1h1v2h2l1-1v-1h1l1-1-1 1h-1v2 1l2 1h-1 0-2l2 3 2 1h1v-1 0h3l1 1 1 1h1l1-1 1-1v1l-1 1-1 1h-1l-1 1-1 1h-1v-1h-1v-1-1l-1 2-1 1h-1l1 1a6 6 0 0 1 0 1l-1 1h1l2 1 1 1v-1h2l1-1 1-1 2 1h4l-1-1v-1l2-1v-1l1 1 2-1h1v-1 1h1l-1 1 1 2 1-1v1h-1 1v1l1 2v1l1 1 1 1 1 1 1-1 1 1 1 2 2 1v1l2 1h4l1 1h2l2-1h1l1-1-1 1s1 0 0 0h1l1-1 1 1 1-1v-1-1-1h-1 1v-1 1l1-1 1-1h1v-1a40 40 0 0 1 2-1h1l1-1v-1l1-1v-1l-1-1v-1h0v1l1 1-1 1h1a291 291 0 0 1 0 2h3l2-1 4-2h1l1-2h2l-1-1v-1-2h-1 2l-1-1v-1-4-2-1l1-1-2-1c0 1 0 0 0 0h-1-1l-1-1v-2l-2-1h-1v-1c-1 0 0 0 0 0l-1-1h-1v1h-2l-1 1v-1-1h-2v-1l-1-1-1-2-1-2-1-3v-1-1l1-1-1-1h-1v-1l3-1h-2l1-2v-1h1v-2h1v-1l2-1h2c-1-1-3-1-2-2v-2l2-1-1-1-2 1-3-2-2-1-1-1-2-1-1-2h1l-1-1 1 1 1-2 2-1h5v-2h1v-1-2h-2l-2 1v1h-2l1-1-1-2 2-1v-1l1-1v-1h1v-1-1-1l1-2h2v-1l-1-1h-1v-1h-1-1v-1s0 1 0 0h-1v-1l-1 1-1-1h-1v-1-2l2-2-1-1 1-1 1-2h3v-1l2-1v-1 1l1 1h2l2 1 1 1 1 1 1-1 2-2v-1-2h-1-1-1l-2-2v-1h-1v-1s1 0 0 0v-1-1h-1v-1-1l1-1-2 1-1-1-1-1v-1h-1l2-1 1-1-1-1v-1l-2-2-4-1 1 1v1l1 1-1-1h-1l-1-2h-1 1-1l-1-1-2-2-1-1h-1l-1-1-1-1h-1-1l-2 1v-1l-1 1-2 1h-1l1 1-1-1-2 1-2 1h-3l-2-1v-1h-1l-1-1h-2l-1-1v1l1 1v2l1 1c0-1 0 0 0 0h1v4l1 1-1-1v-1zm-21 94l-1-1 1 1zm-32 5zm86-93z"/><path fill="#132965" d="M435 403l-1-2-1-3a271 271 0 0 1-10-14l-1-5-1-2v-3l1-2 1-1h2l2-1h-1v-1l-1-1-2-1a10 10 0 0 0-2 0l-2-1-1-2v-1h1l-2-1-1-1h-1v-1l-1-1v-1l-1-1v-1-1-1h-1v-1-1l-1-1-1-1h-1v-1l-1-1 1-1-1-1-1-1-1-1h-1v0h-1l-1-1v-1h-1l-1-1h-1l-1-1v-1h-3l-1-1h-1-1l-1-1h-1l-3-1-2-1-1-1-1-1v1h-1v1h1-1v1a219 219 0 0 1-2 2v-1l1-1h1v-1-1l-1 1a377 377 0 0 0 1-1v-1l-1-1a654 654 0 0 0 0-2h-1 1v-1 0l-2-1-1-1-1-2-1-2-1-2v-1-1-1h-1v-1-2-1-1-1-2h-1v-1l-1-1c-1-1-2 2-2 2v-1h-1 1v-1h1l1-1-1-1v-1l-1-2-1-1v-2h-1l-1-1h-1 1l-1-1h1l2 1-2-2h-1l-1-1 2 1v-1h1v-1-1h-1v-1c0 1 0 1 0 0v-1l-2-3 1-3-1-1-1-1h1l-1-3v1l-1-1 2-1v-1-1-1-1-1-2h-1v-1-1s-1 0 0 0l-1-1v-1-2h-1l-1-1-1-1h-2l-1 1v-1l1-1-1-1h-1-1l-1-1v-1h-1v-1-1h-1l-1-1-1-2-1-1-1-1h-1-1l1-1 1 1v-1-1l-1-1-2 1v2l-1 1h-1v1h-1l-1 1v1l-1 1v1l-1 1v1h-1l1 1h-1-1l-1-1-1 1 1 1h-1l1 1 1 2 1 1v1l1 1v2l1 1v2h1l-1 2-1 1h-2l-1 1h-1l-1 1v2l-1 1v1l-1-1h-2-1l-1 2-2 1-2 2-1 2h-1l2 1h-1v2h-1-1v2h-1l-1 1-1 1-1 1-1 1h-1l-1 1-2 2h1-1l-1 1-1 1-1 1h-3l1 1-1 1v2h-1 1v1h2v-1-1 1l-1 1h-1l-1 1h-1v1h1l1-1v1h-1l-2 1h-1-1l-1-1-1-1-1 1h-1l-1 2v1h3l-1-1-1 2h-1l1 1-1 1v-1-1h-1-1v-1l-2 2v1l-1 3v-1l-1 2v3l-1 2h-1v1h-1l-1 2-1 3v3l-1 1v2l-1 3h-1v1l1 1h1l1 1v2l1 1 3 4 2 2v-1h-1v-1 1h1l1-1-1 1 1 1h-1l2-1c-1 1-1 2-2 1v4l2 3 1 3 2 1 1-1h1l-1-1 1-1h1v-1-2 1l1 1v1l-1 1v3h-1v4l1 1h1l1 1v0l1 1h-1v-1l2-1v-1l1-1 1-2v-1-1h1v-1-1-1-1h0v1h1v1a537 537 0 0 0-1 1l2 1v2h3l-1-1 1-1 1-1h1l1-1 2-1v-1h-1l1 1v1h-1v1h-1l-1 1h1a3 3 0 0 1 0 1l1 1 1 1c-1 0 0 0 0 0v2l-1 1-1 1-1 1v-1l-1 1v2h-1l1 1v1l1 1v-1h1v-1-1-1 1l1 1v2h-1-1v2h1l-1 1-2 1h-2l-1 1v1l1 1v2h1v0h1l-1 1v-1h-1v-1l-1-1v-2h-1-1v3a22 22 0 0 1 0 3l-1 1 1 1v2 2l3 1 1-1 1 1h3l-1-1h4l1-1 1 1-1-1-2 1h-1l-1 1a123 123 0 0 0 1 1l-1-1h-2v1h-1-1v1l-1 1-1 1-1 1a24 24 0 0 0-1 2l-2 3v3l1 1v2l1 1v1l1 1 1 3 1 2 2 2 2 1h2a1149 1149 0 0 0 2-1h2v-1h2l1-1h1-1l-1 1h-1l-1 1h-1v1h-1l1 1-1 1h-1-1l-1 1-2-1h-1l-1-1-1-2-1-1v-1-1l-1-1v-1-1h-1-1l-1 1-4 2v2h1l2 2 1 1h-1l1 1v1h1v1h-1v1l4 1 2 2v1l1 1-1 1-2 1h1v1l1 1 1 1 2-1-1 1v2h1v2c1 0 0 0 0 0v1h1v1l2 2h2 6v2h1l2 1v-2l1 1h1l1-1h1v-1h1l1-1v-1-1-1h-1l2-1 1-1h2l1-1 2-2 2-2v-2l1 1h2l2-1 1-1 1-1v-1-1-1-2-1-2-2h-1l1-1 1-1v-1l-1-2 1-1v-1-1l1-1v-1-1h1v-1h2l1 1h1v1h1-1l1 1h-1v1h1l1 1h1v3h1v1h1v1h1v2h1v1h4v1h1l1-1v-1h1v1h2l1-1 1 1 1-1a595 595 0 0 0 1 2h1l-1 1 1 1s0-1 0 0h3l1-1v-1h1l1-1-1-1 1-1v-1l1-1 1-1h1v-2l-1 1v-1-1l1 1h1v2l1-1v-1l1-1-1-1h-1 1l-1-1h1v1h1v-1l2-1 1 3h-1 4l2 1v1l1-1 1-1v-1-1h1v-1h3v1l1-1h1v4h2l1-1h3v-3h3v-1-1h-1-1v-1l1-1h4l1-2h3l1 1 1 1-1 1 1 1v4a7 7 0 0 0 1 2l2 1h1v-2-1l1-1v-1l1-1a5 5 0 0 1 0-1l-1-1-1-1-1-1h-1l-1-1-1-1-1-1-1-1-2-1v-1l-1-1-1-2-2 1h-1-1-4-1-2-1l-1-1h-1-1l-1 1h-1v-1l1-1 2-1h1l1 1h5l2 1h1l3-2h1l2 1 1 1v1h1l1 2 1 1 2 2h1l2-1h2l4 2v1l-1 2 2-2-1-2"/><path stroke="#FFF" d="M435 403l-1-2-1-3-7-9-1-2-2-3-1-5-1-2v-3l1-2 1-1h2l2-1h-1v-1l-1-1-2-1h-2l-2-1-1-2v-1h1l-2-1-1-1h-1v-1l-1-1v-1l-1-1v-1-1-1h-1v-1-1l-1-1-1-1h-1v-1l-1-1 1-1-1-1-1-1-1-1h-1v0h-1l-1-1v-1h-1l-1-1h-1l-1-1v-1h-3l-1-1h-1-1l-1-1h-1l-3-1-2-1-1-1-1-1v1h-1v1h1-1v1l-1 1-1 1v-1l1-1h1v-1-1l-1 1h-1l1-1h1v-1l-1-1-1-1 1-1h-1 1v-1 0l-2-1-1-1-1-2-1-2-1-2v-1-1-1h-1v-1-2-1-1-1-2h-1v-1c-1 0 0 0 0 0l-1-1c-1-1-1 1-2 2v-1h-1 1v-1h1l1-1s-1 0 0 0l-1-1v-1l-1-2-1-1v-2h-1l-1-1h-1 1l-1-1h1c0 1 0 0 0 0l2 1-2-2h-1l-1-1 2 1v-1h1v-1-1h-1v-1c0 1 0 1 0 0v-1l-2-3 1-3c1 0 0-2-1-1l-1-1h1-1 1l-1-3v1l-1-1 2-1v-1-1-1-1-1-2h-1v-2s-1 0 0 0l-1-1v-1-2h-1l-1-1-1-1h-2l-1 1v-1l1-1-1-1h-1-1l-1-1v-1h-1v-1-1h-1l-1-1-1-2-1-1-1-1h-1-1l1-1 1 1v-1-1l-1-1-2 1v2c-1 0-2 0-1 1h-1v1h-1l-1 1v1l-1 1v1l-1 1v1h-1l1 1h-2l-1-1-1 1 1 1h-1l1 1 1 2 1 1v1l1 1v2l1 1v2h1l-1 2-1 1h-2l-1 1h-1l-1 1v2c1 1 0 1-1 1v1l-1-1h-2-1l-1 2-2 1-2 2-1 2h-1l2 1h-1v2h-2v2h-1l-1 1-1 1-1 1-1 1h-1c-1 0 0 0 0 0l-1 1-2 2h1-1l-1 1-1 1-1 1h-3l1 1-1 1v2h-1 1v1h2v-1-1 1l-1 1h-1l-1 1h-1v1h1l1-1v1h-1l-2 1h-1-1l-1-1-1-1-1 1h-1l-1 2v1h3l-1-1-1 2h-1l1 1-1 1c1 0 1 0 0 0v-1s1 0 0 0v-1h-1-1v-1l-2 2v1l-1 3v-1l-1 2v3l-1 2h-1v1h-1l-1 2-1 3v3l-1 1v2s0 1 0 0v0l-1 3h-1v1l1 1h1l1 1v2l1 1 3 4 2 2v-1h-1v-1 1h1l1-1-1 1 1 1h-1l2-1c-1 1-1 2-2 1 1 0 0 0 0 0v4l2 3 1 3 2 1 1-1h1l-1-1 1-1h1v-1-2 1l1 1v1l-1 1v3h-1v4l1 1h1c0-1 0 0 0 0l1 1v0l1 1h-1v-1l2-1v-1l1-1 1-2v-1-1h1v-1-1-1-1h0v1h1v1c1 1 0 1-1 1l2 1v2h3l-1-1 1-1 1-1h1l1-1 2-1v-1h-1l1 1v1h-1v1h-1l-1 1h1v1l1 1 1 1c-1 0 0 0 0 0v2l-1 1-1 1-1 1v-1l-1 1v2h-1l1 1v1l1 1v-1s1 0 0 0h1v-1-1-1 1l1 1v2h-1-1v2h1l-1 1-2 1h-2l-1 1v1s1 0 0 0l1 1v2h1v0h1l-1 1v-1h-1v-1l-1-1v-2h-1-1v6l-1 1 1 1v2 2l3 1 1-1 1 1h3l-1-1h4l1-1 1 1-1-1-2 1h-1l-1 1a62 62 0 0 0 1 0v1l-1-1h-2v1h-1-1v1l-1 1-1 1-1 1-1 2-2 3v3l1 1v2l1 1v1l1 1 1 3 1 2 2 2 2 1h2l1 1 1-2h2v-1h2l1-1h1-1c-1 0 0 2-1 1h-1l-1 1h-1v1h-1l1 1-1 1h-1-1l-1 1-2-1h-1l-1-1-1-2-1-1v-1-1l-1-1v-1-1h-1-1l-1 1-4 2v2h1l2 2 1 1h-1l1 1v1h1v1h-1v1l4 1 2 2v1l1 1-1 1-2 1h1v1l1 1 1 1 2-1-1 1v2h1v2c1 0 0 0 0 0v1h1v1c1 0 0 2 2 2h2 6v2h1c1-1 1 1 2 1v-2l1 1h1l1-1h1v-1h1l1-1v-1-1-1h-1l2-1c1 1 1-1 1-1h2l1-1 2-2 2-2v-2l1 1h2l2-1 1-1 1-1v-1-1-1-2-1-2-2h-1l1-1 1-1v-1l-1-2 1-1v-1-1l1-1v-1-1h1v-1h1c-1 0-1 0 0 0h1l1 1h1v1h1-1l1 1h-1v1h1l1 1h1v3h1v1h1v1h1v2h1v1h4v1h1l1-1v-1h1v1h2l1-1 1 1 1-1v2h2l-1 1 1 1s0-1 0 0h3l1-1v-1h1l1-1-1-1 1-1v-1l1-1 1-1h1v-2l-1 1v-1-1l1 1h1v2l1-1v-1l1-1-1-1h-1 1l-1-1h1v1h1v-1l2-1 1 3h-1 1s0 1 0 0h3l2 1v1l1-1 1-1v-1-1h1v-1h3v1l1-1h1v2s-1 0 0 0v2h2l1-1h3v-3h3v-1-1h-2v-1l1-1h4l1-2h3l1 1 1 1s0-1 0 0l-1 1 1 1v4l1 1v1l2 1h1v-2-1l1-1v-1l1-1v-1l-1-1-1-1-1-1h-1l-1-1-1-1-1-1c-1 0-2 0-1-1-1 0-1-2-2-1v-1l-1-1-1-2-2 1h-1-5-1-2-1l-1-1h-2l-1 1h-1v-1l1-1 2-1h1l1 1h5l2 1h1l3-2h1l2 1 1 1v1h1l1 2 1 1 2 2h1l2-1h2l4 2v1l-1 2 2-2-1-2z"/><path fill="#132965" d="M294 13v1h1v1h1v1h1v-1h1v-1-1-1 0l-1-1h1l1 1h1l-1-1v-1s0-1 0 0l-1-1V8h1c0 1 0 0 0 0h1v3l1 1v-1 1h-1v1h-1v1l1 1v1l-1 1 1 1v1h2c0-1 0 0 0 0h1l1-1h1l1-1s-1-1 0 0h2l1-1 1-1v3l1 1v1c1 0 0 0 0 0l1 1v-1l1 1-1 1v1c0 1 0 0 0 0h-1v1h2l-1 1-1 1-1-1h-1s0 1 0 0h-1l-1 1h3l-1 2v-1h-1v1h1l1 1v2h-1l1 1v1h2v-1-1l-1-1 1-1v-1l1-1v-1c0 1 1 0 0 0v-1-1h1v-1h-1l1-1h-1-1l1-1h1-1v-1h2v2h1v-1-1h1v-1h2v-1h2v-2-2l-1 1h-2v1c-1 0-2 0-1 1 0-1 0-1 0 0v1h1l-1 1v-1h-1v-1-1h-1v-1 1l1-1h1c0-1 0 0 0 0v-2l-2 1v-1l-1 1v1h-1l-1-1v-1h1v-1 1-1h-1l1-1-1 1v-1l-1 2h-1v-1h-1l-1-1h-1v2l-1-1h-1-1v-1h1l1-1 1-1V8l1 1 1-1V7l-1-1-1-1-1-1h1V3h-1l-1-1h-1-1V1h-1l-1-1h-1-1l-1 1h-2s0 1 0 0l-1 2v5l-1 2v3"/><path fill="#132965" d="M291 22h2l1 2v1l1 1h1v3h3v1h1l-1-1h3l2-1-1 1v-2l-1 1h-1-1l-2 1 1-1h-1l1-1h2l1-1h-1v-1l-1-1h1v-1h-1v-1-1h-1v-1h-1l-2-1v-1c-1 0 0 0 0 0l-1-1-1 1h-1l-1 1v2s-1 0 0 0l-1 1M313 9v1h3l1-1-1-1V7h1V5l-1 1h-1v1h-1c-1 1-1 0-1-1v1l-1 1v2l1-1M305 25l1-1s1 0 0 0h-1-1l-1 1v1l1 1v-1l1 1h1l-1-1 1-1h-2 1M297 17h-1l1 1h1l-1-1M305 37l-1-1v1c-1 0 0 0 0 0l-1 1h2v-1"/><path fill="#132965" d="M302 25l1-1h-1v-1 2M307 32v-1l-1 1v1l1-1M303 22l-1-1v1h1M310 23h-1l1 1v-1M313 11v-1 1M305 27l-1 1c1 0 1 0 0 0l1-1M306 12v-1 1M305 12h0M306 24v-1 1M321 20l1 1v-1h-1M327 10l-1-1v1h1M124 67v1l1-1-1 1v-1M168 261l-1-1v1h1M159 199l-1-1v-1h-1v1h-1-1l-1 1h-1l-1 1v-1s-1 0 0 0h-1-1-1v1l-1 1h1l-1 1h1c-1 0 0 0 0 0v2h1v1h2v-1-1l1-1h1c0-1 0 0 0 0h1v-1h1v-1h-1l1-1h2c-1 0 0 0 0 0h1M167 193v-2l1 1v-1l1-1v-1h1v-1-1h-1-1v1h-1l-1 1-1 1h-1 1l-1 1h-1v1h-1v2h-1l-1 1h-1 1v1h1v-1l1 1v-1 0h1v-1 1l1-1v1l1-1v0h1v-1h1M159 196h-1 1M157 200c0-1 0 0 0 0h0M163 196h-1 1M157 197v0M183 174v-1 1M167 138c0-1 0-1 0 0v-1 1M163 160l1 1h1l1-1h2v-1h-2l-2 1h-1M167 139h1v0c0-1 0 0 0 0h-1M162 126v-1 1M168 138v-1 1M167 121h1-1M164 130h-1l1 1v-1M162 131h0M167 120v0M166 120h0M159 89v0M142 83l1 1v-1h-1c1 0 1 0 0 0M83 103v1h1l1-1c0 1 0 1 0 0v-1l-1 1c0-1 0-1 0 0v-1l-1 1v-1 1M82 103v-1h-1 1v1M88 100v-2l-1 1 1 1M85 105v-1l-1 1h1M88 98h-1 1M125 168h2v-1l1 1c0-1 0-1 0 0h2v-1h1c-1 0-1 0 0 0v-1-1l1 1s0-1 0 0v-1l1 1v-1h-1s0-1 0 0v-1h-1-1a325 325 0 0 1 1-1l1 1-1-1h-1l1-1v-1l-1-1h-1l1 1s-1 0 0 0v1l-2 1h-2l1 1v2h-1l-1 1v1M125 169h-1 2v1h-1v1h1l2-1h-2l1-1h-1v-1h-1v1M121 179l2-1c-1 0 0 0 0 0v-1h-1-1v1h1-1v1M128 172l-1-1-1 1 1 1h1v-1M133 160h-1v1l1-1M125 175h1l-1-1-1 1h1M122 180s0 1 0 0h-1 1M130 170v0M130 159c0 1 0 0 0 0M132 164v-1 1M127 168h-1 1M126 119l1 1v1h1v-1 2h2l1-1-1-1 1 1 1 1 1 1h1v1l1 1v1l-1-1s1 0 0 0l2 1-1-1 1 1h1c-1 0 0 0 0 0h5v-1-1c1 0 0 0 0 0v-1h-2-1-3-1 1v-1c0 1 0 1 0 0l1 1-1-1h2-1v-1l1 1s-1 0 0 0v1l-1-1v1h1l1-1v0l1 1v-1s1 1 0 0h1l1 1 1-1v-1-1h0c1 0 0 0 0 0h-1-1 1-1 1-1 1l-1-1h1v-1h-2 1-1v-1h-1l1-1h1c0 1 0 1 0 0v1h-1s1 0 0 0l1 1h1v-1h-1 1l-1 1v-1h1v0h0l1 1 1 1v-1l1-1v-1h-1v-1h-1l1 1h-1-1v-1h1c0-1-2 0-1 1l-1-1v1h-1l1-1h-1 1v-1 1h1l-1-1c1 0 0 0 0 0v-1h-1v-1l-1 1-1 1-1 1h1a2277 2277 0 0 0-1 1l-1-1 1 1h-1l-1-1c1 0 0 0 0 0v-1s0 1 0 0v-1c1-1 0-1 0 0h-1 1-1v1c0-1 0 0 0 0l-2 1 1 1c-1 0 0 0 0 0l-1 1-1-1c1 0 0 0 0 0v-1 1l-1-1h-1c1 0 0 0 0 0h-1v2h-1v2h-1s0-1 0 0c-1 0 0 0 0 0"/><path fill="#132965" d="M131 123l1 1 1 1 1 2v-1l-1-1h1l-1-1-1-1v0h-1M123 126v-1l1-1-1 1v1M130 122l1 1h1-1l-1-1M120 125h2v-1h-1l-1 1M133 123h-1 1M132 122h-1 1M131 122v0M130 115h2v-1 1l1-1h-1-1c1 1-1 1-1 1M136 157v1l-1-1v2l1 1s1 0 0 0h1l-1-1h1v-1-1h-1M134 164v-1h-1 1v1M135 163v-1l-1 1h1M133 165v-1 1M134 164l-1 1h1v-1M135 154h1l-1-1v1M135 153v0M137 154c0-1 0-1 0 0M134 154l1-1h-1v1M134 128v-1l-1 1v1h-1l-1 1h1-1v1l1 2h2-1 1v1h3v0h2l1-1h-1c1 0 0 0 0 0h1v-1h-1c1 0 0 0 0 0h-1-1c0-1 0 0 0 0v-1c1 0 1 0 0 0h1v-1l1 1h-1v-1 0h2l-1-1h-1l-1 1v-1 0h-1v-1h-2s1 0 0 0h1-1"/><path fill="#132965" d="M140 141l-1 1v-1-1h-1s-1 0 0 0h-1v-1l1 1v-1h1v-1h-1v0l-1 1v-1h1l-1-1h-1v-1h0v-1h-1-1 1v-1h-1l-1 1s0-1 0 0v-2 1l-1 1v-1s0 1 0 0l-1 1v2l1 2v3h-1v1l-1 1 1 2h-1v1c0-1 0 0 0 0l1 1v5l1 1-1 1h1v1l1 1h2v-1 1l1-1h-1 1l1 1h2v-1-1h-1s0-1 0 0v-1h-1-2-1v-1s1 0 0 0h1l-1-1 1 1h1l-1-1 1 1h1l1-1v-1l-1-1v-1-1h-1s-1 0 0 0h-1v-1l-1 1v-1l-1-1a310 310 0 0 0 1 1h3c0 1 0 1 0 0l1-1v-1-1l1-1c0 1 0 0 0 0h1v-1-1"/><path fill="#132965" d="M137 140l-1-1h1v1M137 128h1s-1 0 0 0c0 1 0 0 0 0l1 1h1-1 1v-1h-1v-1h-1-1v1M141 128v-1h-1l1 1-1-1v2l1-1s1 0 0 0v-1 1M140 135v-1h-1v1h-1 2-1 1M138 135v-1l-1 1h1-1 1M137 129v-1h-1l1 1M146 116v-1h-1l1 1M142 127h-1 1M137 150h0M143 119v0M138 127l-1-1 1 1M136 127v1l1-1h-1M142 118v0M136 126h1v1c0-1 0-1 0 0l-1-1M139 130h-1 1M139 139v-1 1M134 128v-1 1M142 126v0M137 137c1 0 0 0 0 0M138 135l1 1-1-1M138 130v-1 1M134 125v-1 1M133 133h0M141 126v0M139 129h1-1M141 129v-1 1M140 133h-1 1M144 97l1 1c-1 0-1 0 0 0 0 1 0 1 0 0h1v-1l1 1c1 1 1-1 1-1v-1-1h-1l-1 1v1h-1-1M139 110v2h1v-1 1h1v-1-1 1l1-1v-1h-2l-1 1M142 89l1-1v1h1v-1l-1-1v-1l-2 1 1 2M138 107h2l-1-1v-1h-1v1h-1l1 1M160 99h-1 1v1c1 0 0 0 0 0h1s0 1 0 0v1l1-1v-1h-1l-1-1v1c0-1 0 0 0 0M136 111l1 1-1-1h1l-1-1v1M145 107l-1-1v1l1 1v-1M145 109l-1-1v1h1M136 115v-1l-1 1h1M155 104v-1 1M155 104h1-1M144 115v0M158 98v0M149 94c0-1 0 0 0 0M137 113h0M138 104h-1v1l1-1M147 112h-1 1M144 114h-1c1 0 1 0 0 0h1M148 111h-1 1M159 99c0 1 0 1 0 0M136 90v0M141 113v-1 1M149 93h-1 1M161 100h-1 1M147 113v-1 1M152 95v0M149 109h0M146 106l-1 1h1v-1zM157 103h-1v1l1-1M152 70v1h1v2l1 1 1-1h1v1l1-1-1-1h-1 1-1v-1 1s0-1 0 0l-1-1v-1-1h-1-1 0v1M151 72l-1-1 1 1M152 74l1-1h-1v-1 2M157 74v-1 1M151 72v-1 1M158 75h1-1M153 76l-1-1 1 1M152 69h-1 1M152 69h-1 1M153 68v0M159 75v0"/><path fill="#132965" d="M152 72l1 1v-1h-1M187 260v-1l-1-1 1-1-1-1v-2-1h-1l-1-3v-2-1l-1-1v-1-2-1h-2-1l-1 1c0 1 0 0 0 0v1l-1 1h-1l-2 1 1 1-1 1v2l-1-1v-2l1-2-1 1h-1v1h-1l-1 1v-1l-1 1v1l-1 1v1l-1 1 1 1h1l-1 1v1l-1 1v1 1l-1 1v1l1 1 1-1h1l3-4v-1l1-1v-1h4v1h-1l-1 1h-1v1l-1 1v1h2l1 1v3h-1l-1 1v3l-1 1h4l1-1v-1-1h1s0-1 0 0h1-1 2l1-1 2-1v1h-1 1v-1s0-1 0 0v-1 1h1v-1-1 1l1-1M200 257h-1a218 218 0 0 1-1 0h1s0 2-1 1v1l-1 1v1h0l1 1v0h1v-1-1-1-1l1-1M198 263v0"/><path fill="#132965" d="M182 264v1l1-1h-1M186 262s1 0 0 0M198 262v1l1-1h-1M201 228l-1-1h-2v1l-1 1h-1v1h-1v1h-1l-1 1-2 2-1 1-1 1v1l-1 2h1v1h2v-1h2l1-1-1 1v1l-1-1-1 1h-1l-1 1h-1-1-1l-1 2v1l-1 1v3l1 1v2h1l1 1h2l1-1v-1-1-2h2v-1-1h1v-1l1-3 1-2 1-1 1-2v-1l1-1 1-2 1-2v-1h1v-1M201 225v-1-1h-1-1v1 2h1l1-1M177 237h1l1-1h1l-1-1 2-1h-1l1-1h-1l1-1c-1 0 0 0 0 0l1-1v-1l1-2h-1l-1 1c0-1 0 0 0 0l-1 1h-1c1 0 0 0 0 0l-1 1v1l-1 1h0v2l1-1v1h-1 2c-1 0 0 0 0 0v-1 1h-1-1v1h1-1 1l-1 1M174 245l1-1-1 1M203 227v-1 1M204 236v0M202 236v-1 1M204 228v0M204 254s1 0 0 0M203 229h1-1M169 203v0M192 173v0M179 191v2s0 1 0 0v0h-2c0 1 0 0 0 0h-1-1v2h1v2h-2v1l1 1h4l1 1v-1 1h1v1h1v1h-1 1-1 2v1l1-1h3l1-1v2l-2 1-1 1h-1-1l-1 1v1l-1 1h-1v1 2h3l1-1h1c0-1 1 0 0 0l1-1h2v1l-1 1h-2c1 1-1 0-1 1h-1l-1 1h-2 0l-1-1h-1v2h1-2-1 1v-1s0-1 0 0h-1v-1h-2l-1 2v1l1 1-1-1v1h-1 1c-1 0-1 0 0 0 0 1 0 0 0 0v1l1-1v1h1v1h1v-1h1c0 1 0 1 0 0v1h1v-1h1v-1h2v0h1v0c0 1 0 1 0 0h2l1-1 1 1 2-1v-1h3l1-2h1s0-1 0 0h1v1h-1l-1 1 2 1 1-1h1l1-1 1-1h1l1-1v-1-1l-2 1-2 1 1-1 1-1h1v-1l-1-1 1 1v-1h1v1h-1v1h2v-1l1-1h-1v-1 0h1v-2 1l-1-1-1-1-1-1h-1l-1-1v-1h-1-1s0 1 0 0l-1-1h-2l-1 1-1-1h-1v-1-1-1-1h-1l-1-2h-1l-1-1 1-1h-1l-1-1h-1v-1l-1 1h-1-1v2l-1-1M201 205v0M180 216"/><path fill="#132965" d="M182 202h-1-1v-1h-2-1v0l-1 1v-1 2l1-1v1h3l-1 1 1-1v1a72 72 0 0 0 1-1c0 1 0 0 0 0v1l1-1v-1M204 204l2-1 1-1 1-1 1-1 1-1 1-3v1h-1-1v1l-1 1-1 1-2 1-1 1 1-1v2l-1 1M203 219h1v-1l-1 1s0-2-1-1v3s-1 0 0 0v2l1 1v-2-1-2"/><path fill="#132965" d="M203 214l-1 1v1h1v2l1-1v-1-1h1v-2a12516 12516 0 0 1-1 1v0h-1M173 212h-1l-1 1h-1 0l1 1h-1v1h1l1-1v-1l1-1M204 223l1-1-1-1-1 1h1v1M200 221v1l1 1-1-1v-2 1M193 189h-1v1h1v-1M198 220v-1l-1 1h1M185 203h-1v1l1-1M177 204l1 1-1-1M182 205v0M171 202v-1 1M196 221l-1 1 1-1M199 221l1-1-1 1M201 214v1l1-1h-1M172 200v0M178 204h0M174 206v-1 1M174 217v0M197 220h-1 1M202 220h-1 1M192 188v0M170 217v-1 0h-1l1 1M205 213h-1 1M173 215h-1l1 1v-1M203 224c-1 0-1 0 0 0M200 219h1-1M173 212v-1 1M182 204l1 1v-1h-1M204 209v0M173 200v-1 1M169 212h1-1M173 200v-1 1zM191 198h0M195 215zM169 160h-1l-1 1h2v-1M178 163l-1-2h-1v-1h-1-1l-2 1-1 1-1 1v1c-1 0 0 0 0 0l1 1 1 1h1v1l1 1 1 1h1l1-1v-1l1-1v-1-1l-1-1h1M183 169l-1-1-1 1 1 1h-1l-1 1v2h1l2 1v-1-1-1-2M180 154v-1h1l-1-1h-1v1h-1v1l1 1 1-1M193 180s0-1 0 0h1l1-1h0l-1-1-1 1v-1 2M179 176h-1l-1-1v2h2v-1 0M193 170h-1 1M191 171c0 1 0 0 0 0M192 170h-1 1M170 186v0M203 154l1-1-1 1M192 171v-1 1M196 180c-1 0-1 0 0 0M193 178v-1 1M192 172v-1l-1 1h1M200 187h1-1M197 154c0-1 0 0 0 0M183 187h0"/><path fill="#132965" d="M182 134h-1l-1 1v-1l1-1c0 1 0 0 0 0l1-1v-3-1-1-1-2-2-2c0 1 0 0 0 0l-1-1-1-2h-1l-1-1v-1l-1-2h-1v-1-1h-1v1l-1-1v3l-2 1v1h-1l1 2v3h1v-1h1l-1 2h-1v1l1 1v-1l-1 1h1v2l3 2h-1v0h-1v-1h-1v-1l-1-1v1l-1 1-1 1 1 1-1-1v-1l1-1c-1-1-1 1-2 1 0 0 1 0 0 0v-1-1h-1v-1l-2-1v0l-1-1v-1l-1-1v-1h-2l1 1-1 1v2l1 1h1v1l1 1v1h-1l-1-1v1h-1l1 1v2h1v1l1 1v1l-1-1v1l-1-2c0 1 0 0 0 0v0h-1v-1h-1v-1-1h-1v-1-1h-1l-1 1v3l1 1h-1v-1h-1v1h-1v2l1-1 1 1 1 2h-1l1 1 1 1h1-1l2 1h1l1 1h1v-1-1-2h1c1 0 0 0 0 0l1-1v2h1v-2 1c1 0 0 0 0 0l1 1v1h1l-1 1h1l-1 1v1l1-1c0-1 0-1 0 0l1-1 1-1v2l2 1v1l1 1h-1l-1-2h-1l-1-1v1h-1l-1 1v2c1 0 0 0 0 0l1 1 1 2 1 1h1l1-1v1h-1l-1 1 1 1v1h1l2-1v2l-1 1h1l2-1h3v-2l1 1 1 1v-1l1 1v3l1 1v-1l1-1v-1-1l1-2v-2 2h1v2l1 1 2-1v1l1-1h1l2-1-1 1-1 1h-1l-1 1v-1l-1 1v1h-1l-1 2h0v3h-1v1h-1v1h1s-1 1 0 0v2l1-1v1l1-1h1v-1h1v-1h1v-1l1-1v-1h1c0-2 1 0 1-1l1-1v-1h1v-1l-1 1v-1-1-1l1 1 1-1 2-1 1-1v-1h1v-2-1h-1-1-1l1-1h-3l-2 1-1 1v-1l-1 1h-1v-1h-1l-2-1h-1l-1-1-1 1s0-1 0 0h-1l1-2c1 0 0 0 0 0v-1h-1-3v1l2-2c0 1 0 0 0 0v-1-1h-1l-1-1 1-2-1-1M172 138v-1 1"/><path fill="#132965" d="M184 138h1v1l1 1h1l1-2v-1l-1-1v-2-1-2l1-1 1-1v-1-1l-1-1v2h-1v1l1 1h-1-1-1v7l-1 1M190 140h-2-1v2l1 1 1 1h1l1-1v-2l-1-1M188 124h1l-1 1h0l1 1v-1-1l1-1v-1-1h-1c0 1 0 1 0 0v1h-1 1v1l-1 1M194 139h1l-1-1v1M193 144h1v-1l-1 1M187 128v-1 1M188 126h-1 1M194 138v0M193 141h-1 1M180 116s0 1 0 0M194 137h1v-1l-1 1M198 143h0M199 143l-1 1 1-1M188 125v-1 1M202 136v0M219 93l1 1v-1h-1M202 101l1 1 1 1-1-2h-1M170 89h0M196 110v-1h-1l1 1M173 97h0M174 98v-1 1M200 111l-1 1 1-1M170 108l1 1-1-1M174 97h1v-1l-1 1M179 114v0M171 80h0M173 82v-1h-1l1 1M169 82v-1 1M200 99h-1 1M173 80h-1 1M205 288h-1l1 1v-1M225 270v1l1 1v-1l-1-1M224 291v0M206 279l1-1h-1v1M213 262v1l-1 1 1 3 1 1 1 2-1 1v2h1v1l1 2 2 1 1 1v-1l2 1 1-1h2l1-1v-1-2-1l-2-1 1-1 1-1-1-1h-1l-1-1 1-1v-3l-1-1v-1-1l-1-1-3-2h-1l-1 1h1-1l-1 1-1 1-1 2M224 278h-1 1M225 246l-1-1-2-2h-1s0-1 0 0l-1 1h-1l1 1v1l1 1 1 1h1v2 3h2v1l1 1v1l1 1h1v-1 1l-1-2v-1h1v-2l-1-1v-2h-1v-1l-1-1v-1M232 252l-1 1v1l-1 1 1 1v-1l1 1v-2-2M230 257v1l1-2-1 1M222 251v0M206 227l1-2-1 1v1M205 228l1-1-1 1M206 225l1-1v1h-1M206 226h-1l1-1v1M206 230h0M205 230v0M208 207h0v-1 1h-1l-1 1c-1 0-1 0 0 0l-1 1v1h1l1-1v-1l1-1M213 195v-1l-1 1h1M215 191h-1 1M208 202h-1 1M210 197v-1 1M212 196h-1 1M211 196v0M207 203h1-1M211 196l-1 1 1-1M205 145v-1 1M212 88v-1 1h-1v1h1v-1M209 98h1v-1h-1v1M211 86v-1h-1v1h1M207 93l1-1h-1v1M210 88v1h1l-1-1M214 91l1-1h-1v-1 2M210 86v-1 1M211 88v0M210 87h-1 1M217 81h-1 1M210 92h1-1M217 81v0M210 87v0M211 88v-1 1M221 61v-1 0h-1l1 1M224 53h-1 1M240 53v-1 1M241 46h0c0-1 0 0 0 0M222 68h1l-1-1v1M215 78h1-1M225 59h-1 1M222 66v-1 1M224 58c0 1 0 1 0 0M221 66h1-1M222 65h-1 1M217 70h-1 1M222 59c0 1 0 1 0 0M226 59v1l1-1h-1M222 65v0M219 69h-1 1M224 58h-1 1M260 321h-1 1M260 322v-1 1M259 321v-1 1M255 47h-1 1v-1h-1l1 1M253 48v0M257 47h-1l1 1v-1M250 51h0M243 47h-1 1M253 47v0M304 235h-1 1M297 238c0-1 0 0 0 0M317 232h0M323 231v0M326 224h1l-1-1v1M316 205h-1 1M205 222h0M235 262h-1l1 1v-1M223 291v-1 1M158 102c0 1 0 1 0 0v-1l-1-1-1-1-1-1h1v-1h2v1h3v-1l-1-1h-1 1v-1l1 1v-1-1h-1v-1h-2 1v-1-1l-1-1v-1h-4v-1c-1 0-1 0 0 0l-1-1v-1l-1-1-2 1h-1-1v1h-1l-1 1h-1-1v1l-1 1h1c0-1 0 0 0 0l1 1h-1l1 1v-1l1 1 1 1h1v-1 1h3v1l1-1-1 1h2c-1 0-1 0 0 0 0 1 0 0 0 0v1l1-1v1h-1l2 2h-1-1l-1-1h-2l-1 1 1 1 2 1-1 1-1-1c0 1 0 0 0 0h-2v1l-1 1v1h-1v1l-1 1-1-1v-1h-1v-1 1h-1 1v1l1 1 1 1v1h1l1 1v1h1v1h1v0h1v-1-1 1l1-1v1l1-1s-1 0 0 0l-1-1c1 0 1 0 0 0a115 115 0 0 1 1 0h1l-1-1h2l-1-1c1 1 1 0 0 0v-1 1l1-1v-1l1 1v1l1-1v-1h1v1l1-1"/><path fill="#132965" d="M151 75zm5-7h0zm26 1l-1 1h-1l-1 1v1h-1l-1 1h-1-1l-1-1v0h-1v-1l1 1 1-1v-1c0-2 1-1 1-1l1-1v-1h1v-1-1h1l1-1v-1h1l-1-1-1-1 1-1v-1-1l1-1v-1l-1-1v-1l1-1h-1v-1h-1v-1l-1-1h-1v1l-1 1-1 1h-1v1h-1v1h-1l-1 1-1 1-1 1-1 1h-1v1l-1 1-1 1c0-1 0-1 0 0h-1l-1 1h-1v-1h-1v1l-1 1c0-1 0-1 0 0h-1v1h-1v1h-1-1v0l-1 1v1h1c0 1 0 0 0 0h-1v1h1v2h1v2h1l-1 1h1v1l1-1v2l-1-1s-1 0 0 0h-1v-1h-1-2l-1 1v-1 2h-1v1h1v2l-1-2v-1-1h-1l-1-1h1v-1l-1-1-1-1v1h-1v-1h-2v2l-1 1h1v1c1 0 0 0 0 0h-1c1 0 1 0 0 0h-1v2l-1 1v1h-1v1h1v2l1 1 1 1h-1 1v1l1-1v-1h1v1h-1l-1 1h1v1h-1 4l1-1h2l1 1v1l1 1c-1 0-1 0 0 0v1h4l1-1 1-1 1-1v-1h-1 4l-1 1-1-1-1 1-1 1v1l-1 1 1 1-1 1 1 1 1 2 1 1h2-1v-1l-1-1v-1l1 1 1 1v1l1 1v-1 0l1 1v-1-1-1-1 2h1v1l1-1h1v-1a643 643 0 0 0 1-1v-1-1l-1-1h-1-1-1-1 2v-1l1 1v-1h2v0h1l1 1 1-1v-1l1-1h-3 2v-1-1-1-1l-1 1 1-1h-1v-1h1-2-1 1l-1 1a97 97 0 0 0 1 0h-1-1-1l-1 1-1-1c0 1 0 0 0 0l-1 1h-1-1l2-1h2l1-1v1c0-1 0 0 0 0v-1h2v-1h1l-1-1v1l-1-1-1-1 1 1h4l-1-1-1 1 1-1h1v-2l-1-1h1v-1 1l-1-1v-1 0l1 1h1c-1 0 0 0 0 0 0 1 0 1 0 0l1 1v-1 0h2v1h1v1l1-1h1v-1l1-1h1l-1-1h0l1-1v-1-1zm-31 5h-1l1 1v-1zM217 185h2l-1-1 1-1v-1l2-2 1-1v-1l1-1v-1h-1-4-1l-1-1h-1l-1-1h-1-2l-1 1v1h-1l-1 1h-1v1l-1 1-1 1h-1l-1 1v1h-1l-1 1h-1-1v-1h-1v1h-1l-1-1h-1v-1l1-1h-1v1l-1-1 1 1-1-1v1l-1-1v1h-1l1 1h1v1h-1v-1h-2v-1h-1l-1-1v1h-1-1v1s0-1 0 0l-1-1v0l-1 1h-1-1-1-1-1l1 1h-1 0l1 1h-1-1 1-1v2h1v1h2v1c1 0 1-2 2-1h-1 3l1 1h1l1-1v1c0 1 0 0 0 0l1-1v0l1 1h4-1 1l1-1 1-1v-1 1h3l1 1 1 1v-1 1l1-1h4l-2 1h-1-1-2-1v-1l-1-1h-1l-1 1-2 1v1h-1-1v1l1 1 1 1-1-1h-1-1v-1-1l-1-1v1h-1 1-1 2l-1 1h-1v-1 1h-2v2l1 2 1 1v1l1 1h2v0l1 1h2v1l1-1 1-1v-1 1l-1 1 1 2 1-1v1h1l1 1 2-1 1-1 1-1h1v-1-1l1-1 1-1v-1l-1-1 2 1v-1l1-1h1l1-1h1v-1l1-1 1-1 1-1v-1l1 1v-1M276 230v-1 1M275 229s1 0 0 0M207 167h-2-2-1-5l-1-1v1l-1 1h11l1-1c1 0 0 0 0 0M212 156"/><path fill="#132965" d="M207 167h-2-2-1-5l-1-1v1l-1 1h11l1-1c1 0 0 0 0 0M295 212v0"/><path fill="#132965" d="M295 212v0m-25-18h-1l-2 1-1 2-1 1-1 2h-1l-1 1h-1-1l-1 1h-1l1-1 1-1h1l1-1 3-2 1-2 1-1h1l3-1-1 1m-13-7h-1l-1-1v1h-1l-1-1-1 1 1-1h2l2-1h5l-1 1h-1-2l-1 1m-6-4v-1h-1l1-1v-2h1l1-2 1-2v-1l1-1v-1h1v-1l1-1 2-2-1 2-2 2-1 2a18 18 0 0 1-1 3l-1 1-1 2-1 1h1v2h-1m0 37l-1-1h-1-1-1l-2-1v-1-1h-1 1l1 1 1 1h3l1 1v1s1 0 0 0m-4 12v1h-2v3h-1l-1-1v-1-1-1-1-1-1l-1-2v-1-1l-1-1v-3-1l-1-1v-1l1-1h-1l1-1h-1v-2l1 1v3l1 2v1l-1 1 1 1 1 2v1l1 1v1h1v1h1v1l1 1s0-1 0 0l1 1h-1m-8-156l-1-1h1v-1h1v1l1 1 1 1 2 1 2 1 1 1 1 1 1 1v-1l1 2 1 2h1v1l2 1h-1v1l-1-1v-1l-1-1-1-1-1-1-1-1-2-1-1-1h-1v-1l-1-1h-2l-2-2m13-8l1-1 2-1 2-1 1 1h-2l-1 1a23 23 0 0 1-3 1l-1-1 1 1m1-12l1-1v5h1l-1 1h-1 1v-1-1-1l-1-1v-1m-2 82l1-1 1-2 1-2 1-1 1-1-1 1v2h-1l1 1h-1v2l-1 1-1 1-1 2-1 1-1 1v1h-1v1l-2 2-2 2-1 2v1l-1 1h-1v0l1-1h-1l1-1 1-1 1-1v-1l1-1 2-3 1-1 1-1 1-1v-1-1l-1-1h2m-16 25l-1 1-1 1-1 2-1 1-1 1-1 1v-1-1l1-1 1-1 1-1 1-1 1-1 1-1v-1 2m-6-86h-1-1l-1-1h-1-1l1-1h2v1h2v1l1 1h-1v-1m-3 90l-1-1h-4a38 38 0 0 0-3 0h-1a27 27 0 0 0-1 0v-1h8l1 1 2 1h-1m-11-7h-1l-1 1h-2 1l1-1h1v-1h2l-1-1h1l1-1v-1 2h1l1 1h1l1-1v1h-1v1h-1l-2-1-1 1h-1m-3-44v-1h-1l-1-1h-1 0v-1l-1 1h-1l-1-1v-1l-1-1v-1l-1-1h1l2 2 1 1h1l2 2 1 1 2 1v1h1v1h-1v-1h-1l-1-1m-4-11c1 0 1 0 0 0v1h1v-1s1 0 0 0v1l1 1v1a14 14 0 0 0 1 1l1 1h1-1-1-1v-1h-1 1-1v-1-1h-1v-1h-1v-1h1m20 103l-1 1h1-1v1l-1 1h-1v1h-1-1l-1 1-1 1-1 1v2l-1 1-1 1v2l-1 1h-1l-1 1-2 1v1l-1-1h1l1-1 1-1 1-1 1-1v-1l1-1v-1h1v-1-1-1h1v-1h1v-1h2a13 13 0 0 1 2-2l-1-1v-1l1 1h2v-1h1v-1 1m-21-41l-1 1h-1-1-2-1-1-1-1-1-1-1l1-1v-1l1 1h7a110 110 0 0 0 2 0h1m55-101v-1-1 1h1v2h1v-1h1v1l1 1h-2v-1h-1l-1 1v-1-1m96 61v-1 0h-1v-1-1-2l-1-2v-1l-1-1-2-2v-1l-1-1v-1l-1 1-1-1-1-1v0h-1-1-1-1-1v1h-1l-1 1h-1l-1-1h-1-1-1v-1l-1 1v1h-2-2-1-2-1v0h-1l-1-1h-1-1-1-1c1 0 0 0 0 0h-1-1-1l-1-1h-3l-1-1v1h-1-1l-1 1h-1 1l-2 1-1 1-2-1h-1-1l-1-1h-2l-3-3v0h-1-1-2l-2 1h-1l-2 1v2l-3 1h-2l1 1v1h-1-1v-1a242 242 0 0 1 1 0v-1h-4l-1 1 1-1 1 1a3706 3706 0 0 1-3 1l-3 2 2-1v1l-2 1h-1-3l-3-1 2 1h-2-2l-1 1 2 1-1 1-2 3v-1l-1 1-1 2h-1l-1-1h-1v0l-1 1h-1-1-2-1l-1-1v1h-1-1 1v-1h1l2-1 1 1h4l1-1 1-2h-1l-1-1v1l-1-1h3l1-1 1-1h2l-1-1v-1l3-3v-1l1-1 1-1h-2v1h-1l-1 1h-1-2v-1h-2-1l-1 1-2 2-2 2-1 1-1 1h-1 1v-1-1l1-1 1-1 1-1v-1h2v-1-1h4l2-1v0a379 379 0 0 1 1-1l1-1h2v-1h1v2l-1 1h1l1 1 2-2a26 26 0 0 0 1-3l1-1 1-1 2-3 1-2v-1l1-1-2 1v1l-1 1-2 1h-1-1 2l-1-1-1-1h0l-1-1h1l-1 1h1-1l-1 1-2 1h-1l-2-1h1-1l-1-1 1 1h-1-1v-1l-1-1h-3v1l-1-1h-1v-1h-1-1v-1l1-1v1l1 1h1l1 1v-1h3l1 1h1v-1 1h0l1 1 1-1 2-1 1 1v-1-2h1v-2h-2l-1-1-1-1h1a336 336 0 0 0 2 1v-1l-1 1h1l1-2v-1h2l1-1h1l1-1 1-1v-1l1-1 1-1 1-1h1l1-1 2-2 1-1h1v-1h1l1-1 2-2 2-2v-1l1-1v-1l1-1 4-2-1-1a441 441 0 0 0 2 0l1-1h1l1-1 1-1 1-1h1v-1h1v-1l1-1v-1-1l1-1h-1l1-1h-1v-1l1 1 1-1v-1-1h-1-2v-2-2-1l2-1v-1-1-1l1-1v-1-1l1-1h-1v-1l-2 1h-1-1-1v-1h-1-1-1-1-1l-1 1v-1l-1 1v-2h-2l-1 1v1h1v1h1l1 1v1l-1 1-1-1h-1-1l1-1h-2-1l-1 2v-1h-1v-1-1l-1 1h-2-1c-1-1-1 0-1 1l-2 1h-1l-1 1-1 1v-1l-1 1h-1-2-1l-1-1v1l-1-1v1h-2v-3 1h-1v1c0-1 0 0 0 0l-1 1v1l-1-1v0h-1-1c1 0 0 0 0 0l-1 1v1l-1-1v1l-1-1v1h-1v1h-1v-1h-1-1-1-1v1h-1v1l-1 1h-1v2l-1 1-1 1 1-1v-2-1h1v-1h1v-1h-1v-1l1-1h-2l-1-1v-1h-1-2-1v1h-1v1l1 1h-1v1h-1l-1 2v1h-1v1h-1l-1 1-1 1v-1h1v-1l1-2h1v-1-1h1v-1-1h-1l-1-1h-1v-1h-1v-1-1h-1l1 2h-2v1l1 1v1l-1 1h-1 1v-1l1-1h-1v-1-1h-1l1-1-1-1h-1l-1-1h-1-2-1l-1-1v3h-1l1 1h-1c1 0 0 0 0 0v1l-1 2h-1l-1 1v1l-1 1v1l1 1v-1 1h1l1 1h-1 1l2 1h-1l2 1v1l-1-1-1-1h-1-1-1 1l-1 1h-1 1v1h0v1s0-1 0 0h2v1h1l-1 1h0v-1h-1l-1 1 1-1h-1l-1-1h-1 1a167 167 0 0 1-1 1h1l-1 1v1l-1 1h0v1h0v1l1-1v1 1l1-1-1 1 1-1v1h-1l1 1c-1 0 0 0 0 0v1h0c0 1 0 0 0 0v1h1l1 1h1v1l1-1c0 1 0 1 0 0v0h3l3 1h-1-1-1-1 0s-1 0 0 0l1 1v1l1 1-1-1h-1v-1l-1-1h-1 1-1-1-1l-1-1h-1 0v1h-1a347 347 0 0 1-1 0v1a131 131 0 0 1 0-1h-1-1v0h-1 1l-1-1c0 1 0 0 0 0l-1 1h1v1h-1l-1 1v-1h-1-1l1-1h-2v-1 1h-1v1l1 1h1v2h1v1h1v1s0 1 0 0v1l1-1v1h-1v1h1c0-1 0 0 0 0l2-1-1 1v1h-1-1l1 1h1-1-1l1 1v3h-1c1 0 0 0 0 0l-1-1-1 1-1-1v-1h-1l-1-1v1h-1v2l1 1h1l-1 1h1l-1 1h2l1 1v1h1v1h1v1h2l1 1h2l-1 1c1 0 0 0 0 0h1v1h-1v1h-1 1l1 1 1 1 1 1 1 1 1 1v3l-1-2-1-2h-1v-1h-1v-1l-2-1h-1-3l-1-1v-1h-1v1l-1-1v1l1 1 2 1h1v1l1 1h1l1 1v1h-1v-1h-1l-2-1-2-2-1-1h-1v2l-1 1v1h-1-1l-1-1h-1v-1-1-1-1l-1 1v-1h-1-1v1l-1 1v1a242 242 0 0 0 0 1v1h2v4l1 1h-1-1l1 1v1h-1v-1l-1-1-1-1h1l-1-1h1l-1-1v-1h-1l1-1v-1h-1-1-1l-1 1h-1s-1 0 0 0v1l-1 1 1 1v5l1 1 1 1a2921 2921 0 0 1 3 1h-1 1v2l-1-1h-1l-1-1-1 1h-1l1 1-1 1v2h-1l1 1h1l2 2v2h1l1 1h-1 1v2l2-1h4v1l1-1-1 1v1l-1-1v1l-1-1v0h-1l-1 1-1-1v2l-1-1-1-1v-1 1l-1-1-1 1v-1-1l-1 1v-1-1 1l-1-1v-1l-1 1h-1v1a562 562 0 0 0-1 6v1h1v2h2l-1 1v2l1 1v-1 1l-1-1v3h1v-1 2h3l2-2 1-1h1v-1l1-1-1 2h1v1h-1v1h1v1h2l1-1 1-2 1-1v-1h2l-1 1v1l-1 1-1 1-1 1h-1l-1 1h-2-1v-1a258 258 0 0 0-1 1v1l-1 1h-1c1 0 0 0 0 0v2h4v1h4c0-1 0-1 0 0v-1h1l1-1v-1h0v1h-1v2l1 1 1 1 2 1h-1l1 1h-1-1v-1h-1v-1l-1-1-1-1-1 1h-1-1l-1 1h-1v1h1v2h-1l-1 1-1 2 1 1 1 1 2-1v1h2v2l1 1 1-1h3l-1 1h-1-1-1 1l-1 1-1-1h-1v-1l-1-1h-1-1-1-2v2h-1l-1 1v1h-1v1l1 1 1-1v2s1 0 0 0l2-1 1 1v2l1 1h1v1l1-1h2v-1h2l-3 1v1l-1-1-1 1h-1l-1-1h-1a1613 1613 0 0 0-2-2h-1-1-1v1l-1 1v1h1a1053 1053 0 0 1-1 1v1h-1l1 1h-1 1v1h-1v1h1v1h-1v-1h-1v1h-1v1h4l1-1h3v1h-1-1v2h3l-1-1h1l1-1v1h-1v1h-1-1-1v1h-1l-1 1v-1 1h-1l-1 1h1l2 1h1l1 1h-1-1c0-1 0 0 0 0l-1 1v1h1l1 1v-1h1l1-1v1h2l1-1 1 1v-1-1l1-1h1l1-1 2-1v-1l1-1h1l1-1h3l1 1h7v1h2v1l-1 2-1 1-1 1-1 3-1 1v1h-1 2l1 1h3l1-1h2l1-1h0v1h-2l-2 1v1h-1-1l-1-1h-1-1l-1 2v-1h-1v1a5 5 0 0 0-2 1h1v1l-1 1-1 1-1 2v2-1h-1v1l-1 1c1-1 1 0 0 0h1l1 1 2-1 1-1h2l-1 1-1-1v2h-1-1v1h-1-1v-1-1l-1 1v1l-1 1-1 1h1v1l1-2 1 2v1h2v-1h1l2 1h2v1l2-1v-1l1-1v-1l1-1h1l1-2a978 978 0 0 1 1-1l-1 1-1 2v1h-1v2h-1v1l-2 1h-1c-1 1-1-1-1-1h-1-1l-1 1v-1h-2-1v0l-2 1 1-1h-1v1l-1 1v1l-1 1-1 1v3l1-1h2l-2 1h-1-1l-1 1v3a913 913 0 0 0-1 2v1h1l1-1h2l1 1h-1-1s0 1 0 0l-1 1h-1 1v2l-1 1v2h-1v2l1-1a1980 1980 0 0 1-1 2l1-1v-1-1l2-1 1-1-1 1v2l-1 2v2h1l-1 1h1v1l-1-1h-1-1l-1 2v2l-1 1a19 19 0 0 0-1 2l-1 2v1l1-1h-1v2l1-1v-1l1-1v-1 1l1-1h-1 1v-1a392 392 0 0 0 1-2l1-2v1l-1 1h1a492 492 0 0 1-1 1h1l1-1-1 1-1 1-1 1v1l-1 1-1 1v4l1-1h1v-1l1-1h1v1h-1l-1 1v1l-1 2v2l-1 1v1l1 1h2l-1 1h1l-1 1s1 0 0 0l2-1 2-1 2-2v-1h1v-1l1-1-1 2-1 1v1l-1 1-1 1-1 1h-1v1l-1 1-1 2-1 1-1 1 1 1-1 1v4l-1 1v7 1l-1 2-1 1-1 1v1l-1 1v5l1 1 1 1h1l1-1h4l1-1 1-1v-1l1-1c1-1 0-3-1-3v-1h-1l-1-1h2v-1-1l1-1s0-1 0 0l1-1v-1-1l1-1v-2s-1 0 0 0v-2l1 1v-1-1l-1-2v-1-1l1-2v-1-1l1-1 1-1v-1h1l1-1h1v-2-1-1l-1-1-1-1v-1h-1v-1-1l-1-1a1152 1152 0 0 0 0-3l-1-1v-1-1-1-1l1-1v2h2v-1l1-1c0 1 0 1 0 0h1v-1-1-1l1 1v-1l1-1 1-1v-1l1-1v-1l2-1h2l1-2v-1-1l1-1v-1l1-1 1 1h1l1-1 1-1h1v1h-1l-1 1-1 1-1 1-2 1v3l-3 1a2598 2598 0 0 1-2 2v1h-1l-1 2-1 1-1 2v1l-1 1h-1l1 2-1 1 1 1-1 1 1 1-1 1v1h1v1c0-1 0 0 0 0h1c-1 0-1 0 0 0v2l1-1v1h1l1 1 1 1v-2-1c0 1 0 0 0 0l-1-1v-1-2h1v-1-1l1-2v3h1v1h1l1 1 1 1v-3-1l-1-1v-1l-1-2 1 1v2h1l1 2v3l1 1h-1 1v1h2l1-1v-1-1a1029 1029 0 0 1 1-3 284 284 0 0 0 1-2h-1c0-1 0 0 0 0l-1-1v-1l1 1h1v-2-1-1l1-1v-2-1h-1v-1-2-2l1 1v4h1v-1l1-1v-1l1-1 1-1v-1-1h1l1-1-1 1-1 1-1 3-1 1v1l-1 3a947 947 0 0 0-1 2l1 3v1h4s-1 0 0 0v-1h-1l-1-1-1-3v-2 2l1-1v2l1 2 1 1h2v1h1v1h-1v1l1-1v1h2l1 1 2 1-1-1 1 1h3l1 1 1 1h1s0 1 0 0v1l2 1h1-1l-2-1v0l-1-1-1-1-2-1 1 1h-3l-2-1h-1-1-1l-2-1h-1l-1-1h-1-1l-1 1-1 1v3 7l1 1v3l-1 1-1-1 1 1h-1v2h1l1 1v1l1 1h1v1h-1 1l1 1h1l2 1h1l-1-1v-1 1l1 1v-1 1l1 3v1h-1v1h1v1l1 1 1 1-1 1a104 104 0 0 1 0 1v1l-1 1-1 1h-1-1v1l-1 1v2l-1 1-1 1v1h-1v4l-1 1v2l-1 1-1 2-1 1v1h-1l-2 2v2l-1 1v1l-1 2v3h1v2l1 1v2l1 1-1 1h-1l-1-2-1-1h1l-1-1h1l-1-2v-1l-1-1-1 1h-1l-1 1v6l1 2v1h1v1h1v1h1v1l1 1h1v1h1v3l1 1a320 320 0 0 1 1 1v1l-1 1 1 1v1l1 1h2l1 1-1-1 1-2-1-1h-1v-1-2l-1-1v-1-1l-1-1v-1l1-1v-1l2-1 1-1a116 116 0 0 1 2 1h1v1h1l2 1 2 1v1l1 1h2v2l1 1 1 1 1 1h2v1h1a1792 1792 0 0 1 3-1v-1-1-1-1-1-1h1v-1l-1-1h-1l-1-1v-1h-1 1v-1h-1 1-1v-1 1h1l-1-1 1-1a148 148 0 0 1 1 0l-1-1v-1l-1-1h-1 1v-1l-1 1h2v1l1 1v2l1 1h1l1 1h1a1418 1418 0 0 1 2 0v-1h1v1 2l1 1v1h1v1h1l1-1v1l1 1v-1h-1 1v-2-1l1-1 1-1v1h-1v1h1l-1 2v1h4l1-1h1l1-1h1l1-1v-2-1 0l1 1v-1-1c-1 0 0 0 0 0v-1 2h1v1l2-1v-1s1 0 0 0l2-1v1h4v-1h1v-1-1l-1-1v-1-2l1-1v-1l-2-2v-1-2l1 1-1 1 1 1v1h1v3h4l1-1-1 1 1-1h1l3 1h2l1 1v-1h1s0 1 0 0h3l1 1 1-1h1l1-1h1v-1-1l1-1-1-1h3l1-1 1-1 1-1h0l1-1 1-1 1-1h1l1-1 1-1 1-1 2-1v-2h2v-2h1l-2-1h1l1-2 2-2 2-1 1-2h3l1 1v-1l1-1v-2l1-1h1l1-1h2l1-1 1-2h-1v-2l-1-1v-2l-1-1v-1l-1-1-1-2-1-1h1l-1-1a8 8 0 0 1 1-1l1 1h2l-1-1h1v-1l1-1v-1l1-1v-1l1-1h1v-1h1l1-1v-2l2-1-1-1v-1l-1-1v-2h-1-1v-1-1-1h-1-2l-1-1h-1l-1 1-1-1h-2v-1h-1l-1-1v-1h-1l-1-1h-1v-1h-1s-1 0 0 0h-1-1l-1-1v1h-1v-1l1 1v-2c-1 1-2-1-2-2h-1-1-1-1-1-1l-1-1v1h-1l-1 1h-1v1l1 1h-1l-1 1v2h-3l-1 1-1 1-1-1v1h-1l-2-1-1-1-2-1 1 1v-1 0l-1 1v-1h1l-1 1h-1v-1h-1l-1 1h-1l-1-1-1-1-1 1-2-1v0h-2-1a436 436 0 0 1-3-1h-1-1-1-1l-1-1h0c0-1 0 0 0 0h-2 1l-1-1v-2l-2-3-2 1v-1h-1l-1-1h-1 2v1h2l-1 1 1-1 2 2h1l1 1 1 2 2-1h1v1h1v-1h1v1h1v1l1-1 1 1h1l1 1v-1 1h1l1 1v-1 1a605 605 0 0 1 0-2h1l1-1 1 1 1-1v-1 1l1-1h3l1-1v-1l1-1v-1l1-1a623 623 0 0 1 1-1l1-1 1-1h1l1-1v-1l1-1h2l2 1v1h1l1-1v1h1l1-1 1-1h1l1-1h1l1-1v-1h1v-1h1l1-1h-1l-1-1-1-1v-1h-1-1l-1-1v1l-1-1h-1l-1-1-1-1-1 1-1-1h-1l-1 1 1-1h1l1-1h1v-1a2416 2416 0 0 1 1-3v-1h-1-1-1l-2-1-1 1-1 1-1 1a1933 1933 0 0 0-3 1l-1 1h-1l-2 1-1 1-2 1h-1-1-1-1 2l-1-1-2-1v-1l-1 1-1-1 1 1h2l1 1h3l1-1 1-1h1v-1l1-1 1-1 1-1h1v-1h5l1-1h1l1 1 1-1 2-1 2 2 1-2 1-1 1-1 1-1h1l1-2h1l1-1v-1h1v-1h1v-1l1-1-1-1v-2h1v-1h1v-1l1-1h-2-2v-1 0h2v1l1-2 1-2-1 1 1-1 1-1h1v-1h1l1-1 1-1v-1h1v-1h1c0-1 0-2 1-1v-2-1h1v-1-1-1-1-1-1h1v-1-1l1-1v-1l1-1v-1h1v-1-1h1v-1l1-1v-1-1-1l-1 1h-1a148 148 0 0 1 0-1l1 1v-1-1-1a1013 1013 0 0 0 4-11l1-1 1-1 1-1 1-1 1-1v-1-1l1 1v-1l1-1v-1-1h1v-1l-1-1h1v-1 1l-1-1h1M382 488zm0 0zm0 0zm0-1zm-5 12zm0 0zm0 0zm0 0zm-11-32zm-16-37zm27 49zm0 0zm0 1zm1 0zm4 6zm0 0zm0 1zm-4-7zm66-48l-1-3-2-4-2-6-1-1v-1l-1-1v-1l-1-2h-1-1l-1-1-1-1-2-1-1 1v1l-1 1v3h-1l-2-1v-1l-1-1v-1-1-1-1l-1-1 1-1-1-1-1-1h-3l-1 2h-2-2l-1 1v1h2v2h-1-2v3h-1-2l-1 1h-2v-1-1-1-1h-1l-1 1v-1h-1-2v1h-1v2l-1 1-1 1v-1l-2-1h-2-1-1 1l-1-3-2 1v1h-1v-1h-1l1 1h-1 1l1 1-1 1v1l-1 1v-1-1h-1l-1-1v2l1-1v2h-1l-1 1-1 1v1l-1 1 1 1-1 1h-1v1l-1 1h-1-1-1c0-1 0 0 0 0l-1-1 1-1h-1-1v-1-1l-1 1-1-1-1 1h-2v-1h-1v1l-1 1h-1v-1h-4v-1h-1v-1-1h-1v-1h-1v-1h-1v-1-1-1h-1l-1-1h-1v-1h1l-1-1h1-1v-1h-1l-1-1h-1-1v1h-1v2a15 15 0 0 1-1 2v1l-1 1 1 2v1l-1 1-1 1h1v10l-1 1-1 1-2 1h-2l-1-1v2l-2 2-2 2-1 1h-2l-1 1-2 1h1v3l-1 1h-1v1h-1l-1 1h-1l-1-1v2l-2-1h-1v-1-1h-1-3-1v3l-2 2-1 1-1-1-1-1-2-1h-2l-1-1v-1l-2 2v1h-3l-1 2-1 1 1 1-2 2v3h1l1 1 1-1v1h1c0 1 0 0 0 0v1h2v1h1l1 1v1h-2l-1 2v3h-1v1l-1 1v1l-2 1 1 2-1 1h2v-1l2-1h2v3h-1v2h-5l-2 1-1 2h-1l1 2 2 1 1 1 2 1 3 2 2-1 1 1-2 1v2c-1 1 1 1 2 2h-1-1l-2 1v1h-1v2h-1v1l-1 2h2l-3 1v1h1l1 1-1 1v2l1 3 1 2 1 2 1 1v1h2v2l1-1h2v-1h1l1 1s-1 0 0 0v1h1l2 1v2l1 1h2s0 1 0 0h2l1-1h1l2-1h1v-1h1v-1h1v1h1l1-1v-1h-1v-1-1-1h-1v-3h2v1h2v-1l1-1h1v1h1v1l1 1h2v-1h3v-1h2v-1h1v1h3v-1h1v-1h3l1 1h1c0 1 0 0 0 0v-2l-1-1h1v-1h2v-1h1v-1l1 1 1 1v1l1 1v1h2v1l1 1h-1v2a48 48 0 0 0 1 0v1h1v-1h2l1-1 1-2v-2-1l1-2h1l1-1 2 1 1-1h-1v-1h1v-1h1a32 32 0 0 1 0-1 9 9 0 0 0 0-1l1 2 1 1 1 2-2 1c-1 0 0 0 0 0v2l1 2v3h3l2-1h1v-1-1l1-2h1l1-1v1l1-1h4l1 3h1v-1l1-1 1-1-1-2-1-1 2-1v-2h3l1-1 3-1 1-2-1-1v-1-1h1l1-1v1h1v1h2v-2l1-2h2v-1l-1-1v-2-1 1l1-1 2-2h1l1-1 1-2-1-1 1-2-2-1h-1v-1-1-2l-3 1v-2l1-1-1-1v-1l2-1 1 1 1-1h2l1-1s2 2 3 1h6l1-1 1 1h3l1-3 1-1 2-1h2l1-1 3-1-1-3-2-1v0l-1-1-1-2-1-1h-1-1l-1-1-2 1-2 1a1731 1731 0 0 0 1-2h1v-1l1-1-1-1-1-1v-1 1a10331 10331 0 0 1 4 1l1-1v-2h1l1-1 1-1v-1l1-1 2-1 2-2h1l1-1v-3-3z"/><path d="M382 488zm0 0zm0 0zm0-1zm-5 12zm0 0zm0 0zm0 0l-1 1 1-1zm-11-32zm-16-37zm27 49zm0 0zm0 1zm1 0zm4 6zm0 0zm0 1zm-4-7zm66-48l-1-3-2-4-2-6-1-1v-1l-1-1v-1l-1-2h-1-1l-1-1-1-1-2-1-1 1v1l-1 1v3h-1l-2-1v-1l-1-1v-1-1-1-1l-1-1 1-1c0-1 0 0 0 0l-1-1-1-1h-3l-1 2h-2-2l-1 1v1h2v2h-3v3h-1-2l-1 1h-2v-1-1c-1 0 0 0 0 0v-1-1h-1l-1 1v-1h-3v1h-1v2l-1 1-1 1v-1l-2-1h-2-1c0 1 0 0 0 0h-1 1l-1-3-2 1v1h-1v-1h-1l1 1h-1 1l1 1-1 1v1l-1 1v-1-1h-1l-1-1v2l1-1v2h-1l-1 1-1 1v1l-1 1 1 1-1 1h-1v1l-1 1h-1-1-1c0-1 0 0 0 0l-1-1 1-1h-1-1v-1-1l-1 1-1-1-1 1h-2v-1h-1v1l-1 1h-1v-1h-4v-1h-1v-1-1h-1v-1h-1v-1h-1v-1-1-1h-1l-1-1h-1v-1h1l-1-1h1-1v-1h-1l-1-1h-1-1v1h-1v2a8 8 0 0 1-1 1v2l-1 1 1 2v1l-1 1-1 1h1v10l-1 1-1 1-2 1h-2l-1-1v2l-2 2-2 2-1 1h-2s0 2-1 1l-2 1h1v3l-1 1h-1v1h-1l-1 1h-1l-1-1v2c-1 0-1-2-2-1h-1v-1-1h-1-3-1v3c0 2-1 1-2 2l-1 1-1-1-1-1-2-1h-2l-1-1v-1l-2 2v1h-3l-1 2-1 1 1 1-2 2v3h1l1 1 1-1v1h1c0 1 0 0 0 0v1h2v1h1l1 1v1c0 1 0 0 0 0h-2l-1 2v3h-1v1c1 0 0 0 0 0l-1 1v1l-2 1 1 2c1 1 0 1-1 1h2v-1l2-1h2v3h-1v2h-5l-2 1-1 2h-1l1 2 2 1 1 1 2 1 3 2 2-1 1 1-2 1v2c-1 2 1 1 2 2h-1-1l-2 1v1h-1v2h-1v1l-1 2h2c1 1-2 1-3 1v1h1l1 1-1 1v2c1 1 2 1 1 3l1 2 1 2 1 1v1h2v2l1-1h2v-1h1l1 1s-1 0 0 0v1h1l2 1v2l1 1h2s0-1 0 0c0 0 0 1 0 0h2l1-1h1l2-1h1v-1h1v-1h1v1h1l1-1v-1h-1v-1-2h-1v-3h2v1h2v-1l1-1h1v1h1v1l1 1h2v-1h3v-1h2v-1c1 0 0 0 0 0h1v1h3v-1h1v-1h3l1 1h1c0 1 0 0 0 0v-2l-1-1h1v-1h2v-1h1v-1l1 1 1 1v1l1 1v1h2v1l1 1h-1v2h1v1h1v-1h2l1-1 1-2v-2-1l1-2c0 1 0 0 0 0h1c1 0 0-2 1-1 1 0 1 2 2 1l1-1h-1v-1h1v-1h1a16 16 0 0 1 0-1v-1l1 2 1 1 1 2-2 1c-1 0 0 0 0 0v2l1 2v3h3l2-1h1v-1-1l1-2h1l1-1v1l1-1c0 1 0 0 0 0h4l1 3h1v-1l1-1s0 1 0 0l1-1-1-2c0 1 0 0 0 0l-1-1 2-1v-2h2c0 1 1-2 1 0l1-1c1-1 2-2 3-1l1-2-1-1v-1-1h1l1-1v1h1v1h2v-2l1-2h2v-1l-1-1v-2-1 1l1-1c1 1 2-2 2-2h1l1-1 1-2-1-1 1-2-2-1h-1v-1-1-2l-3 1v-2l1-1-1-1v-1l2-1 1 1 1-1h2l1-1c1-1 2 2 3 1h6l1-1 1 1h3l1-3s0-2 1-1l2-1h2l1-1 3-1c-2-2-1-1-1-3l-2-1v0l-1-1-1-2-1-1h-1-1l-1-1-2 1-2 1a866 866 0 0 0 1-2h1v-1l1-1-1-1-1-1c0-1 0 0 0 0v-1 1a5165 5165 0 0 1 2 2h2v-1l1-1v-2h1l1-1 1-1v-1l1-1 2-1 2-2h1l1-1v-3-3z"/><path fill="#132965" d="M439 547h-1l-1 1v5l-1 1-1 1v1l-1 1-1 1h-2v-1l-1-1v-1h-1v1h-1-1l-1 1h-1l-1-1v-1h-2v-1l-1-1-1-1-1-1v-1h-1-3l-1-1-1-1-1-1v-1h-1l-1-1v-1-1-1-1-1-1-1-1-1h-1 1s-1 0 0 0l1 1h1c0-1 0-1 0 0h2l1-1h1l1-1 1-1h2v-1h3l1-1h1a14 14 0 0 0 1 0h3v2l2 1 1 1h2v-1l1 1h1v-1h4v1l1 2 2 1v1l-1 1h-2l-1 1v1l-1 2 1 1v1z"/><path stroke="#FFF" d="M439 547h-1l-1 1v5l-1 1-1 1v1l-1 1-1 1h-2v-1l-1-1v-1h-1v1h-1-1l-1 1h-1l-1-1s0 1 0 0v-1h-2v-1l-1-1s0 1 0 0l-1-1-1-1v-1h-1-2s1 0 0 0h-1l-1-1-1-1-1-1v-1h-1l-1-1v-1-1-1-1-1-1-1-1-1h-1 1s-1 0 0 0l1 1h1c0-1 0-1 0 0h2l1-1h1l1-1 1-1h2v-1h3l1-1h1a7 7 0 0 0 1 0h3v1a2 2 0 0 1 0 1l2 1 1 1h2v-1l1 1h1v-1h4v1l1 2 2 1v1l-1 1c-1 1 0 0 0 0h-2l-1 1v1l-1 2 1 1v1z"/><path fill="#132965" d="M386 596h-1 1l-1-2-2-1h-2l-1 1 1-1h-1l-1-1-1-1v1l-1-1-1 1-1 1h-1l-1 1h1s-1 0 0 0h-1v1c-1 0 0 0 0 0h-1l1-1h-1 1c-1-1-2 1-3 1h-1v0h-1v1h-1v1l-1 1 3-1 2 1 2 2 2 1 1 1 1 1h3l2-2v-1l1-1 1-1h1l1-1v-1"/><path fill="#00549F" d="M174 643v-1h-1 0v1c1 0 1 0 0 0h1M175 642"/><g transform="translate(174 646)"><mask id="d" fill="#fff"><use xlink:href="#c"/></mask><path fill="#00549F" d="M0 0l1 1-1-1" mask="url(#d)"/></g><path fill="#00549F" d="M174 644v0"/><g transform="translate(173 645)"><mask id="f" fill="#fff"><use xlink:href="#e"/></mask><path fill="#00549F" d="M1 1v0" mask="url(#f)"/></g><path fill="#00549F" d="M176 644c0-1 0-1 0 0-1 0 0 0 0 0l-1 1 1 1v-1s1 0 0 0l1-1h-1M176 642v-1l-1 1h1M174 643h1v-1h-1s0-1 0 0v1M241 565l1 1v-1-2h-1v1s1 0 0 0v1M177 642l-1-1v1h2-1M178 643l-1-1 1 1"/><path fill="#132965" d="M204 343l-1 1c-1 0 0 0 0 0l1-1M203 348l1-1h-1v1M203 344v-1-1 2M202 352v0c0 1 0 1 0 0M203 350v-1 1M203 346v-1 1M203 352h-1 1M204 347v0M204 346v0M205 341l-1 1 1-1M204 346v-1 1M202 344v-1 1M203 346h1-1M205 342s1 0 0 0M207 331v1h1l-1-1M207 330h0M208 330"/><path fill="#132965" d="M179 329v1h-1v1h-1v1h-1v2l-1 1v1h2v2h-1-1v1l-1 1h0v1h-1l1 1v1l-1 1v-1 1l-1-1v1h-1v-1-1l-1 1-1-1h-1-1v1h-1-1l-1-1h0v-1h-1v-1-1h1v-1h1v-1h1v-1h1v-1-1-1-1-1l-1-1 1-1-1-1h1v-1-1h2v3h5l1-1h3v1h1zm-58 24l-1 1h-1v-1-1h-1v-1h-1v-1h-1v-1h-1-1v-1h-1 1v-1h-1-1l1-1h-1-1-1-1-1-3-1 1v-1h1l1 1h1v-1h1v-1l-1 1h-1l1-1h-1v-1h3v-1h2l1-1v1h1l1-1v1h1v2l1 1-1 1h0v1h1v1l1 1v-1h1l-1 1h0v1h1l1 1h-1l1 1v1l1-1v1zm90-9l-1-2-1-1v-1-1-1l-1-1-1-1v-2-1h-1v-1l-1-1h-1l-1 1h-1-1-1l-1-1-1 1-2 1-1 1h-1-1v2h-1l1-1-1 1v2l-1 1v-1h1v-1h-1l1-1v-1 1l1-2h-1v-1l1-2 1-1 1-1h1l2-1h1v-1l1-1 1-1v-2l-1-3-1-1h-1-1v1h1v1l1 1v2h1v1l-1-2-1-1h1l-1-1h-1v1l-1-1v-2 1l1-1-1-1-1-1v-1h-1l-1-1-1-3-1-1h-1v-1h-1v-1-1-2l1-1-1-1-2 1h-1v-1-1-1l1-2v-1-2l-1-1v-1l-2-1h-1v-1h-2v1h-1-1-1l-1-1-1-1h-1-1c0-1 0 0 0 0l-1-1v1h-1-1-1l-1-1h-1v1h-1v1h-1l-1 1h-2-1-1 1l-1 1h-2v1l-1 1h-1-4l-3-2h-1v3l-1 1v2l-1 1v1l-1 2h-1l-2 1-1-1-2-1-1 1h-1v0l-1 1-1 1v1h-1v1l-1 1-1 1-1 1v1h-1l-1 2-1 1 1 1v1h-1v1l1-1h-1v1h-1l-1 1v1h-1v1h-1v3h-1l1 1h-1l-1 1v-1h-1v1h-1-2-1l-1-1-1 1h-2-1-1l-1 1-1 1-1 1 1 2 1 1 1 1h1l1 1h2v1l1-1 1 1h-1-1v1h-1l-1 1v1l-1 1v1h-1-1-1-1-1v-1h-1-1-1l1 1v1h-1v2h-1-1l-1 1h-1l-1 1h-1v1h1l1 1h-1v1h1v1h1v1a98 98 0 0 0 1 1v2h3v1h1l1 1 1 1h1l1 1v4h1l-1 1 1 1v1h1l1-1h3l1 1h1v1h1l1 1v1h1v1h1v2h1l1-1h2l1-1-1-1v0h1l-1-1v0l-1-1c0-1 0 0 0 0l-1-1v0h-1 1v-1h-1-1v-1h-1l-1-1h1v-1l1 1v-1-1l1 1v-1l1 1h-1 2v1h-1l1 1h1v1h1-1v1h1l-1 1 1-1v1l1 1h-1v1h1v1h4l1-1v-1h1v2h1v-1h1v-1-1-1 1l1-1h-1 1l1-1h2v-1-1h1l-1-1v-1l-1-1v-1h-1v-1l-1-1 1-1 1-1 1 1h1l1-1v-1h1v-1h1v-1l1-1v1l1-1v1h1v1h2v1h1v1h1v1h1v2h-1l1 1h-1v2h2v2l1 1h1v1l1 1h0l1 1v-1h1v-1h1v1h1v1h1v1l1 1h-1v2h-1v1h1v2l1 1h-1l-1 1a3 3 0 0 0 1 0l1 1v1l1 1h1v-1h-1l1-1v-1h3l1-1h2l1 1h1v-1-1-1-1h2v1h1v-1h1l-1-1-1-1v-1l1 1v1l1 1h1v1h3v1l1 1h3v1h-1a278 278 0 0 1 1 1l1 1 2-2 1-1h1v-1l2-1v-1l1-1v-1-1-2-2l1-2a378 378 0 0 1 1-1h-1v0l1-1v-1h1v1l-1 1h6l1 1h1v-1-1 1h1v-1a681 681 0 0 0 2-2l1-1h1v-1h-1v-1-1-1l-1-1v1h-1l1-1h-1-1-1v1h-1-1v-1 0h1l1-1v-1-1-1-1-1 0h-1 1v-1h-1 1v-1h-1l-1-1h1v-1h-1l-1-1 1-1v-2h1v1h1l1 1 1 1h1v1h1l-1 1h1v6h-1s0-1 0 0h-1v2h1v1l1 1v1h1l1 1v-1-1-1h1v-1-1-1h-1l1-1 1-1v-1-1-1zm-83 25zm0 0h0zm14-65v0zM181 288v-1h-2-1-1v1h4l-1 1 1 1v-1-1M174 291"/></g></svg>