<?xml version="1.0" encoding="UTF-8" standalone="no"?>
<svg
   xmlns:dc="http://purl.org/dc/elements/1.1/"
   xmlns:cc="http://creativecommons.org/ns#"
   xmlns:rdf="http://www.w3.org/1999/02/22-rdf-syntax-ns#"
   xmlns:svg="http://www.w3.org/2000/svg"
   xmlns="http://www.w3.org/2000/svg"
   xmlns:sodipodi="http://sodipodi.sourceforge.net/DTD/sodipodi-0.dtd"
   xmlns:inkscape="http://www.inkscape.org/namespaces/inkscape"
   version="1.1"
   baseprofile="full"
   id="svg2"
   preserveAspectRatio="xMidYMin"
   inkscape:version="0.91 r13725"
   viewBox="0 0 600 600"
   sodipodi:docname="uk-svg-map.svg">
   <filter id="inset-shadow" x="-50%" y="-50%" width="200%" height="200%">
    <feComponentTransfer in="SourceGraphic">
      <feFuncA type="table" tableValues="1 0" />
    </feComponentTransfer>
    <feGaussianBlur stdDeviation="3"/>
    <feOffset dx="0" dy="0" result="offsetblur"/>
    <feFlood flood-color="rgb(20, 0, 0)" result="color"/>
    <feComposite in2="offsetblur" operator="in"/>
    <feComposite in2="SourceAlpha" operator="in" />
    <feMerge>
      <feMergeNode in="SourceGraphic" />
      <feMergeNode />
    </feMerge>
  </filter>
  <style
     id="style3">
	  path:hover
	  {
	  opacity: 1; 
	  filter: url(#inset-shadow);
	  }
	</style>
  <metadata
     id="metadata1131">
    <rdf:RDF>
      <cc:Work
         rdf:about="">
        <dc:format>image/svg+xml</dc:format>
        <dc:type
           rdf:resource="http://purl.org/dc/dcmitype/StillImage" />
        <dc:title></dc:title>
      </cc:Work>
    </rdf:RDF>
  </metadata>
  <defs
     id="defs1129" />
  <sodipodi:namedview
     pagecolor="#ffffff"
     bordercolor="#666666"
     borderopacity="1"
     objecttolerance="10"
     gridtolerance="10"
     guidetolerance="10"
     inkscape:pageopacity="0"
     inkscape:pageshadow="2"
     inkscape:window-width="1920"
     inkscape:window-height="1123"
     id="namedview1127"
     showgrid="false"
     inkscape:zoom="1.4769576"
     inkscape:cx="245.7449"
     inkscape:cy="304.68038"
     inkscape:window-x="-9"
     inkscape:window-y="-9"
     inkscape:window-maximized="1"
     inkscape:current-layer="Subunits"
     fit-margin-top="0"
     fit-margin-left="0"
     fit-margin-right="0"
     fit-margin-bottom="0" />
  <g
     inkscape:groupmode="layer"
     id="layer1"
     style="display:none"
     inkscape:label="Projection Data"
     transform="translate(420.7199,4107.559)">
    <text
       x="0"
       y="0"
       id="text5"
       style="fill:#000000">Projection: LATLON2 Hossztartóp: 55 Fi0: 90 Lambda0: 0 FiMin: 49 FiMax: 61 LambdaMin: -12 LambdaMax: 4 Scale: 70</text>
  </g>
  <g
     inkscape:groupmode="layer"
     id="Subunits"
     inkscape:label="Subunits"
     style="display:inline"
     transform="translate(420.7199,4107.559)">
    <path class="state"
       style="fill:#e5ff80;stroke:#000000;stroke-width:0.2"
       d="m -73.1419,-3894.5479 c 3.399638,-0.5462 2.252195,2.2945 7.405759,3.4066 0.03572,3.4606 2.008499,5.2825 2.160432,9.3138 -1.123976,3.9896 1.30232,7.6169 0.712309,11.2756 1.075131,3.9622 2.082655,7.1384 2.7985,11.1298 0.875473,4.2187 2.839151,8.2775 5.352,11.886 0.435709,5.842 1.451835,12.8599 5.5247,17.4861 3.503973,0.615 1.063722,4.8422 1.337,6.664 2.431517,0.3581 1.582174,-2.1491 6.0105,0.189 6.240593,3.1281 13.271761,4.6593 18.740564,9.4585 2.360962,3.7713 5.703121,7.1843 6.312864,12.0746 -0.141374,4.2366 4.990987,4.5245 6.114421,8.1299 2.922137,4.5741 11.16745652,4.646 2.855551,9.1729 -1.9248043,8.0713 4.6408734,15.7988 8.76053949,22.5446 3.08218731,2.3718 6.44048481,11.9131 3.83954011,11.4719 2.0805757,-7.78 -8.2907616,-1.1226 -10.6071555,-5.6988 -2.3794371,-6.6387 -7.9733511,-5.7286 -13.2474791,-3.9574 -2.647977,0.085 -10.487602,-2.6568 -9.041445,1.575 3.175373,-3.4963 7.354451,2.9796 11.581873,-0.7663 6.554681,-3.663 6.8546729,5.4091 11.3859999,7.5223 4.26727381,2.2406 7.3198883,6.9806 11.8826271,9.1547 1.6707492,3.8533 4.55717,6.9488 5.382042,12.0111 2.398812,5.4067 4.207527,13.781 -2.1662743,16.7441 -3.882892,3.0663 -5.9846991,7.7351 -9.6076677,10.8577 3.7463132,-0.7237 7.9198258,4.9302 10.2745,6.6431 5.134216,2.7772 5.313299,1.6032 7.207,-4.2981 -0.260933,-6.0225 6.533646,-7.8334 9.6641,-8.4909 3.234681,0 13.550969,3.9651 11.8163,1.2601 2.135642,0.2632 11.365235,1.8809 15.444419,4.6848 6.118607,4.6076 14.017259,8.8415 14.873081,17.2814 0.105549,4.6207 1.887479,9.7921 0.542961,14.083 -0.599857,6.813 -5.781282,12.1692 -4.903261,19.1108 0.347913,5.8728 -4.70565,7.9075 -6.8135,10.6331 -3.344045,7.3939 -6.010833,5.4387 -10.402684,0.6399 -5.356598,-1.0315 8.390349,4.6564 0.838884,4.5541 -7.805663,-1.8163 -5.065318,1.9532 1.7867,1.0569 -0.478523,1.9391 -2.626775,5.6839 1.0519,5.502 -1.95517,4.5207 -10.261786,9.2187 -12.025,2.121 -1.989489,-1.3957 -4.004701,8.221 -7.9097,6.2339 -7.964967,2.1344 2.111078,4.2793 4.8422,-0.021 3.484633,0.9208 -0.902643,8.4401 1.4333,8.4003 -1.281107,5.278 -7.352344,7.2165 -12.2057,6.0479 -3.280695,2.4425 -7.761346,0.6084 -9.8328,5.3685 1.560331,-0.338 8.157418,-4.1527 12.4587,-0.847 2.034274,2.5493 -11.477798,4.0946 -2.930089,5.5579 5.053729,-3.1095 2.2505,2.2527 10.176632,2.497 6.191004,0.6351 12.160563,-2.6538 18.578298,-2.2757 7.963853,-0.9393 0.158782,4.3976 1.413159,6.9999 2.923698,5.5831 -0.442898,12.9872 -6.8176,13.0828 -3.875685,2.0962 -10.557101,3.7535 -9.9974,10.0871 1.196917,7.3053 -10.01596,-3.1338 -11.752519,5.5438 -5.147937,3.3711 -13.209817,1.7966 -15.87438,8.4864 -4.2566626,1.5431 -8.8865552,-2.1868 -13.4078092,-3.13 -4.6850783,-2.6508 -9.2099958,-2.4551 -13.8387918,-0.064 -5.12546,-0.9295 -11.39952,1.6361 -15.0764,2.5272 -1.335599,5.7328 -6.395614,-2.2519 -4.8181,-4.151 -1.245089,-1.2537 -6.631365,-2.9167 -6.5485,2.9577 -0.989243,-1.73 -4.041302,-8.5747 -2.636308,-1.4927 -1.502519,3.6133 -6.489553,-3.0266 -8.714192,-4.7862 -8.898204,-5.8242 -1.479952,-0.5904 0.9877,4.2352 -2.937713,2.4735 -6.497719,2.2716 -9.346577,5.3997 -2.426176,0.5055 -7.864955,0.027 -11.563723,0.5152 -3.670747,2.0276 -5.481885,2.547 -8.1867,-0.8539 -4.276058,3.9635 3.905885,2.3625 4.276,6.6846 -1.697414,6.8742 -8.420843,1.0615 -13.059356,1.1685 -5.781279,-3.0793 -9.925784,0.9492 -7.228277,5.8562 -0.580991,0.4173 -5.286187,-8.2427 -9.568637,-9.8377 -4.7301,-4.1993 -10.42138,-2.9641 -15.40113,-2.0095 -3.23168,2.8535 -8.25409,1.0306 -10.38411,5.7531 -3.20476,5.0084 -6.43576,-6.2457 -5.49939,-1.8748 2.12873,4.6267 -4.42367,8.729 -1.2928,13.8951 -6.53659,2.3295 2.77592,3.4452 -1.582,7.672 -4.4406,-1.0901 -4.1143,7.154 -6.33476,9.3296 -5.75664,2.0971 -6.913,-5.1695 -11.46384,-7.2928 -3.63403,4.3402 -5.4744,-2.3788 -6.42527,-3.4183 -4.85527,-0.1557 0.52214,-8.6637 -2.99003,-5.5414 -2.08629,3.9701 -2.6902,4.1389 -0.53259,5.3283 1.52566,0.9823 1.74658,5.0943 -2.35404,0.8481 -5.32508,-1.9282 -9.72023,4.2929 -15.37777,2.7909 -1.41476,-2.9722 -4.67538,-0.039 -4.9104,3.4126 0.29062,4.817 -8.35697,2.7854 -8.8531,8.9391 -1.77594,-7.2345 -1.95409,-0.2491 -3.3164,2.3939 -2.91283,0.5419 4.41299,3.8777 -0.8954,6.7832 -3.60256,3.9461 -5.37129,3.725 -6.61047,-2.6207 -1.80988,-3.4393 -7.52186,-6.7667 -10.79873,-4.4143 2.84825,5.479 -9.77262,6.3761 -6.1671,1.68 -2.56268,-5.2529 4.65407,-7.5112 8.2468,-9.1211 3.40596,2.8421 7.51671,-3.9785 10.94924,-7.0105 3.47051,-3.3323 2.88515,-6.296 7.13446,-8.9564 -1.48038,-3.3987 3.86883,-11.775 4.2198,-5.0608 7.55133,1.5697 -2.44079,-2.766 1.51599,-4.6004 6.48961,1.5699 4.17855,-6.2295 8.20444,-7.4507 3.17816,-4.2172 7.22559,-8.3035 5.48705,-14.3017 0.83728,-4.2694 0.41531,-11.4174 6.38942,-7.2824 4.97596,1.2419 9.48296,-6.1277 5.8901,-9.9538 0.85728,-2.4892 3.63231,-6.4205 9.94795,-5.4339 5.29548,-1.2497 10.25616,-2.2747 15.52722,-0.4485 5.83487,-0.9635 9.97819,5.1604 15.7253,1.9647 5.07261,-2.4331 8.94721,1.9754 8.96333,-2.4034 -1.73516,-5.1202 1.01697,-6.432 0.9998,-10.5732 4.36114,-1.3141 6.10198,-7.8159 11.1818,-8.9881 3.78071,-5.8799 5.89495,-13.2428 12.3543,-16.646 0.532517,-4.0371 -5.50892,3.4277 -8.1345,5.2498 -3.25492,6.3352 -3.58032,1.946 -3.27891,-1.7086 -0.99237,-2.446 0.50642,-9.1595 0.55671,-8.2524 -3.54217,-1.5741 -5.25187,-4.8091 -8.34556,-7.5398 -2.94202,2.1555 -4.84111,0.1959 -6.48594,-2.6523 -1.72706,-2.835 -2.88041,-6.161 -3.62657,-8.8628 0.36868,-2.389 0.34168,-2.9379 1.45037,-4.6892 -2.50193,-1.0172 1.46254,-5.1015 2.666,-6.7238 5.55983,0.01 -2.33032,-2.8805 2.104,-4.8721 -0.88082,-2.0592 -7.56605,-2.4871 -9.5959,-6.4708 -2.21306,-4.1792 4.26047,-5.8205 7.1668,-5.9288 3.2874,-2.0076 1.02794,-7.0266 -1.883,-3.0491 -1.58929,3.1832 -2.38789,-1.608 -1.8148,-3.0099 2.64801,-2.0212 3.13198,-5.2199 4.019,-8.3019 3.72071,-0.6802 1.28547,-4.3436 -1.6582,-4.2913 -1.98758,-1.2416 -5.79851,-3.4524 -2.5856,-6.2089 -0.77438,-3.2242 3.56866,-6.7454 6.5646,-6.6921 2.65436,0.5735 5.8105,3.1946 8.29818,2.7472 3.53209,-1.1953 0.11476,-5.8993 -2.67708,-5.4798 -2.20238,-3.5214 -2.65551,-8.2023 -5.5166,-11.277 4.64156,-2.432 -2.33446,-7.1105 -5.1674,-7.5599 0.58521,-3.729 -8.14604,-9.7293 -1.2125,-10.7871 6.5909,-5.3736 3.88256,9.7412 10.6037,8.6522 2.70698,-0.5281 3.92345,-2.462 6.0547,-4.3885 -3.82004,2.4337 -8.84862,2.7451 -11.2823,-2.8697 -1.88066,-5.5715 -7.70328,-11.7887 -2.24921,-17.1598 4.52244,-6.204 6.12343,-5.7789 -0.49709,-9.2095 0.17393,-4.9324 -2.11287,-12.278 4.9586,-12.824 3.60633,0.1373 4.88812,-5.0782 0.62664,-4.5982 0.0618,-4.1402 7.50721,-6.6107 2.51227,-11.3576 2.85865,-5.2329 2.5355,-4.3372 -2.29571,-0.4871 -3.24239,8.5969 -5.63846,-8.2659 -5.9744,0.4408 -2.99585,4.2941 -2.77626,10.0401 -7.1307,5.3342 -1.77279,-3.7604 2.66677,-8.0519 0.3212,-10.675 0.32925,8.0175 -6.85381,2.7693 -7.59507,-2.4042 0.87769,-5.2897 -5.0071,-8.7076 -7.21233,-13.3809 -3.14564,-3.1116 1.71601,-8.7276 1.92588,-13.0483 2.16048,-4.543 5.18144,-7.407 5.40412,-12.8242 1.80513,-5.7089 7.20413,-0.5929 4.7311,-5.8792 2.09606,-1.6196 14.21144,0.8079 8.0622,-1.2388 4.06698,-0.5693 0.54561,-3.5584 3.0394,-6.7974 3.81041,2.3455 5.64441,-4.29 8.3031,-6.3001 3.29065,-1.0783 7.13568,-4.4512 7.4278,-7.672 1.08862,-3.0879 4.94358,-7.9656 8.6725,-7.833 2.867596,0.842 4.126641,-4.8107 7.8614,-4.9213 2.862339,-2.7545 -1.887168,-6.0586 -2.174932,-9.0857 0.07982,-2.4174 -5.330566,-6.034 -0.06947,-5.7502 3.101985,-1.8833 3.967459,-6.2651 7.2311,-8.2042 1.30743,-6.9179 6.26161,2.3523 8.4075,4.7251 0.104602,1.8831 1.786148,2.5153 2.2524,4.0951 m 110.7385,298.5949 c -4.563482,4.028 -12.215419,-6.0299 -4.904586,-4.6635 1.982062,0.6617 5.828945,1.8007 4.904586,4.6635 z m -75.2899,40.782 c -6.593854,3.8428 -0.424548,-8.0304 0,0 z m -14.3337,1.0638 c 3.618358,2.3192 8.565818,1.9657 9.3751,6.1532 -5.184418,0.5833 -2.631418,7.2148 -8.119754,7.0044 -4.109739,-0.5076 -9.703432,-7.5912 -11.794422,-6.0016 3.025762,-5.4692 6.645133,-2.0159 9.427506,-6.928 l 0.20017,-0.1549 0.9114,-0.07"
       id="path929"
       inkscape:connector-curvature="0">
      <title
         id="title5287">England</title>
      <desc
         id="desc5283">England</desc>
    </path>
    <path
       style="fill:#ffb380;stroke:#000000;stroke-width:0.2"
       d="m -247.9003,-3871.2731 c 0.49653,1.0119 -1.23698,4.067 -0.7026,1.7151 0.005,-1.712 -2.50468,-0.95 -3.6858,-1.239 1.09511,-1.4193 2.95153,-0.9786 4.3884,-0.4761 z m -10.668,4.7531 c 1.56975,0.651 2.9333,-1.729 4.48564,0.1007 1.68992,0.8938 3.56134,2.6634 5.49005,1.2449 1.94215,-0.9494 3.95928,0.2913 5.0686,1.8677 1.83557,1.4641 0.94059,4.0189 0.86023,6.02 -0.82744,1.5274 -0.93514,3.4126 1.37259,2.8267 2.4794,0.3719 1.52123,3.2549 0.97253,4.845 -0.34269,1.5824 2.60207,0.97 3.16656,2.5552 1.303,1.3445 0.94634,3.5484 2.7062,4.5499 1.74054,1.62 0.3202,4.989 2.82916,5.8119 1.58419,0.7723 2.71049,2.9587 1.20887,0.1262 -0.83494,-1.0659 -3.50063,-2.7944 -1.45546,-3.6707 3.75552,1.009 4.50718,6.7426 1.82993,9.2477 -2.26482,1.1466 -5.22084,1.3677 -6.4803,3.9341 -0.81271,1.4896 -1.73185,2.5501 -0.79693,3.9798 0.43086,1.9574 1.96406,-1.2094 2.47557,-1.9367 1.09585,-0.9471 2.49709,-1.599 3.70225,-2.4461 1.37501,0.1202 2.83325,1.1345 4.45239,0.33 1.64064,-0.3695 3.25805,-0.8841 3.96242,0.9623 1.04859,0.8769 0.61895,2.9954 1.3129,4.319 1.06419,1.3387 1.84251,2.643 1.648,4.5375 -0.33015,1.6219 2.06424,2.6561 1.4355,4.0165 0.73156,1.6952 -1.92469,2.9179 -0.7949,4.6901 0.1019,1.514 -1.8047,2.5566 -0.94487,3.6491 -1.0223,2.2585 -2.42151,0.5434 -2.57048,-1.2828 -1.16681,-0.9155 -1.95923,-3.0053 -0.55465,-4.2262 1.19386,-1.9371 0.46703,-4.7065 -0.6638,-6.5612 -1.58047,-1.254 -2.79194,-3.6168 -5.087,-3.4091 1.08576,1.5858 -1.58015,2.9821 0.66487,3.4019 1.19321,0.5116 3.61544,0.897 0.86483,1.3231 0.96734,0.4708 0.33336,2.6667 1.5378,3.4441 -0.12232,1.5243 -0.37394,3.0424 -1.00517,4.6537 0.19479,1.1235 -3.62107,3.2274 -1.54246,2.6857 1.54093,-0.4099 3.02256,-2.183 4.5825,-1.7188 1.69256,1.4223 1.55717,4.1288 0.72229,5.9909 -0.63668,1.602 -2.39311,2.5333 -3.16609,3.3247 -0.42421,2.6634 -1.421,-0.3584 -2.86023,0 -2.17786,-0.4236 -4.20684,0.5787 -6.22244,1.1977 -0.47866,2.4147 0.13401,5.0107 -0.7822,7.4034 -0.19594,1.7831 -1.70922,2.6683 -3.09549,3.4324 -1.3881,1.6448 -3.73236,3.8877 -5.94902,2.4107 0.5063,-1.3077 0.86697,-1.3284 -1.51874,-2.012 -1.69986,-0.192 -1.69531,-2.5936 -3.86554,-2.0808 -1.27582,-0.4563 -2.18582,-0.1139 -3.69081,-0.042 -1.19279,-1.8674 -1.63038,1.0351 -1.45117,2.0386 -0.50478,0.7514 -2.76013,1.7529 -3.23683,0.3684 -1.71804,-0.8062 -3.71926,1.8344 -5.5273,0.888 -0.9828,1.2905 -2.00799,1.0678 -2.8145,-0.5461 -0.86824,-0.9493 0.27739,-3.0507 -0.0225,-4.2127 1.9502,-1.8202 0.32291,-4.9476 -1.9529,-5.4334 -1.07392,1.9891 -2.84952,0.3244 -3.81486,-0.9387 -1.43929,-1.3216 -0.78113,-3.9914 -3.07022,-4.4598 1.2528,-0.6237 0.76754,-2.947 0.0339,-4.3022 -1.27693,-0.667 -1.36921,-2.2795 -2.66639,-3.204 -1.26439,-1.2387 -3.61101,-3.2415 -5.04902,-1.1719 -1.46208,1.3861 -1.92541,4.3975 -4.24617,4.4963 -1.66121,-0.3746 0.4741,2.3643 -1.2397,2.167 0.0466,1.007 1.27492,1.964 1.84063,3.192 0.58458,0.8458 0.49335,3.2431 -1.40938,3.2391 -1.30194,-0.066 -3.52148,1.7271 -2.08005,2.8409 -1.06355,0.696 -0.0812,2.8554 -1.82737,3.4934 -0.68937,-0.7605 0.83354,-4.0298 -1.09516,-2.4041 -1.76328,0.7045 1.84788,3.7689 -0.8265,2.8324 -1.62284,-0.126 -2.14106,-0.9128 -3.28927,-1.3457 0.48248,-2.0844 -2.02002,0.6495 -3.1835,0.7223 -1.56783,-0.4962 -3.3883,-0.5109 -4.7864,-1.3871 0.065,-2.0171 -2.13168,-2.6819 -3.3726,-3.8781 -2.00348,-0.3887 -4.68607,0.6953 -6.21237,-1.0249 -1.1444,-1.6102 0.30133,-4.2487 -1.42423,-5.4989 -2.10532,0.203 -3.39913,-1.5173 -3.8648,-3.3702 -0.17694,-1.8752 -2.70644,-0.7217 -3.39787,-2.523 -0.97474,-1.5932 -2.43121,-2.9464 -3.25894,-4.5758 -1.58828,-1.9602 1.25602,-1.9266 2.6548,-2.6306 1.96643,-0.7316 1.99204,-3.7185 3.83941,-4.3237 2.29268,0.6762 5.24895,1.4122 6.90342,-0.8801 1.45676,-1.2887 2.66832,-3.1084 4.63208,-3.4864 0.43171,-2.9876 -2.09122,0.5335 -3.08648,-1.4999 -0.89254,-1.9744 -2.7661,0.8218 -3.13858,-1.4892 -2.05681,-0.3545 -1.67057,-2.1886 -2.44808,-3.2508 0.48517,-0.5311 2.6045,-2.1257 3.68644,-2.5657 1.25118,1.4957 3.44582,2.4173 5.06865,0.9041 1.11633,-1.5418 2.47818,-1.971 4.17857,-1.6835 1.38967,0.01 2.89616,0.6447 2.04115,-1.4759 -0.27023,-3.3628 3.79695,-4.8724 4.15645,-8.1088 0.44949,-1.5516 -0.91367,-4.0125 1.27378,-4.6021 0.61858,-1.3287 -0.0231,-2.9958 0.4216,-4.1441 0.80678,-1.4514 1.77937,-3.0973 3.70545,-2.8735 1.24642,0.1347 3.11158,-3.2911 2.26085,-0.4235 1.61768,-0.1208 3.27303,-1.0343 4.69139,0.3506 1.56092,0.6385 3.5896,0.3548 4.33451,-1.3448 1.1254,-0.9225 0.39294,-3.1291 1.74804,-4.1756 1.30695,-1.2628 0.0732,-3.8659 1.31763,-4.9281 1.42399,0.3035 2.58561,2.0252 4.30057,1.3891 2.22929,-0.01 4.43525,-0.1089 6.34846,-1.3904 1.48623,-1.1104 3.37072,-0.8814 5.00401,-1.3091 1.12159,-1.346 3.07084,-3.5272 4.81498,-1.7054 l 0.23121,0.1426"
       id="path959"
       inkscape:connector-curvature="0">
      <title
         id="title5289">Northern Ireland</title>
    </path>
    <path class="state"
       style="fill:#e9c6af;stroke:#000000;stroke-width:0.2"
       d="m -134.4194,-4105.6404 c 4.03699,-0.1364 10.83857,-0.4652 13.00125,1.8274 -0.0364,3.576 -7.34473,8.0988 -2.44965,10.3316 2.74102,1.3285 -2.20296,8.5894 -4.63015,11.2389 -4.37941,2.6778 -9.77846,4.0381 -11.67583,9.4459 -4.04829,4.2145 -9.72814,6.8636 -13.85502,10.5982 -1.00561,2.781 -7.52301,6.79 -7.7811,5.4738 -6.34329,-1.6436 5.60531,3.4439 0.2007,5.9569 -3.61802,1.0576 -7.72556,-0.1937 -11.85638,-0.1844 -6.28672,-5.1928 2.49575,3.5424 5.8854,2.2097 1.18536,1.7977 8.99653,-1.3163 9.11176,1.8273 4.77056,-1.169 9.50143,-5.7872 3.70367,1.9584 -3.66572,5.3253 -5.82521,6.8279 -8.96835,3.8377 -4.44274,4.1942 -9.78057,2.9331 -13.0569,8.456 -2.37071,5.6975 4.98437,-3.5222 7.2946,-4.1979 3.59005,1.9916 12.57403,-3.6288 5.88916,2.9727 -1.93107,3.5482 -3.38155,5.6744 -7.53866,5.2433 2.26649,2.2468 1.24488,6.4113 6.47863,1.2869 1.97151,-4.1667 2.90911,-4.2779 10.34041,-4.0776 4.46775,-3.5025 7.8129,-5.4219 10.14596,-3.46 0.52978,-0.9987 3.95182,-5.5736 8.32654,-5.6911 6.1284,-0.6877 12.41996,7.4162 18.10446,1.6174 5.11901,-0.8852 8.57201,0.7277 12.94788,0.7847 3.61573,0.8442 6.403513,1.9019 9.66472,0.5452 3.312813,-1.0804 7.4868,0.9116 11.522763,-1.6725 4.893016,0.2352 6.537904,2.5115 10.158437,6.3698 0.75116,4.1411 2.278223,7.8561 2.5536,10.2267 -3.048172,4.6551 -7.672387,7.884 -9.74883,13.2325 -3.654271,4.7341 -0.713037,10.1578 -3.419503,14.2192 -3.900614,3.6303 -3.499742,8.8389 -4.810967,12.9173 -1.444502,5.0248 -7.754042,7.0648 -9.259472,11.931 -1.704534,4.1895 -1.100959,9.2607 -5.972628,11.5226 -3.77112,3.5457 -5.39413,7.0637 -11.11886,6.1929 -5.89151,0.01 -11.31175,1.9786 -14.78314,6.9637 -8.00023,2.3238 6.60488,-0.4951 9.09113,-3.2813 3.20381,-4.6699 11.70515,-2.1823 6.99317,3.4045 2.11331,3.0808 8.37499,1.8162 10.4712,6.1668 -3.41495,4.693 -9.15927,7.3015 -14.5866,4.7881 -3.94983,2.6969 -7.83007,6.203 -9.5679,10.5909 -5.40422,1.3626 -10.62282,3.7856 -16.2288,0.4481 -3.64967,2.8969 -13.30269,-7.8846 -7.8333,-2.1774 2.01135,4.7638 5.38843,4.799 10.0238,5.1544 5.84415,1.2791 10.29443,2.3546 16.3108,2.7906 2.86858,4.2971 10.06639,-1.3502 10.2584,-4.0249 1.17447,-4.4251 12.72886,-3.3561 11.3506,1.6799 4.327002,-1.1982 7.475109,3.4134 12.083103,4.9394 5.923789,-0.2758 8.047145,4.1976 10.429197,8.8716 -2.90849,1.1682 -3.512891,4.8653 -6.143,6.825 0.782423,4.7067 -8.379435,3.4228 -5.1955,6.5552 1.542978,3.6894 4.172667,7.7625 4.6815,11.5777 -3.109437,1.8783 -5.82238,4.4206 -8.2509,6.4962 -3.92337,-2.1296 -6.78734,4.3288 -9.2988,6.559 0.85197,3.3874 -3.26236,6.0859 -5.78036,7.8788 -3.65973,1.3861 -4.96379,6.4543 -8.32044,7.6894 -3.50604,-1.7188 -2.58254,8.5781 -9.43541,4.8094 -4.00156,0.6733 -10.37139,-2.3732 -12.60709,-0.3991 -4.80881,-3.5133 1.79361,11.0069 -6.657,6.5729 -2.47898,1.7381 -6.70243,2.5841 -4.8742,0.01 -1.3989,3.1511 -1.59626,6.8583 -7.9699,8.0429 -2.98048,0.4929 -1.10362,-7.9455 -3.26429,-1.8905 -3.13327,5.9577 -3.91181,-8.9294 -7.13461,-3.0935 -3.99453,-2.0569 -7.22185,-7.7204 -5.5689,0.5741 4.0016,1.2638 2.25736,6.9019 1.7707,10.094 -5.21282,1.3066 -6.96156,-4.9002 -11.03009,-7.2775 -4.46424,-1.0292 -7.29953,-8.5597 -11.47421,-3.2504 -3.66779,4.4468 3.36952,8.6683 2.156,13.1739 -2.30303,3.613 -3.32021,-5.0196 -4.6615,-6.027 -1.80234,-5.5087 -9.20918,-9.2869 -7.67835,-16.3638 0.0163,-6.4059 5.96931,-3.3136 4.58275,2.0138 5.35131,5.4581 0.76842,-4.2015 0.61824,-7.0829 0.27896,-5.3592 3.27823,-8.6821 6.72526,-12.3982 2.59982,-2.7468 0.3795,-8.2871 4.3885,-10.5559 0.34678,-4.5962 11.22657,-8.2586 3.4489,-12.2291 3.1581,-5.3751 -5.77907,-5.578 -6.67917,-8.8125 -4.72574,-2.964 2.01071,-8.4153 -1.41113,-13.6152 -1.9616,-6.3295 4.87405,-7.6544 8.6805,-4.8511 9.21555,1.4945 7.08786,0.4816 -0.0402,-1.9669 -2.97122,-0.6277 -7.17077,-10.9378 -6.5886,-6.209 6.08436,7.1437 -4.50376,4.2915 -0.74261,-2.085 2.77498,-5.2812 5.89657,-12.8095 0.79492,-3.1635 -2.85863,-1.1426 -3.47843,-5.5947 -2.00361,3.1625 0.61562,5.3979 -3.49103,5.6786 -1.1042,8.295 -0.4678,6.5084 -6.70949,8.4898 -6.3076,0.2241 -6.27507,-10.1311 3.9542,9.3732 -3.79739,1.8221 -0.93237,-5.6325 -4.2374,4.6934 -1.43421,7.0817 -4.73124,-0.3806 -6.33494,-5.5419 -5.0067,-9.496 -0.14997,-4.9025 4.27141,-10.5914 8.83147,-12.8628 -0.19826,-3.558 10.94908,-10.3474 5.34041,-6.892 -4.92326,1.4071 -6.80254,7.3127 -11.3913,10.1247 -2.56816,2.3449 -4.97925,9.5206 -7.54248,5.4023 -1.60155,3.9811 1.63836,7.3536 1.6663,10.4228 2.05381,2.9565 5.4771,8.216 -0.75993,10.5174 -2.37867,3.4485 -3.15446,7.2211 -1.57687,10.4756 -2.58077,2.7163 -1.05916,8.1731 -4.9585,10.5979 4.17426,1.6153 2.32664,8.6737 -2.6058,8.5537 -4.67299,2.6688 -8.16288,-3.7896 -4.5731,-7.4835 4.09346,-3.9179 0.0985,-10.0768 3.10284,-14.5092 0.47871,-4.3864 2.69498,-8.5929 6.65093,-11.3078 6.27847,-9.7707 -2.30061,3.7346 -4.38655,-0.078 -6.12972,-2.2952 5.58626,-13.8307 0.0852,-8.6284 -6.26612,3.4144 1.46026,-6.7585 2.0477,-8.9042 -2.13638,-2.4827 -4.75189,9.6076 -5.0349,5.383 0.65935,-3.1064 3.31305,-9.3551 6.0747,-9.6528 -0.013,1.0955 0.60291,-5.8772 0.66212,-6.3585 -4.74833,7.2556 -1.73074,-3.7545 1.12448,-4.5824 -1.70725,-0.4608 -5.97823,-1.1528 -1.571,-7.146 8.47578,-0.1589 -3.52366,-0.2335 2.7033,-4.2706 1.52488,-6.5745 10.84179,1.3579 13.1285,-4.9164 3.81036,-6.2743 3.53084,-5.762 -0.6378,-0.4878 -3.49322,5.8549 -10.30058,-1.8253 -11.26377,0.8408 -2.16233,-3.9081 4.16538,-2.3212 7.82297,-5.4749 0.33772,-0.9832 -8.24913,4.1394 -5.6251,-0.7139 2.91697,-3.7508 2.37228,-7.267 6.57774,-8.2063 5.73537,0.091 13.23471,-3.771 2.74116,-0.8518 -8.92365,-0.1484 6.59322,-11.4426 -0.70297,-6.5719 -2.46691,2.489 -3.27922,5.838 -6.83723,7.1809 -3.66478,3.7599 -7.22695,7.4524 -10.89477,11.7083 -4.22563,5.1777 -5.3987,-6.3198 -6.72545,-1.9942 -2.99096,1.2074 -13.56661,-7.237 -5.87578,-7.4393 5.63131,5.2515 1.87485,-5.7204 9.78959,-2.4059 8.69037,0.7246 2.90408,0.052 -2.41799,-1.78 -4.60668,4.2 -9.70006,1.5236 -15.0122,1.3261 -4.03387,3.8211 -6.48424,-4.3012 -1.24986,-4.2359 4.59963,-1.1064 9.64415,-1.6976 12.11446,-0.1253 -3.85204,-4.0096 8.48546,-0.074 0.1004,-4.2072 3.44112,-2.453 11.43691,-4.2161 2.6861,-2.933 3.93326,-5.6288 -7.85289,0.5771 -3.78106,-4.2664 0.8006,-2.5478 3.33221,-10.5141 6.87192,-5.8867 1.84809,5.0135 11.63258,-1.8416 4.00774,1.1511 -1.92476,-3.3695 -9.34081,-3.1837 -5.49709,-7.7103 3.02502,-4.7344 7.43981,1.5061 11.60389,-0.3044 5.62449,-1.7324 -5.59459,0.6977 -7.17753,-2.724 -3.09048,-1.2991 0.30646,-10.5076 4.44955,-8.4269 7.80735,5.2603 0.0433,0.6683 2.08407,-2.8436 2.67413,-2.9349 -6.14946,3.6584 -9.19689,1.3526 -3.01239,-4.9946 4.77136,-4.0188 7.9819,-6.1179 6.40581,-8.0991 -5.07407,3.7203 -4.69293,-0.7414 0.70679,-6.5054 -3.92481,5.3576 -7.61317,1.8685 -0.62965,-3.7649 -0.13907,-5.7647 -2.44536,-8.578 0.3239,-3.9996 1.08981,-10.6591 5.46466,-4.7399 3.46272,3.7017 3.93651,0.1609 8.8291,0.259 -5.3717,-1.7631 -7.73874,-0.058 -9.86711,-6.2118 -6.54795,-4.5199 3.82959,-4.8015 2.94111,-5.6812 -4.70728,-1.5711 -6.32446,-5.6104 -4.1877,-10.5421 5.78549,-3.6888 3.47167,4.5733 6.7212,6.4231 1.74105,-0.8965 1.40761,-5.3047 -1.0278,-8.3159 1.96084,-7.0751 4.61368,3.9215 7.488,1.995 0.15724,-8.2173 8.69607,3.2866 9.0298,-0.021 -2.16616,-1.6832 -9.52405,-5.4748 -4.4527,-5.3129 3.18706,2.4544 8.49775,2.8206 11.0976,7.2449 -2.68892,-4.8168 -5.80021,-6.288 -6.86802,-9.4773 -3.02149,-1.5202 -5.68546,-4.2704 -7.13638,-5.1426 -2.88858,-7.4417 3.57862,0.6628 5.4805,-3.101 -0.69996,-4.5795 2.80864,-3.5682 -1.2045,-6.3632 -1.81075,-2.5511 -5.65417,-8.2025 1.4494,-4.6298 4.28968,-1.9849 8.13093,-1.8015 12.70422,0.662 1.04144,-0.6588 0.59415,-3.2042 -4.40193,-2.4528 -3.54675,-2.5056 -4.95992,-5.8636 -3.02249,-9.1782 1.39892,-0.7312 7.64151,1.218 2.3568,-0.9659 -2.48254,-3.4448 7.55466,-0.694 0.46221,-4.1658 -3.67599,-3.6765 4.84148,-5.1493 2.82209,-10.1004 3.77306,-2.1638 10.21916,1.9735 7.5041,6.5168 1.46205,-5.6263 2.45388,-6.1856 6.3759,-1.6099 -4.14821,4.9762 -4.28489,9.2347 0.3533,2.6321 1.43098,-4.0786 6.30146,-7.1421 8.9375,-1.7712 -2.30815,3.5411 -2.92786,8.4541 0.0803,2.5338 2.86693,-5.4328 7.25666,-0.3799 8.6805,-3.766 2.87587,1.7457 6.61309,-4.5936 8.0461,-1.4282 5.44581,1.9317 10.29536,-1.3681 15.04096,-3.5035 3.96437,0.278 5.77186,1.5122 10.86404,1.5752 0.10237,-0.5262 -3.78167,-9.0625 0.6504,-3.584 m -114.3319,20.6931 c 1.73396,1.2487 -4.57766,4.7686 -4.8783,7.2941 -4.76214,3.8184 4.78496,2.197 6.677,-0.4406 -0.22194,2.2178 -2.31953,6.7017 -5.7374,4.13 -7.45665,-2.7793 0.22234,4.8798 -6.59906,5.8173 -5.29107,1.9116 -8.68006,3.492 0.0639,1.4867 4.7671,-2.2771 2.29787,5.1735 3.47189,4.7021 -5.1372,3.2151 -8.82126,-1.055 -3.81851,4.3596 -2.99931,2.1878 -3.80717,4.9821 -6.6208,0.6228 1.92321,7.3781 -6.81137,-4.1861 -1.4414,-6.16 7.63522,-2.783 -7.84974,0.5468 -2.65697,5.5296 1.7781,1.5532 4.20846,6.2613 0.84767,5.5095 -7.7368,-3.0858 2.12746,4.256 -3.2256,4.7668 -2.40277,-1.9877 -2.65406,1.1688 -4.1274,3.6682 -3.14183,5.575 -9.13901,-2.886 -8.6484,-5.1032 3.77236,2.5 6.91622,-3.307 7.70063,-4.8528 4.56979,0.4565 3.27964,-1.49 -0.46659,-2.8259 -3.10483,-0.3513 -9.87691,-2.4638 -4.92544,-4.7916 5.16005,-3.1217 2.97843,-0.7272 0.245,-2.4567 2.13023,-1.792 -2.302,0.5008 -2.7062,-4.466 -1.16978,-4.1514 2.77578,-5.5406 2.8025,-5.5649 -3.12006,-5.5074 7.99759,-1.7672 4.537,-0.063 2.45461,4.8365 2.87489,7.8906 2.2685,1.2179 2.88075,-3.8917 8.43761,3.6501 4.88864,-3.0915 -2.64526,-0.357 -1.27051,-3.832 -2.66834,-4.3073 3.09082,-3.9846 6.67091,-3.9091 10.8446,-6.139 4.25941,-2.4312 8.76748,-9.571 12.97627,-8.9387 3.61377,3.8318 0.3766,6.7364 1.19683,10.0936 m -26.7281,7.2064 c 5.90842,2.9158 -2.22476,5.0279 -0.7548,-0.3082 z m -5.4685,23.6809 c 0.0868,3.6134 -7.77094,1.3994 0,-1e-4 m -6.9299,13.9932 c -4.70576,2.26 2.00186,-4.0033 0.0226,-0.024 z m 34.4931,0.8678 c 2.69811,4.1075 7.84676,6.9895 6.673,12.7961 1.94052,5.5387 -3.44777,8.6817 0.8512,9.2189 -1.915,6.2673 2.62117,4.4971 1.89696,7.2327 2.27032,-1.1322 6.68856,3.537 8.44984,1.9514 3.6342,-1.7323 10.65418,-1.9967 7.8373,3.6709 -4.1563,2.6731 -5.42433,5.5366 -8.83633,9.3002 -3.86661,6.1748 -7.21041,0.9449 -3.86317,-3.2451 3.22343,-4.8657 8.73656,-4.6936 0.0281,-3.948 -2.57195,-6.7113 -1.09443,-0.8936 -3.1478,2.2959 -1.42854,2.3871 -3.18741,-7.3383 -3.8223,-3.206 -8.18095,3.3572 -3.46054,-0.4804 -8.6608,-2.115 3.18862,-1.6296 -6.36292,-3.6572 -3.43295,-7.1562 4.28241,-1.421 8.22314,3.9021 2.20065,-2.202 -3.79955,2.3254 -1.20101,-5.4919 -4.7217,-2.0538 -1.01227,-6.0353 -1.32885,7.911 -6.9139,1.148 -3.58861,-5.6814 -2.77711,-5.7013 -0.7989,-10.486 1.6429,3.7649 6.35198,6.2602 3.3967,1.442 5.30785,-1.6005 -1.4065,-2.4998 0.012,-5.8241 -0.29011,-5.1971 4.00239,3.5161 6.669,4.504 1.08007,1.619 3.97651,-0.6468 5.9864,2.7789 -2.74883,-3.6696 -1.98886,-7.3465 -3.216,-9.8487 -2.39456,-2.5238 2.3508,-4.7243 3.4127,-6.2513 m -35.26,3.3362 c 5.57881,-1.9602 5.17828,6.3487 0.7227,0.9591 -5.36607,0.7983 5.60435,3.5862 0.97345,5.4946 -3.53095,-0.1255 -10.0673,0.9443 -2.75266,1.0085 7.31621,-0.709 -1.05829,5.4547 -4.13889,2.2055 -0.16594,-3.6634 -3.624,-3.8003 -7.2632,-4.0602 -5.55447,-2.1195 5.72105,-8.8198 3.4127,-5.131 3.71563,-1.7407 3.70314,-2.3575 6.0627,-0.5392 -1.41576,-1.6965 6.63208,-3.4594 2.9832,0.063 m 49.0276,8.4839 c -1.77432,3.6697 0.5777,-7.5382 0.12969,-0.6815 l -0.12969,0.6818 m -0.5822,2.5477 c -3.04114,3.8396 1.30995,9.6556 -2.2564,11.7391 -2.62009,-0.4934 -2.13048,-8.9674 0.8833,-9.7719 -0.75134,-1.646 0.45028,-3.6085 1.3731,-1.9672 z m -52.5969,0.8542 c 1.23121,0.6497 5.7502,1.7101 1.1603,2.5412 6.87874,3.1373 -7.03556,4.6623 -5.5849,-1.0739 0.71837,-3.0556 3.08708,-0.9789 4.4246,-1.47 m -2.4291,5.4135 c 2.97812,1.6543 7.21265,6.884 1.62768,3.7339 -4.25023,-4.314 -2.89505,0.036 0.28742,1.5653 5.87235,-0.4213 4.13058,6.3254 0.17541,6.7837 -4.64025,-3.1103 7.62323,7.8563 -1.81751,5.6409 6.39187,0.6312 4.98481,5.5468 -0.95429,3.094 -1.43959,-4.3943 -3.834,-8.3229 -1.90041,-11.9559 3.47681,-3.0102 -3.88043,-8.2289 2.5817,-8.8652 m 57.3186,8.1445 c -6.07774,2.0322 -2.33447,-6.5369 0,0 z m -23.7088,16.8698 c -9.07324,1.9707 0.68543,-3.947 0,10e-5 m 9.877,2.3169 c 3.36324,4.2497 -4.65874,7.4158 -6.7011,1.337 -1.90287,-3.2203 8.27969,-6.2997 6.7011,-1.337 z m -44.6512,2.1072 c -0.29935,1.3917 -8.39334,5.563 -5.866,0.7629 -0.26454,-1.7737 4.89861,-8.4196 3.987,-3.574 -0.0943,0.584 2.26335,1.2676 1.879,2.814 m 32.839,27.2129 c -5.49493,3.7098 -6.31961,1.9053 -1.7156,-2.8953 2.90178,-4.4283 9.01121,-4.0577 3.7151,0.8864 -1.05939,-0.1019 -1.27947,1.4709 -1.9995,2.0088 m 21.3038,-1.4069 c 1.51317,5.0103 4.10622,7.8876 8.813,7.147 2.32171,1.2208 7.14938,4.2445 6.1068,5.9742 0.14554,3.9119 -2.72224,-0.543 -4.8983,4.0599 7.08485,-2.806 -0.93636,6.6933 -3.6055,3.136 2.01346,-4.4214 -5.71945,1.64 -7.7209,2.7582 -3.66197,-1.4298 -7.3079,2.6773 -10.4993,0.84 -5.49511,-7.7268 3.71535,-2.8025 3.6416,-3.4581 -0.53385,0.3699 12.39287,-4.1908 6.71941,-3.5306 -6.56575,3.7459 -5.26644,-2.3144 -1.90541,-5.1356 8.25107,-2.2918 2.03964,-2.6274 -1.22218,-2.9669 -4.45106,-3.0989 -8.93566,-3.9438 -6.11719,-8.0242 3.21224,0.7721 5.47304,-5.8734 9.62797,-1.9798 -0.28227,1.1681 -0.34038,1.3105 1.06,1.1829 m -34.0515,12.212 c -8.96005,-2.3434 -0.33004,-6.3515 4.46012,-7.2521 5.72997,1.8497 -6.44076,3.6521 -4.46012,7.2521 z m 28.9724,-1.764 c -6.88248,1.5989 -3.21912,-5.8661 0,1e-4 m 26.3869,3.388 c -1.9965,4.8412 -6.15208,1.4389 0,2e-4 m -3.2843,6.6848 c -0.90172,7.6082 -5.14723,0.1853 0,0 z m -1.1243,4.347 c -0.005,9.3597 -4.45585,2.1362 0,0 z m -4.5209,7.049 c -2.89068,-2.289 5.58037,-2.611 0,0 z m -2.2083,9.9471 c -2.06557,5.4583 -5.56277,9.0832 -7.0343,14.042 -3.04938,5.7459 -7.72405,-4.475 -4.2078,-7.1962 7.45491,-4.7261 5.31248,-0.9701 3.0876,-6.02 2.99621,-3.7171 7.50193,-8.3105 11.5954,-9.695 1.15391,3.493 -3.19618,5.3583 -3.4409,8.8691 m -14.1811,-6.4329 c -0.43134,5.7145 -8.06066,7.9997 -3.1437,1.0919 1.35134,0 2.00435,-3.6594 3.1437,-1.092 m 1.2447,19.698 c 0.57808,4.1531 3.08527,6.2885 3.1679,10.451 -1.48201,2.9995 -6.61235,2.8443 -8.1706,5.6071 -7.80256,4.2102 0.66562,-4.9654 -2.0116,-7.154 -2.84424,-1.6357 2.11519,-9.8084 -3.63131,-2.9415 -1.53767,3.667 -6.2523,7.3758 -5.47479,1.6253 3.44721,-3.6179 -0.77721,-8.6531 5.68792,-10.6851 3.07346,-0.904 -0.29352,7.7602 3.91208,-0.6967 6.12898,-5.4708 5.84816,-4.4778 6.5204,3.7939 z m 43.8843,7.1329 c -3.32545,-0.7886 -5.20315,-7.2324 -7.1949,-10.416 -1.22761,-6.2377 5.34008,0.7356 6.02875,3.1725 2.09291,2.622 -0.18065,5.12 1.16615,7.2435 z m -4.3523,20.2651 c -4.63001,1.6372 -11.60115,-2.6652 -9.1502,-7.735 -4.31503,-3.7084 -0.98483,-10.1043 2.0276,-11.8369 4.87995,-1.3422 6.75071,6.359 7.05365,9.6539 0.52209,3.9645 1.74977,4.7433 1.10485,9.4773 l -0.94596,0.4026 -0.0899,0.038"
       id="path1057"
       inkscape:connector-curvature="0"
       sodipodi:nodetypes="ccccccccccccccccccccccccccccccccccccccccccccccccccccccccccccccccccccccccccccccccccccccccccccccccccccccccccccccccccccccccccccccccccccccccccccccccccccccccccccccccccccccccccccccccccccccccccccccccccccccccccccccccccccccccccccccccccccccccccccccccccccccccccccccccccccccccccccccccccccccccccccccccccccccccccccccccccccccccccccccccccccccccc">
      <title
         id="title5285">Scotland</title>
    </path>
    <path class="state"
       style="fill:#f4d7d7;stroke:#000000;stroke-width:0.2"
       d="m -168.7599,-3730.895 c 2.06099,0.8221 2.8789,-2.0574 4.57725,-0.7942 3.3208,-0.4152 0.15003,2.417 -0.26073,3.9914 -1.59583,1.1978 -4.10747,1.412 -5.00712,3.5926 0.22882,1.9849 -2.35224,2.6549 -3.61075,4.0148 -1.26562,1.4559 -3.51369,0.6208 -4.17445,0.4445 0.22302,-1.4725 1.96276,-4.9299 -0.45109,-2.2094 -0.73696,1.346 -3.13869,-0.8284 -2.79301,-1.8996 -0.55729,-1.7767 -1.89345,-3.3939 -2.76015,-5.1496 -0.45245,-1.5521 0.2502,-3.5248 0.10042,-5.2726 0.20858,-2.0779 -1.11459,-4.2992 2.00145,-4.464 2.16792,-0.9818 4.41312,-1.6247 6.74498,-0.7661 1.93916,-0.022 3.23262,1.7534 3.0756,3.5769 1.79065,0.6959 1.18091,2.5478 2.3126,3.9621 0.0544,0.3386 0.0324,0.678 0.245,0.9731 m 38.2391,-0.9868 c 2.23058,1.7621 5.18384,2.8273 6.5445,5.453 -0.58572,-2.6394 2.68101,-1.0457 3.82271,0.085 1.26588,1.2399 3.65036,2.6031 3.10329,4.6465 -2.68349,0.7297 -1.2557,2.7237 0.2068,3.8853 1.66914,1.9308 1.65641,4.7154 2.62238,6.8838 0.75127,2.2442 2.95114,1.8953 4.56865,3.1869 0.64011,1.2007 1.29276,3.7848 -0.80923,3.9389 -2.30271,2.5781 -3.17373,-3.4468 -5.77204,-1.8722 -1.86449,1.4497 -2.49419,-2.2046 -4.37396,-0.8091 -1.4193,1.3607 -3.42347,2.0032 -4.1114,3.9689 -1.73316,0.7853 0.17867,3.1615 -1.7667,4.186 -0.48125,1.8904 0.87804,3.8677 2.9189,3.6051 0.6802,1.8285 3.43278,0.8601 3.9749,2.9961 2.34831,1.5395 -2.2127,1.4718 -1.85286,3.3647 0.0225,1.822 -0.6111,3.145 -1.72054,4.3913 0.60068,2.2248 -2.68778,2.3369 -2.2645,4.3189 0.72106,1.2082 0.21317,4.2285 1.92562,1.9275 1.17615,-0.9342 2.84829,-3.2879 3.83598,-0.7616 0.21538,1.5106 -1.66054,3.655 -3.09099,3.776 -2.16843,-0.3367 -3.61841,1.3524 -5.50521,2.0271 -1.74491,1.667 -0.4685,4.2059 1.43566,5.0359 1.51842,0.9971 2.55975,3.0128 4.25638,3.4444 1.49894,0.051 5.69907,0 2.99575,2.039 -1.83123,1.2707 -0.271,3.0632 0.87591,3.6796 -1.46524,0.5068 -2.91825,0.895 -3.9227,2.3727 0.0137,1.9107 -2.89433,3.3043 -1.8188,5.089 2.86565,0.5266 -2.02846,1.4181 -0.6906,2.664 1.63548,0.6901 -1.71479,3.0822 0.4617,3.8988 1.54839,1.2472 0.39228,3.4687 1.80501,4.8875 0.70018,1.9368 2.69333,2.9839 3.12549,4.9757 1.23951,2.168 2.8523,0.02 4.27707,-0.4353 2.05793,1.8236 4.32672,3.7632 5.65213,6.2383 1.44184,0.2751 4.33998,1.1101 3.06285,2.5558 -1.68364,1.4657 -0.13244,3.3628 -0.74215,4.9833 -1.07194,1.5209 1.94426,3.9776 -0.273,4.9069 0.60519,1.5109 1.28052,3.4705 -0.3935,4.6132 -1.69794,1.046 -3.68372,1.579 -5.25572,2.9725 -1.6512,0.5453 -4.32304,1.4769 -5.59688,0.066 -1.16784,-1.549 -2.25495,2.81 -4.12701,2.9172 -1.79289,0.5698 -2.58555,2.3755 -3.43339,3.7749 -1.68239,0.1313 0.83312,4.0099 -1.63723,4.0499 -2.05663,-0.6617 -3.79082,1.9141 -6.00048,0.8468 -2.83319,-0.5362 -6.00579,-0.087 -8.62319,-1.2497 -1.27605,-1.9025 -2.60663,-4.2488 -4.8019,-5.0329 -1.62703,1.0134 -3.25847,-1.6622 -2.75659,-2.8977 -0.39913,-2.077 -1.17543,-4.1519 -2.86451,-5.4672 -0.38968,-2.6883 -3.09545,-1.6836 -4.93127,-1.4582 -2.45337,-0.1632 -2.90363,2.3069 -1.39643,3.8032 -1.96134,1.0291 -2.39095,-0.9098 -3.6537,0.3779 -1.64179,-1.2575 -3.13412,0.1241 -4.38893,0.9507 -1.16906,0.069 -2.44766,0.2815 -4.27498,-0.7834 -0.73833,-0.8202 0.0156,-3.1843 -0.004,-4.443 2.28831,-1.1644 1.28545,-2.0338 2.76435,-0.4817 2.03556,-0.7739 5.61014,0.064 5.73464,-3.0338 -0.14414,-0.7796 -2.80402,1.371 -3.99437,-0.4297 -1.57278,-1.5917 -3.73494,0.9461 -5.65539,-0.085 -1.22682,-0.5333 -4.23774,-4.2446 -1.36115,-3.3298 3.10642,-0.5808 -1.0555,-0.4103 -1.11449,-2.1679 1.28877,-3.0241 -0.14878,-1.6647 -1.5055,-0.588 -2.81653,-2.3619 0.22697,1.73 -1.92681,1.8354 -2.85869,0.4515 -6.33043,-1.3096 -8.68091,1.2229 -0.50392,1.4199 -0.73115,3.8506 -1.89424,4.7362 -1.25469,-0.3061 -3.44005,0.9513 -5.4711,0.476 -1.53844,0.6765 -2.02858,2.9917 -3.57564,3.3215 -1.58972,-1.0935 -4.49182,-1.0909 -3.92019,-3.444 -0.72019,-0.8802 -5.11438,-2.7941 -1.38645,-2.4734 2.08863,0.3079 1.47759,-1.1141 4.15834,-0.4036 1.60187,-0.77 3.63345,-2.0705 5.2115,-1.8129 -0.97446,-1.2552 -2.38422,-4.2077 -0.0194,-4.9882 2.45378,-1.1627 -2.30918,0.5563 -3.34998,0.5526 0.96327,0.069 2.05563,2.9559 0.72751,4.1275 -3.11651,1.3575 -6.38007,0.4735 -9.5799,0.01 -0.92161,1.3727 -0.6765,2.9376 -1.81481,0.3609 -2.67671,-1.9389 -1.64498,-0.7609 0.12851,-2.6637 1.45038,-1.0234 4.35319,-1.3506 3.20771,-4.0189 0.11411,-2.0694 -0.5699,-3.9816 -2.13171,-4.087 -2.03856,-0.8794 -3.3004,-0.1607 -5.45705,0.196 -0.29794,-0.3402 0.41649,-2.616 0.45835,-3.7031 2.37214,0.6107 2.93513,-2.4795 5.1593,-2.2751 2.56678,-0.1495 2.84128,-3.0001 3.5975,-4.0329 -1.53623,-1.9709 2.63228,-1.7739 3.47778,-0.5594 2.63413,2.0789 2.21103,-2.1684 4.30325,-0.376 3.11244,1.8378 0.21685,-2.905 2.92645,-2.4748 2.06263,-0.4598 1.94074,-3.7383 3.91932,-4.0437 2.14357,2.8607 0.43966,-3.0113 3.84342,-1.7078 1.74178,-0.1939 4.47728,1.0719 5.07798,-1.2883 2.83478,-0.3454 3.34572,-4.3186 6.36241,-4.0673 3.56371,-2.543 6.71027,-5.9175 8.43013,-10.0406 1.42538,-2.8533 0.76936,-6.2925 2.38376,-9.1043 -1.04747,-2.5297 0.32384,-3.0075 2.3167,-2.6602 2.80786,-1.3258 1.97134,-3.0909 -0.69935,-1.5113 -2.19871,1.2688 -3.03552,-1.8678 -4.07071,-3.2069 -1.03369,-2.4135 0.8473,-4.9307 2.24242,-6.6369 -0.0495,-1.2754 4.81004,-3.7718 1.61603,-2.8616 -1.88777,1.3652 -2.78215,-2.4572 -4.16339,-3.4514 -1.87657,-2.083 0.15761,-2.9363 0.2168,-4.7598 -1.01696,-1.8193 -0.44562,-3.8037 1.55912,-4.5871 1.35697,-1.0506 -1.87845,-0.7081 -2.54692,-0.2079 -2.10055,0.06 -4.13144,-0.6121 -6.09736,0.5855 -1.50622,1.7377 -3.9541,0.236 -5.51967,1.674 -1.48907,1.5503 -2.33132,2.6699 -2.71016,4.6165 1.21038,2.3339 -1.79258,1.8955 -2.79154,0.5632 -1.50102,-1.6153 -2.63144,1.7257 -4.54794,0.4653 -1.64175,0.02 -3.50247,2.5052 -2.86523,-0.5193 1.83431,-3.0917 4.3357,-5.85 6.70445,-8.5185 2.5812,-0.4445 4.87291,-2.4366 6.34276,-4.5237 1.27852,-1.5537 3.91462,-2.2492 3.41127,-4.8295 -0.16479,-1.7648 0.15625,-4.5308 1.18292,-2.8868 0.53251,-2.029 2.2056,-3.4045 3.67888,-4.6601 0.74343,-2.5901 3.51141,-5.4096 6.32322,-3.9671 1.93204,-0.8122 3.39315,-2.2219 5.34682,-3.0036 1.41831,-1.308 5.65872,-0.5904 3.22052,-3.0026 -2.4897,-2.551 1.24619,-1.0298 2.05555,-0.3289 2.2104,-1.0052 2.46285,3.3447 4.88506,2.2453 4.67122,0.5838 8.38099,-2.622 12.38855,-4.4362 2.07823,-0.4603 3.91944,0.9556 4.8702,2.681 m -56.4069,-0.504 c 2.0961,-0.5292 2.96626,2.1407 3.3325,3.7311 1.78405,2.5825 -1.73015,1.7812 -1.8462,-0.3361 -0.66015,-1.2446 -4.33526,-0.941 -2.5007,-3.1696 0.42038,-0.3508 0.50244,-0.7884 1.0144,-0.2255"
       id="path1063"
       inkscape:connector-curvature="0">
      <title
         id="title5291">Wales</title>
    </path>
    <path
       style="fill:#ffffff;stroke:#000000;stroke-width:0.2"
       d="m -286.2359,-3870.0209 c 7.20038,1.1508 9.94276,5.4876 1.27422,8.0642 -7.03246,6.7277 -14.3009,11.6445 -14.69866,21.997 -2.36224,9.3608 -9.93651,9.8235 -17.78223,10.6328 -1.58641,6.7619 14.2938,5.0385 2.99703,10.6657 -7.16904,0.5936 -19.25923,7.1386 -8.01396,13.589 5.70484,5.6046 7.09453,11.506 15.20072,12.8714 3.246,4.2921 11.08449,2.9743 13.07245,2.7687 1.33466,-4.5805 2.09871,4.4403 2.80429,-2.4017 0.92253,-3.6868 7.69848,-4.7769 1.83769,-9.4697 2.90139,-7.6672 13.5976,-10.0542 13.9939,1.1285 0.43616,9.26 13.10662,4.3237 7.99777,14.9916 3.94677,4.7054 11.55816,-1.1786 15.12617,-1.8216 7.06908,1.9647 9.47429,12.5766 0.19384,6.484 -6.98796,-0.866 -3.36268,11.0798 1.35117,11.6302 -2.22805,9.0386 3.5964,15.5861 6.70079,22.1696 -3.59613,4.5226 -3.66881,5.7901 0.79501,10.9781 -6.68193,-4.4053 -7.37662,4.8674 -1.54708,6.7399 1.5295,11.5369 6.72765,22.7575 -1.44461,32.6922 -3.85976,9.3308 -1.04912,19.7939 -8.6923,27.5571 1.56237,8.1884 -8.06366,-0.7633 -3.88456,6.7356 7.01106,1.3779 5.2015,12.5606 -1.05551,7.6965 -3.06341,2.7604 -11.94122,-0.6827 -12.04919,-2.0142 -1.05371,-4.5579 -4.13645,9.8146 -5.94714,5.9441 2.91626,-4.4078 -6.01476,-14.0088 -1.82103,-3.7295 0.20198,7.4047 -5.97418,2.2417 -6.78954,3.5635 -5.32733,1.8396 -18.47787,1.3741 -18.67656,5.9766 6.30299,5.2043 -9.40417,8.9445 -10.47865,8.1363 -1.89604,5.9511 -8.18006,11.478 -15.38834,9.4978 9.99292,-6.6505 -13.22829,-8.0941 -3.46819,-2.3727 4.37991,3.697 -1.87287,10.5144 -5.58488,10.5965 -3.30183,-1.7734 -0.90083,1.4326 -2.42654,5.4175 -3.33346,-3.0595 -9.99036,-2.705 -6.5796,2.3323 -7.05264,-2.2841 -9.07102,5.2531 -16.53965,2.146 -2.30753,3.6485 -13.95024,8.7901 -9.07664,1.2067 -3.62541,4.4106 -3.7482,-5.1281 -8.78152,1.4303 -3.536,-0.4058 -13.93029,8.6903 -9.05844,0.3328 6.12021,-2.5131 11.70477,-10.3011 2.40753,-4.2219 -10.17523,3.9922 6.27327,-7.0766 9.38602,-7.3711 4.41932,-1.7225 -4.27915,-8.2298 -3.16188,-2.6184 -7.38558,2.734 -17.6674,8.2999 -23.74321,7.8634 5.5772,-2.2802 1.40957,-5.3775 7.80486,-7.1749 -2.47276,-4.3837 8.45998,-2.5544 8.46476,-8.428 4.16069,-1.1022 9.54732,-5.2034 1.5425,-2.3834 -6.43721,2.2727 -19.90628,13.9859 -19.91239,1.1439 -5.26554,3.7099 -5.09187,3.5282 -7.49963,-2.404 9.05906,-0.6073 0.96048,-9.8514 11.42675,-10.4506 6.38506,-2.2812 8.74961,-6.8077 13.22434,-8.3398 -8.28626,1.7782 -17.38089,-8e-4 -24.83319,3.2173 -6.32197,-1.0627 -1.22193,-7.5999 1.0816,-6.8336 1.93613,-5.7305 8.28602,-7.1484 10.42083,-2.6409 3.69156,-2.9282 2.75336,-7.759 4.89304,-0.9706 3.6085,2.1751 14.61221,-0.326 5.03859,-2.3167 5.81637,-5.4634 -9.01978,-10.72 3.14483,-11.1135 5.85554,-2.9114 4.48152,-3.2421 5.59646,-8.8544 11.83395,1.4211 22.88728,-4.3525 34.09044,-6.7885 2.67119,-2.5176 -10.66809,-0.1258 -6.52657,-7.209 -3.56233,3.5786 -8.87379,14.1242 -13.76061,11.365 1.922,-4.2424 -9.66241,2.6896 -10.28067,-4.0534 -0.66397,6.1691 -22.02048,10.2842 -9.57401,3.6947 7.0921,-7.5913 13.60191,-11.5866 17.34152,-20.9736 -6.711,-1.9365 1.42911,-13.8014 5.2022,-16.1865 3.13832,3.1955 7.30579,1.5951 5.69061,-1.5232 3.44246,1.6298 8.53897,-1.4958 6.24098,-3.6915 -7.95912,1.4289 4.08573,-4.9484 -4.53538,-3.8753 -6.79571,-0.7703 -18.78018,6.8082 -20.97245,-0.7159 -3.9946,6.7223 1.25425,-8.1402 -0.27918,-7.5743 -2.77488,8.1181 -1.72859,-4.1012 -5.34757,3.3287 -3.74401,6.2872 -11.22613,-1.0363 -3.25677,-3.9267 -3.15744,-1.6981 -3.24361,-3.2078 -6.92373,1.3402 -5.73064,-2.3454 -10.98598,-2.7921 -3.70008,-5.9431 -0.58127,-2.2806 2.94329,0.2492 -2.66565,-3.1439 -6.71441,-7.1952 10.81692,-0.051 4.07322,-6.3161 4.8888,-1.8843 18.97584,1.3858 6.43251,-1.9933 -8.40868,-10.1404 6.78252,-10.2924 11.26604,-12.9439 4.20871,-10.7436 -10.25511,-2.9753 -13.91296,-4.7948 -0.59652,-4.3787 3.04565,-7.7651 5.70154,-2.844 -2.09213,-4.2864 -5.98421,-8.5661 -2.59525,-13.7033 -3.25316,5.4042 -6.62835,1.8911 -3.03336,-0.627 -0.57463,-8.7205 -6.20605,-4.575 -6.72406,2.2892 -0.83277,-4.4147 -0.3107,-13.656 4.28012,-13.8132 3.4429,1.167 6.24776,3.6861 0.47915,4.4649 4.81953,3.9648 4.09857,-5.0365 8.30323,-3.2664 -7.82743,-8.0161 11.33182,-0.8702 15.88362,-2.1098 8.83457,-4.5842 7.3591,18.9421 11.79642,4.3832 2.55605,-6.9065 12.7208,-0.9946 17.67547,-0.6908 4.76113,6.6271 5.4276,1.4314 1.10665,-1.435 4.84859,-0.6862 6.4512,-0.5931 2.5411,-2.9293 3.23943,-1.7944 -9.77051,-2.2198 -1.36287,-5.103 3.3416,-7.2631 15.32762,-3.832 14.75168,-12.788 5.65013,-5.4277 2.55802,-5.5138 -2.52465,-3.5986 -3.21148,-2.2468 -8.71067,8.3602 -4.66881,-0.3788 -9.03039,4.6291 -23.53608,-6.4639 -7.99647,-10.0024 8.36924,3.123 -0.62719,-3.9979 7.07352,0.3772 -6.49259,-3.708 -5.14248,-7.0481 2.59829,-4.9301 -1.17306,-1.6605 0.49358,-3.7241 1.1239,-4.4583 -5.26591,1.1561 -4.8246,-2.4417 -2.77167,-4.5956 -5.6267,-2.7241 3.42034,-6.2228 3.22267,-6.5373 -1.25384,-11.7427 9.95483,-1.9673 13.63812,-11.1165 -2.15754,3.552 5.05559,2.8161 4.65181,5.2388 -0.42785,-3.129 3.01811,-12.4208 2.24429,-3.0362 5.61435,-1.5127 4.0185,11.5052 5.2312,1.5231 -0.39147,-8.3154 -2.4725,3.034 -4.30256,-4.5006 6.28455,-8.6801 9.07177,4.7162 9.87056,8.9335 -7.13885,3.7919 2.76914,4.0732 -5.17995,8.7158 4.82527,0.782 12.44139,-10.6539 4.91072,-16.5388 -0.63542,-8.2883 7.59212,-6.2568 11.50853,-5.1228 -8.14599,-5.4919 -3.21971,-9.2156 3.02735,-3.1801 1.15445,0.7492 0.91897,2.3731 2.09585,3.0539"
       id="path50"
       inkscape:connector-curvature="0">
      <title
         id="title5293">Irleand</title>
    </path>
    <path
       style="fill:#ffffff;stroke:#000000;stroke-width:0.2"
       d="m -185.1774,-3783.99 c -0.0888,-1.2209 -1.0632,-0.8592 -1.81037,-0.5132 -0.98613,-0.053 -1.18017,-1.931 -2.33481,-1.249 -0.98122,0.4746 -1.80353,2.2478 -2.97585,1.2234 -0.23613,-0.8356 1.32188,-0.7899 0.74368,-1.7829 0.10455,-1.3105 1.6016,-2.1056 1.66221,-3.4921 0.16935,-1.2988 -0.10946,-2.6716 0.48621,-3.8994 0.40136,-0.7703 -0.1347,-2.0519 1.15603,-1.9574 1.24581,-0.6479 1.80611,-2.0077 2.93055,-2.8138 0.96153,-0.9893 1.23225,-2.4082 1.79064,-3.6318 0.5115,-1.2614 1.00114,-2.5735 1.78256,-3.6857 0.73528,-0.7882 1.54735,-1.5004 2.51744,-1.9833 0.84632,-0.7421 2.03533,-0.6366 2.95913,-1.2092 0.86254,-0.7557 2.02278,0.055 1.31296,1.0698 -0.27252,1.24 -1.10871,2.4692 -0.63777,3.7629 0.27669,1.0275 0.43418,2.3349 1.78421,2.3076 0.80765,0.7559 0.84798,1.8308 -0.0293,2.4784 -0.24001,0.8301 -0.98761,1.3336 -1.13742,2.2015 0.0438,1.1115 -1.73355,1.0927 -1.58555,1.9957 0.0902,0.5132 0.18045,1.0265 0.27067,1.5397 -0.77456,1.2902 -2.36263,1.5871 -3.25741,2.7628 -0.17093,0.6548 -0.0919,1.3098 -0.9226,1.5803 -0.87396,0.5614 -1.82263,1.1544 -2.19628,2.1806 -0.97321,0.4371 -2.18286,0.7862 -2.22858,2.0995 -0.0901,0.3395 -0.17147,0.6816 -0.28033,1.0158"
       id="path36"
       inkscape:connector-curvature="0">
      <title
         id="title5295">MAN</title>
    </path>
  </g>
</svg>
